<svg id="SvgjsSvg1394" width="548" height="277" xmlns="http://www.w3.org/2000/svg" version="1.1" xmlns:xlink="http://www.w3.org/1999/xlink" xmlns:svgjs="http://svgjs.com/svgjs"><defs id="SvgjsDefs1395"><marker id="SvgjsMarker1422" markerWidth="16" markerHeight="12" refX="16" refY="6" viewBox="0 0 16 12" orient="auto" markerUnits="userSpaceOnUse" stroke-dasharray="0,0"><path id="SvgjsPath1423" d="M0,2 L14,6 L0,11 L0,2" fill="#323232" stroke="#323232" stroke-width="2"></path></marker><marker id="SvgjsMarker1426" markerWidth="16" markerHeight="12" refX="16" refY="6" viewBox="0 0 16 12" orient="auto" markerUnits="userSpaceOnUse" stroke-dasharray="0,0"><path id="SvgjsPath1427" d="M0,2 L14,6 L0,11 L0,2" fill="#323232" stroke="#323232" stroke-width="2"></path></marker><marker id="SvgjsMarker1430" markerWidth="16" markerHeight="12" refX="16" refY="6" viewBox="0 0 16 12" orient="auto" markerUnits="userSpaceOnUse" stroke-dasharray="0,0"><path id="SvgjsPath1431" d="M0,2 L14,6 L0,11 L0,2" fill="#323232" stroke="#323232" stroke-width="2"></path></marker><marker id="SvgjsMarker1434" markerWidth="16" markerHeight="12" refX="16" refY="6" viewBox="0 0 16 12" orient="auto" markerUnits="userSpaceOnUse" stroke-dasharray="0,0"><path id="SvgjsPath1435" d="M0,2 L14,6 L0,11 L0,2" fill="#323232" stroke="#323232" stroke-width="2"></path></marker><marker id="SvgjsMarker1474" markerWidth="16" markerHeight="12" refX="16" refY="6" viewBox="0 0 16 12" orient="auto" markerUnits="userSpaceOnUse" stroke-dasharray="0,0"><path id="SvgjsPath1475" d="M0,2 L14,6 L0,11 L0,2" fill="#323232" stroke="#323232" stroke-width="2"></path></marker></defs><g id="SvgjsG1396" transform="translate(25,114)"><path id="SvgjsPath1397" d="M 0 4Q 0 0 4 0L 115.5 0Q 119.5 0 119.5 4L 119.5 45Q 119.5 49 115.5 49L 4 49Q 0 49 0 45Z" stroke="rgba(50,50,50,1)" stroke-width="2" fill-opacity="1" fill="#ffffff"></path><g id="SvgjsG1398"><text id="SvgjsText1399" font-family="微软雅黑" text-anchor="middle" font-size="13px" width="100px" fill="#323232" font-weight="400" align="middle" anchor="middle" family="微软雅黑" size="13px" weight="400" font-style="" opacity="1" y="14.55" transform="rotate(0)"><tspan id="SvgjsTspan1400" dy="16" x="60"><tspan id="SvgjsTspan1401" style="text-decoration:;font-weight: bold;">Producer</tspan></tspan></text></g></g><g id="SvgjsG1402" transform="translate(214.5,25)"><path id="SvgjsPath1403" d="M 0 4Q 0 0 4 0L 115.5 0Q 119.5 0 119.5 4L 119.5 45Q 119.5 49 115.5 49L 4 49Q 0 49 0 45Z" stroke="rgba(50,50,50,1)" stroke-width="2" fill-opacity="1" fill="#ffffff"></path><g id="SvgjsG1404"><text id="SvgjsText1405" font-family="微软雅黑" text-anchor="middle" font-size="13px" width="100px" fill="#323232" font-weight="400" align="middle" anchor="middle" family="微软雅黑" size="13px" weight="400" font-style="" opacity="1" y="14.55" transform="rotate(0)"><tspan id="SvgjsTspan1406" dy="16" x="60"><tspan id="SvgjsTspan1407" style="text-decoration:;font-weight: bold;">Name Server</tspan></tspan></text></g></g><g id="SvgjsG1408" transform="translate(214.5,203)"><path id="SvgjsPath1409" d="M 0 4Q 0 0 4 0L 115.5 0Q 119.5 0 119.5 4L 119.5 45Q 119.5 49 115.5 49L 4 49Q 0 49 0 45Z" stroke="rgba(50,50,50,1)" stroke-width="2" fill-opacity="1" fill="#ffffff"></path><g id="SvgjsG1410"><text id="SvgjsText1411" font-family="微软雅黑" text-anchor="middle" font-size="13px" width="100px" fill="#323232" font-weight="400" align="middle" anchor="middle" family="微软雅黑" size="13px" weight="400" font-style="" opacity="1" y="14.55" transform="rotate(0)"><tspan id="SvgjsTspan1412" dy="16" x="60"><tspan id="SvgjsTspan1413" style="text-decoration:;font-weight: bold;">Broker</tspan></tspan></text></g></g><g id="SvgjsG1414" transform="translate(404,114)"><path id="SvgjsPath1415" d="M 0 4Q 0 0 4 0L 115.5 0Q 119.5 0 119.5 4L 119.5 45Q 119.5 49 115.5 49L 4 49Q 0 49 0 45Z" stroke="rgba(50,50,50,1)" stroke-width="2" fill-opacity="1" fill="#ffffff"></path><g id="SvgjsG1416"><text id="SvgjsText1417" font-family="微软雅黑" text-anchor="middle" font-size="13px" width="100px" fill="#323232" font-weight="400" align="middle" anchor="middle" family="微软雅黑" size="13px" weight="400" font-style="" opacity="1" y="14.55" transform="rotate(0)"><tspan id="SvgjsTspan1418" dy="16" x="60"><tspan id="SvgjsTspan1419" style="text-decoration:;font-weight: bold;">Consumer</tspan></tspan></text></g></g><g id="SvgjsG1420"><path id="SvgjsPath1421" d="M84.75 114L84.75 49.5L214.5 49.5" stroke="#323232" stroke-width="2" fill="none" marker-end="url(#SvgjsMarker1422)"></path></g><g id="SvgjsG1424"><path id="SvgjsPath1425" d="M463.75 114L463.75 49.5L334 49.5" stroke="#323232" stroke-width="2" fill="none" marker-end="url(#SvgjsMarker1426)"></path></g><g id="SvgjsG1428"><path id="SvgjsPath1429" d="M274.25 203L274.25 138.5L274.25 138.5L274.25 74" stroke="#323232" stroke-width="2" fill="none" marker-end="url(#SvgjsMarker1430)"></path></g><g id="SvgjsG1432"><path id="SvgjsPath1433" d="M84.75 163L84.75 227.5L214.5 227.5" stroke="#323232" stroke-width="2" fill="none" marker-end="url(#SvgjsMarker1434)"></path></g><g id="SvgjsG1436" transform="translate(88.5,53)"><path id="SvgjsPath1437" d="M 0 0L 120 0L 120 40L 0 40Z" stroke="none" fill="none"></path><g id="SvgjsG1438"><text id="SvgjsText1439" font-family="微软雅黑" text-anchor="middle" font-size="13px" width="120px" fill="#323232" font-weight="400" align="middle" anchor="middle" family="微软雅黑" size="13px" weight="400" font-style="" opacity="1" y="10.05" transform="rotate(0)"><tspan id="SvgjsTspan1440" dy="16" x="60"><tspan id="SvgjsTspan1441" style="text-decoration:;">定时查询Broker</tspan></tspan></text></g></g><g id="SvgjsG1442" transform="translate(344.5,53)"><path id="SvgjsPath1443" d="M 0 0L 120 0L 120 40L 0 40Z" stroke="none" fill="none"></path><g id="SvgjsG1444"><text id="SvgjsText1445" font-family="微软雅黑" text-anchor="middle" font-size="13px" width="120px" fill="#323232" font-weight="400" align="middle" anchor="middle" family="微软雅黑" size="13px" weight="400" font-style="" opacity="1" y="10.05" transform="rotate(0)"><tspan id="SvgjsTspan1446" dy="16" x="60"><tspan id="SvgjsTspan1447" style="text-decoration:;">定时查询Broker</tspan></tspan></text></g></g><g id="SvgjsG1448" transform="translate(180.5,155)"><path id="SvgjsPath1449" d="M 0 0L 120 0L 120 40L 0 40Z" stroke="none" fill="none"></path><g id="SvgjsG1450"><text id="SvgjsText1451" font-family="微软雅黑" text-anchor="middle" font-size="13px" width="120px" fill="#323232" font-weight="400" align="middle" anchor="middle" family="微软雅黑" size="13px" weight="400" font-style="" opacity="1" y="10.05" transform="rotate(0)"><tspan id="SvgjsTspan1452" dy="16" x="60"><tspan id="SvgjsTspan1453" style="text-decoration:;">发送心跳</tspan></tspan></text></g></g><g id="SvgjsG1454" transform="translate(246.5,155)"><path id="SvgjsPath1455" d="M 0 0L 120 0L 120 40L 0 40Z" stroke="none" fill="none"></path><g id="SvgjsG1456"><text id="SvgjsText1457" font-family="微软雅黑" text-anchor="middle" font-size="13px" width="120px" fill="#323232" font-weight="400" align="middle" anchor="middle" family="微软雅黑" size="13px" weight="400" font-style="" opacity="1" y="10.05" transform="rotate(0)"><tspan id="SvgjsTspan1458" dy="16" x="60"><tspan id="SvgjsTspan1459" style="text-decoration:;">主题信息</tspan></tspan></text></g></g><g id="SvgjsG1460" transform="translate(88.5,190)"><path id="SvgjsPath1461" d="M 0 0L 120 0L 120 40L 0 40Z" stroke="none" fill="none"></path><g id="SvgjsG1462"><text id="SvgjsText1463" font-family="微软雅黑" text-anchor="middle" font-size="13px" width="120px" fill="#323232" font-weight="400" align="middle" anchor="middle" family="微软雅黑" size="13px" weight="400" font-style="" opacity="1" y="10.05" transform="rotate(0)"><tspan id="SvgjsTspan1464" dy="16" x="60"><tspan id="SvgjsTspan1465" style="text-decoration:;">生产消息</tspan></tspan></text></g></g><g id="SvgjsG1466" transform="translate(344.36776859504135,189.66942148760324)"><path id="SvgjsPath1467" d="M 0 0L 120 0L 120 40L 0 40Z" stroke="none" fill="none"></path><g id="SvgjsG1468"><text id="SvgjsText1469" font-family="微软雅黑" text-anchor="middle" font-size="13px" width="120px" fill="#323232" font-weight="400" align="middle" anchor="middle" family="微软雅黑" size="13px" weight="400" font-style="" opacity="1" y="10.05" transform="rotate(0)"><tspan id="SvgjsTspan1470" dy="16" x="60"><tspan id="SvgjsTspan1471" style="text-decoration:;">消费消息</tspan></tspan></text></g></g><g id="SvgjsG1472"><path id="SvgjsPath1473" d="M334 227.5L463.75 227.5L463.75 163" stroke="#323232" stroke-width="2" fill="none" marker-end="url(#SvgjsMarker1474)"></path></g></svg>