<svg id="SvgjsSvg1006" width="742" height="257" xmlns="http://www.w3.org/2000/svg" version="1.1" xmlns:xlink="http://www.w3.org/1999/xlink" xmlns:svgjs="http://svgjs.com/svgjs"><defs id="SvgjsDefs1007"><marker id="SvgjsMarker1060" markerWidth="16" markerHeight="12" refX="16" refY="6" viewBox="0 0 16 12" orient="auto" markerUnits="userSpaceOnUse" stroke-dasharray="0,0"><path id="SvgjsPath1061" d="M0,2 L14,6 L0,11 L0,2" fill="#323232" stroke="#323232" stroke-width="2"></path></marker><marker id="SvgjsMarker1083" markerWidth="16" markerHeight="12" refX="16" refY="6" viewBox="0 0 16 12" orient="auto" markerUnits="userSpaceOnUse" stroke-dasharray="0,0"><path id="SvgjsPath1084" d="M0,2 L14,6 L0,11 L0,2" fill="#323232" stroke="#323232" stroke-width="2"></path></marker><marker id="SvgjsMarker1087" markerWidth="16" markerHeight="12" refX="16" refY="6" viewBox="0 0 16 12" orient="auto" markerUnits="userSpaceOnUse" stroke-dasharray="0,0"><path id="SvgjsPath1088" d="M0,2 L14,6 L0,11 L0,2" fill="#323232" stroke="#323232" stroke-width="2"></path></marker><marker id="SvgjsMarker1091" markerWidth="16" markerHeight="12" refX="16" refY="6" viewBox="0 0 16 12" orient="auto" markerUnits="userSpaceOnUse" stroke-dasharray="0,0"><path id="SvgjsPath1092" d="M0,2 L14,6 L0,11 L0,2" fill="#323232" stroke="#323232" stroke-width="2"></path></marker><marker id="SvgjsMarker1095" markerWidth="16" markerHeight="12" refX="16" refY="6" viewBox="0 0 16 12" orient="auto" markerUnits="userSpaceOnUse" stroke-dasharray="0,0"><path id="SvgjsPath1096" d="M0,2 L14,6 L0,11 L0,2" fill="#323232" stroke="#323232" stroke-width="2"></path></marker><marker id="SvgjsMarker1099" markerWidth="16" markerHeight="12" refX="16" refY="6" viewBox="0 0 16 12" orient="auto" markerUnits="userSpaceOnUse" stroke-dasharray="0,0"><path id="SvgjsPath1100" d="M0,2 L14,6 L0,11 L0,2" fill="#323232" stroke="#323232" stroke-width="2"></path></marker><marker id="SvgjsMarker1103" markerWidth="16" markerHeight="12" refX="16" refY="6" viewBox="0 0 16 12" orient="auto" markerUnits="userSpaceOnUse" stroke-dasharray="0,0"><path id="SvgjsPath1104" d="M0,2 L14,6 L0,11 L0,2" fill="#323232" stroke="#323232" stroke-width="2"></path></marker><marker id="SvgjsMarker1107" markerWidth="16" markerHeight="12" refX="16" refY="6" viewBox="0 0 16 12" orient="auto" markerUnits="userSpaceOnUse" stroke-dasharray="0,0"><path id="SvgjsPath1108" d="M0,2 L14,6 L0,11 L0,2" fill="#323232" stroke="#323232" stroke-width="2"></path></marker><marker id="SvgjsMarker1111" markerWidth="16" markerHeight="12" refX="16" refY="6" viewBox="0 0 16 12" orient="auto" markerUnits="userSpaceOnUse" stroke-dasharray="0,0"><path id="SvgjsPath1112" d="M0,2 L14,6 L0,11 L0,2" fill="#323232" stroke="#323232" stroke-width="2"></path></marker></defs><g id="SvgjsG1008" transform="translate(91,85)"><path id="SvgjsPath1009" d="M 0 4Q 0 0 4 0L 109 0Q 113 0 113 4L 113 46Q 113 50 109 50L 4 50Q 0 50 0 46Z" stroke="rgba(50,50,50,1)" stroke-width="2" fill-opacity="1" fill="#ffffff"></path><g id="SvgjsG1010"><text id="SvgjsText1011" font-family="微软雅黑" text-anchor="middle" font-size="13px" width="93px" fill="#323232" font-weight="400" align="middle" anchor="middle" family="微软雅黑" size="13px" weight="400" font-style="" opacity="1" y="15.05" transform="rotate(0)"><tspan id="SvgjsTspan1012" dy="16" x="56.5"><tspan id="SvgjsTspan1013" style="text-decoration:;">系统 A</tspan></tspan></text></g></g><g id="SvgjsG1014" transform="translate(369.5,85)"><path id="SvgjsPath1015" d="M 0 4Q 0 0 4 0L 109 0Q 113 0 113 4L 113 46Q 113 50 109 50L 4 50Q 0 50 0 46Z" stroke="rgba(50,50,50,1)" stroke-width="2" fill-opacity="1" fill="#ffffff"></path><g id="SvgjsG1016"><text id="SvgjsText1017" font-family="微软雅黑" text-anchor="middle" font-size="13px" width="93px" fill="#323232" font-weight="400" align="middle" anchor="middle" family="微软雅黑" size="13px" weight="400" font-style="" opacity="1" y="15.05" transform="rotate(0)"><tspan id="SvgjsTspan1018" dy="16" x="56.5"><tspan id="SvgjsTspan1019" style="text-decoration:;">MQ Server</tspan></tspan></text></g></g><g id="SvgjsG1020" transform="translate(604,85)"><path id="SvgjsPath1021" d="M 0 4Q 0 0 4 0L 109 0Q 113 0 113 4L 113 46Q 113 50 109 50L 4 50Q 0 50 0 46Z" stroke="rgba(50,50,50,1)" stroke-width="2" fill-opacity="1" fill="#ffffff"></path><g id="SvgjsG1022"><text id="SvgjsText1023" font-family="微软雅黑" text-anchor="middle" font-size="13px" width="93px" fill="#323232" font-weight="400" align="middle" anchor="middle" family="微软雅黑" size="13px" weight="400" font-style="" opacity="1" y="15.05" transform="rotate(0)"><tspan id="SvgjsTspan1024" dy="16" x="56.5"><tspan id="SvgjsTspan1025" style="text-decoration:;">系统 A</tspan></tspan></text></g></g><g id="SvgjsG1026" transform="translate(227.5,75)"><path id="SvgjsPath1027" d="M 0 0L 103 0L 103 20L 0 20Z" stroke="none" fill="none"></path><g id="SvgjsG1028"><text id="SvgjsText1029" font-family="微软雅黑" text-anchor="middle" font-size="13px" width="103px" fill="#323232" font-weight="400" align="middle" anchor="middle" family="微软雅黑" size="13px" weight="400" font-style="" opacity="1" y="0.050000000000000044" transform="rotate(0)"><tspan id="SvgjsTspan1030" dy="16" x="51.5"><tspan id="SvgjsTspan1031" style="text-decoration:;">1. 发送half消息</tspan></tspan></text></g></g><g id="SvgjsG1032" transform="translate(227.5,121)"><path id="SvgjsPath1033" d="M 0 0L 103 0L 103 20L 0 20Z" stroke="none" fill="none"></path><g id="SvgjsG1034"><text id="SvgjsText1035" font-family="微软雅黑" text-anchor="middle" font-size="13px" width="103px" fill="#323232" font-weight="400" align="middle" anchor="middle" family="微软雅黑" size="13px" weight="400" font-style="" opacity="1" y="0.050000000000000044" transform="rotate(0)"><tspan id="SvgjsTspan1036" dy="16" x="51.5"><tspan id="SvgjsTspan1037" style="text-decoration:;">2. MQ服务器响应</tspan></tspan></text></g></g><g id="SvgjsG1038" transform="translate(154,157)"><path id="SvgjsPath1039" d="M 0 0L 263 0L 263 20L 0 20Z" stroke="none" fill="none"></path><g id="SvgjsG1040"><text id="SvgjsText1041" font-family="微软雅黑" text-anchor="middle" font-size="13px" width="263px" fill="#323232" font-weight="400" align="middle" anchor="middle" family="微软雅黑" size="13px" weight="400" font-style="" opacity="1" y="0.050000000000000044" transform="rotate(0)"><tspan id="SvgjsTspan1042" dy="16" x="131.5"><tspan id="SvgjsTspan1043" style="text-decoration:;">4. 根据事务执行情况commit或rollback</tspan></tspan></text></g></g><g id="SvgjsG1044" transform="translate(159,212)"><path id="SvgjsPath1045" d="M 0 0L 263 0L 263 20L 0 20Z" stroke="none" fill="none"></path><g id="SvgjsG1046"><text id="SvgjsText1047" font-family="微软雅黑" text-anchor="middle" font-size="13px" width="263px" fill="#323232" font-weight="400" align="middle" anchor="middle" family="微软雅黑" size="13px" weight="400" font-style="" opacity="1" y="-7.95" transform="rotate(0)"><tspan id="SvgjsTspan1048" dy="16" x="131.5"><tspan id="SvgjsTspan1049" style="text-decoration:;">5. 若MQ服务器没有收到第4步消息，</tspan></tspan><tspan id="SvgjsTspan1050" dy="16" x="131.5"><tspan id="SvgjsTspan1051" style="text-decoration:;">则会发送消息进行事务回查</tspan></tspan></text></g></g><g id="SvgjsG1052" transform="translate(475.5,170)"><path id="SvgjsPath1053" d="M 0 0L 133.5 0L 133.5 22L 0 22Z" stroke="none" fill="none"></path><g id="SvgjsG1054"><text id="SvgjsText1055" font-family="微软雅黑" text-anchor="middle" font-size="13px" width="134px" fill="#323232" font-weight="400" align="middle" anchor="middle" family="微软雅黑" size="13px" weight="400" font-style="" opacity="1" y="1.05" transform="rotate(0)"><tspan id="SvgjsTspan1056" dy="16" x="67"><tspan id="SvgjsTspan1057" style="text-decoration:;">rollback的消息不消费</tspan></tspan></text></g></g><g id="SvgjsG1058"><path id="SvgjsPath1059" d="M147.5 85L147.5 55L426 55L426 85" stroke="#323232" stroke-width="2" fill="none" marker-end="url(#SvgjsMarker1060)"></path></g><g id="SvgjsG1062" transform="translate(178.25,25)"><path id="SvgjsPath1063" d="M 0 0L 234.5 0L 234.5 23L 0 23Z" stroke="none" fill="none"></path><g id="SvgjsG1064"><text id="SvgjsText1065" font-family="微软雅黑" text-anchor="middle" font-size="13px" width="235px" fill="#323232" font-weight="400" align="middle" anchor="middle" family="微软雅黑" size="13px" weight="400" font-style="" opacity="1" y="1.55" transform="rotate(0)"><tspan id="SvgjsTspan1066" dy="16" x="117.5"><tspan id="SvgjsTspan1067" style="text-decoration:;">7. 根据事务状态再次</tspan><tspan id="SvgjsTspan1068" style="text-decoration:;font-size: inherit;">commit或rollback</tspan></tspan></text></g></g><g id="SvgjsG1069" transform="translate(25,26.5)"><path id="SvgjsPath1070" d="M 0 0L 103 0L 103 20L 0 20Z" stroke="none" fill="none"></path><g id="SvgjsG1071"><text id="SvgjsText1072" font-family="微软雅黑" text-anchor="middle" font-size="13px" width="103px" fill="#323232" font-weight="400" align="middle" anchor="middle" family="微软雅黑" size="13px" weight="400" font-style="" opacity="1" y="0.050000000000000044" transform="rotate(0)"><tspan id="SvgjsTspan1073" dy="16" x="51.5"><tspan id="SvgjsTspan1074" style="text-decoration:;">3. 系统A处理事务</tspan></tspan></text></g></g><g id="SvgjsG1075" transform="translate(35,173)"><path id="SvgjsPath1076" d="M 0 0L 103 0L 103 20L 0 20Z" stroke="none" fill="none"></path><g id="SvgjsG1077"><text id="SvgjsText1078" font-family="微软雅黑" text-anchor="middle" font-size="13px" width="103px" fill="#323232" font-weight="400" align="middle" anchor="middle" family="微软雅黑" size="13px" weight="400" font-style="" opacity="1" y="0.050000000000000044" transform="rotate(0)"><tspan id="SvgjsTspan1079" dy="16" x="51.5"><tspan id="SvgjsTspan1080" style="text-decoration:;">6. 检查事务状态</tspan></tspan></text></g></g><g id="SvgjsG1081"><path id="SvgjsPath1082" d="M91 110L74 110L74 55L109 55L109 83" stroke="#323232" stroke-width="2" fill="none" marker-end="url(#SvgjsMarker1083)"></path></g><g id="SvgjsG1085"><path id="SvgjsPath1086" d="M91 110L61 110L61 165L113 165L113 135" stroke="#323232" stroke-width="2" fill="none" marker-end="url(#SvgjsMarker1087)"></path></g><g id="SvgjsG1089"><path id="SvgjsPath1090" d="M204 102L287 102L287 102L370 102" stroke="#323232" stroke-width="2" fill="none" marker-end="url(#SvgjsMarker1091)"></path></g><g id="SvgjsG1093"><path id="SvgjsPath1094" d="M370 118L287 118L287 118L204 118" stroke="#323232" stroke-width="2" fill="none" marker-end="url(#SvgjsMarker1095)"></path></g><g id="SvgjsG1097"><path id="SvgjsPath1098" d="M162 135L162 183L414 183L414 135" stroke="#323232" stroke-width="2" fill="none" marker-end="url(#SvgjsMarker1099)"></path></g><g id="SvgjsG1101"><path id="SvgjsPath1102" d="M445 135L445 200L139 200L139 135" stroke="#323232" stroke-width="2" fill="none" marker-end="url(#SvgjsMarker1103)"></path></g><g id="SvgjsG1105"><path id="SvgjsPath1106" d="M482 122L542.25 122L542.25 170" stroke="#323232" stroke-width="2" fill="none" marker-end="url(#SvgjsMarker1107)"></path></g><g id="SvgjsG1109"><path id="SvgjsPath1110" d="M482.5 110L604 110" stroke="#323232" stroke-width="2" fill="none" marker-end="url(#SvgjsMarker1111)"></path></g><g id="SvgjsG1113" transform="translate(470.5,85)"><path id="SvgjsPath1114" d="M 0 0L 133.5 0L 133.5 22L 0 22Z" stroke="none" fill="none"></path><g id="SvgjsG1115"><text id="SvgjsText1116" font-family="微软雅黑" text-anchor="middle" font-size="13px" width="134px" fill="#323232" font-weight="400" align="middle" anchor="middle" family="微软雅黑" size="13px" weight="400" font-style="" opacity="1" y="1.05" transform="rotate(0)"><tspan id="SvgjsTspan1117" dy="16" x="67"><tspan id="SvgjsTspan1118" style="text-decoration:;">持久化并消费</tspan></tspan></text></g></g></svg>