<svg id="SvgjsSvg1240" width="532" height="227" xmlns="http://www.w3.org/2000/svg" version="1.1" xmlns:xlink="http://www.w3.org/1999/xlink" xmlns:svgjs="http://svgjs.com/svgjs"><defs id="SvgjsDefs1241"><marker id="SvgjsMarker1316" markerWidth="16" markerHeight="12" refX="16" refY="6" viewBox="0 0 16 12" orient="auto" markerUnits="userSpaceOnUse" stroke-dasharray="0,0"><path id="SvgjsPath1317" d="M0,2 L14,6 L0,11 L0,2" fill="#323232" stroke="#323232" stroke-width="2"></path></marker><marker id="SvgjsMarker1320" markerWidth="16" markerHeight="12" refX="16" refY="6" viewBox="0 0 16 12" orient="auto" markerUnits="userSpaceOnUse" stroke-dasharray="0,0"><path id="SvgjsPath1321" d="M0,2 L14,6 L0,11 L0,2" fill="#323232" stroke="#323232" stroke-width="2"></path></marker><marker id="SvgjsMarker1324" markerWidth="16" markerHeight="12" refX="16" refY="6" viewBox="0 0 16 12" orient="auto" markerUnits="userSpaceOnUse" stroke-dasharray="0,0"><path id="SvgjsPath1325" d="M0,2 L14,6 L0,11 L0,2" fill="#323232" stroke="#323232" stroke-width="2"></path></marker><marker id="SvgjsMarker1346" markerWidth="16" markerHeight="12" refX="16" refY="6" viewBox="0 0 16 12" orient="auto" markerUnits="userSpaceOnUse" stroke-dasharray="0,0"><path id="SvgjsPath1347" d="M0,2 L14,6 L0,11 L0,2" fill="#323232" stroke="#323232" stroke-width="2"></path></marker><marker id="SvgjsMarker1350" markerWidth="16" markerHeight="12" refX="16" refY="6" viewBox="0 0 16 12" orient="auto" markerUnits="userSpaceOnUse" stroke-dasharray="0,0"><path id="SvgjsPath1351" d="M0,2 L14,6 L0,11 L0,2" fill="#323232" stroke="#323232" stroke-width="2"></path></marker><marker id="SvgjsMarker1354" markerWidth="16" markerHeight="12" refX="16" refY="6" viewBox="0 0 16 12" orient="auto" markerUnits="userSpaceOnUse" stroke-dasharray="0,0"><path id="SvgjsPath1355" d="M0,2 L14,6 L0,11 L0,2" fill="#323232" stroke="#323232" stroke-width="2"></path></marker></defs><g id="SvgjsG1242" transform="translate(167,25)"><path id="SvgjsPath1243" d="M 0 4Q 0 0 4 0L 147 0Q 151 0 151 4L 151 173.5Q 151 177.5 147 177.5L 4 177.5Q 0 177.5 0 173.5Z" stroke="rgba(50,50,50,1)" stroke-width="2" fill-opacity="1" fill="#ffffff"></path><g id="SvgjsG1244"><text id="SvgjsText1245" font-family="微软雅黑" text-anchor="middle" font-size="13px" width="141px" fill="#323232" font-weight="400" align="middle" anchor="middle" family="微软雅黑" size="13px" weight="400" font-style="" opacity="1" y="3.728571428571427" transform="rotate(0)"><tspan id="SvgjsTspan1246" dy="16" x="75.5"><tspan id="SvgjsTspan1247" style="text-decoration:;font-weight: bold;">Topic</tspan></tspan></text></g></g><g id="SvgjsG1248" transform="translate(361,25)"><path id="SvgjsPath1249" d="M 0 4Q 0 0 4 0L 142 0Q 146 0 146 4L 146 173.5Q 146 177.5 142 177.5L 4 177.5Q 0 177.5 0 173.5Z" stroke="rgba(50,50,50,1)" stroke-width="2" fill-opacity="1" fill="#ffffff"></path><g id="SvgjsG1250"><text id="SvgjsText1251" font-family="微软雅黑" text-anchor="middle" font-size="13px" width="136px" fill="#323232" font-weight="400" align="middle" anchor="middle" family="微软雅黑" size="13px" weight="400" font-style="" opacity="1" y="3.728571428571427" transform="rotate(0)"><tspan id="SvgjsTspan1252" dy="16" x="73"><tspan id="SvgjsTspan1253" style="text-decoration:;font-weight: bold;">Consumer Group</tspan></tspan></text></g></g><g id="SvgjsG1254" transform="translate(25,102)"><path id="SvgjsPath1255" d="M 0 4Q 0 0 4 0L 91 0Q 95 0 95 4L 95 29Q 95 33 91 33L 4 33Q 0 33 0 29Z" stroke="rgba(50,50,50,1)" stroke-width="2" fill-opacity="1" fill="#ffffff"></path><g id="SvgjsG1256"><text id="SvgjsText1257" font-family="微软雅黑" text-anchor="middle" font-size="13px" width="75px" fill="#323232" font-weight="400" align="middle" anchor="middle" family="微软雅黑" size="13px" weight="400" font-style="" opacity="1" y="6.55" transform="rotate(0)"><tspan id="SvgjsTspan1258" dy="16" x="47.5"><tspan id="SvgjsTspan1259" style="text-decoration:;">Producer</tspan></tspan></text></g></g><g id="SvgjsG1260" transform="translate(182,63.5)"><path id="SvgjsPath1261" d="M 0 0L 30 0L 30 30L 0 30Z" stroke="rgba(50,50,50,1)" stroke-width="2" fill-opacity="1" fill="#ffffff"></path><g id="SvgjsG1262"><text id="SvgjsText1263" font-family="微软雅黑" text-anchor="middle" font-size="13px" width="10px" fill="#323232" font-weight="400" align="middle" anchor="middle" family="微软雅黑" size="13px" weight="400" font-style="" opacity="1" y="5.05" transform="rotate(0)"><tspan id="SvgjsTspan1264" dy="16" x="15"><tspan id="SvgjsTspan1265" style="text-decoration:;">1</tspan></tspan></text></g></g><g id="SvgjsG1266" transform="translate(212,63.5)"><path id="SvgjsPath1267" d="M 0 0L 30 0L 30 30L 0 30Z" stroke="rgba(50,50,50,1)" stroke-width="2" fill-opacity="1" fill="#ffffff"></path><g id="SvgjsG1268"><text id="SvgjsText1269" font-family="微软雅黑" text-anchor="middle" font-size="13px" width="10px" fill="#323232" font-weight="400" align="middle" anchor="middle" family="微软雅黑" size="13px" weight="400" font-style="" opacity="1" y="5.05" transform="rotate(0)"></text></g></g><g id="SvgjsG1270" transform="translate(242,63.5)"><path id="SvgjsPath1271" d="M 0 0L 30 0L 30 30L 0 30Z" stroke="rgba(50,50,50,1)" stroke-width="2" fill-opacity="1" fill="#ffffff"></path><g id="SvgjsG1272"><text id="SvgjsText1273" font-family="微软雅黑" text-anchor="middle" font-size="13px" width="10px" fill="#323232" font-weight="400" align="middle" anchor="middle" family="微软雅黑" size="13px" weight="400" font-style="" opacity="1" y="5.05" transform="rotate(0)"></text></g></g><g id="SvgjsG1274" transform="translate(272,63.5)"><path id="SvgjsPath1275" d="M 0 0L 30 0L 30 30L 0 30Z" stroke="rgba(50,50,50,1)" stroke-width="2" fill-opacity="1" fill="#ffffff"></path><g id="SvgjsG1276"><text id="SvgjsText1277" font-family="微软雅黑" text-anchor="middle" font-size="13px" width="10px" fill="#323232" font-weight="400" align="middle" anchor="middle" family="微软雅黑" size="13px" weight="400" font-style="" opacity="1" y="5.05" transform="rotate(0)"></text></g></g><g id="SvgjsG1278" transform="translate(182,103.5)"><path id="SvgjsPath1279" d="M 0 0L 30 0L 30 30L 0 30Z" stroke="rgba(50,50,50,1)" stroke-width="2" fill-opacity="1" fill="#ffffff"></path><g id="SvgjsG1280"><text id="SvgjsText1281" font-family="微软雅黑" text-anchor="middle" font-size="13px" width="10px" fill="#323232" font-weight="400" align="middle" anchor="middle" family="微软雅黑" size="13px" weight="400" font-style="" opacity="1" y="5.05" transform="rotate(0)"><tspan id="SvgjsTspan1282" dy="16" x="15"><tspan id="SvgjsTspan1283" style="text-decoration:;">2</tspan></tspan></text></g></g><g id="SvgjsG1284" transform="translate(212,103.5)"><path id="SvgjsPath1285" d="M 0 0L 30 0L 30 30L 0 30Z" stroke="rgba(50,50,50,1)" stroke-width="2" fill-opacity="1" fill="#ffffff"></path><g id="SvgjsG1286"><text id="SvgjsText1287" font-family="微软雅黑" text-anchor="middle" font-size="13px" width="10px" fill="#323232" font-weight="400" align="middle" anchor="middle" family="微软雅黑" size="13px" weight="400" font-style="" opacity="1" y="5.05" transform="rotate(0)"></text></g></g><g id="SvgjsG1288" transform="translate(242,103.5)"><path id="SvgjsPath1289" d="M 0 0L 30 0L 30 30L 0 30Z" stroke="rgba(50,50,50,1)" stroke-width="2" fill-opacity="1" fill="#ffffff"></path><g id="SvgjsG1290"><text id="SvgjsText1291" font-family="微软雅黑" text-anchor="middle" font-size="13px" width="10px" fill="#323232" font-weight="400" align="middle" anchor="middle" family="微软雅黑" size="13px" weight="400" font-style="" opacity="1" y="5.05" transform="rotate(0)"></text></g></g><g id="SvgjsG1292" transform="translate(272,103.5)"><path id="SvgjsPath1293" d="M 0 0L 30 0L 30 30L 0 30Z" stroke="rgba(50,50,50,1)" stroke-width="2" fill-opacity="1" fill="#ffffff"></path><g id="SvgjsG1294"><text id="SvgjsText1295" font-family="微软雅黑" text-anchor="middle" font-size="13px" width="10px" fill="#323232" font-weight="400" align="middle" anchor="middle" family="微软雅黑" size="13px" weight="400" font-style="" opacity="1" y="5.05" transform="rotate(0)"></text></g></g><g id="SvgjsG1296" transform="translate(182,144.5)"><path id="SvgjsPath1297" d="M 0 0L 30 0L 30 30L 0 30Z" stroke="rgba(50,50,50,1)" stroke-width="2" fill-opacity="1" fill="#ffffff"></path><g id="SvgjsG1298"><text id="SvgjsText1299" font-family="微软雅黑" text-anchor="middle" font-size="13px" width="10px" fill="#323232" font-weight="400" align="middle" anchor="middle" family="微软雅黑" size="13px" weight="400" font-style="" opacity="1" y="5.05" transform="rotate(0)"><tspan id="SvgjsTspan1300" dy="16" x="15"><tspan id="SvgjsTspan1301" style="text-decoration:;">3</tspan></tspan></text></g></g><g id="SvgjsG1302" transform="translate(212,144.5)"><path id="SvgjsPath1303" d="M 0 0L 30 0L 30 30L 0 30Z" stroke="rgba(50,50,50,1)" stroke-width="2" fill-opacity="1" fill="#ffffff"></path><g id="SvgjsG1304"><text id="SvgjsText1305" font-family="微软雅黑" text-anchor="middle" font-size="13px" width="10px" fill="#323232" font-weight="700" align="middle" anchor="middle" family="微软雅黑" size="13px" weight="700" font-style="" opacity="1" y="5.05" transform="rotate(0)"></text></g></g><g id="SvgjsG1306" transform="translate(242,144.5)"><path id="SvgjsPath1307" d="M 0 0L 30 0L 30 30L 0 30Z" stroke="rgba(50,50,50,1)" stroke-width="2" fill-opacity="1" fill="#ffffff"></path><g id="SvgjsG1308"><text id="SvgjsText1309" font-family="微软雅黑" text-anchor="middle" font-size="13px" width="10px" fill="#323232" font-weight="400" align="middle" anchor="middle" family="微软雅黑" size="13px" weight="400" font-style="" opacity="1" y="5.05" transform="rotate(0)"></text></g></g><g id="SvgjsG1310" transform="translate(272,144.5)"><path id="SvgjsPath1311" d="M 0 0L 30 0L 30 30L 0 30Z" stroke="rgba(50,50,50,1)" stroke-width="2" fill-opacity="1" fill="#ffffff"></path><g id="SvgjsG1312"><text id="SvgjsText1313" font-family="微软雅黑" text-anchor="middle" font-size="13px" width="10px" fill="#323232" font-weight="400" align="middle" anchor="middle" family="微软雅黑" size="13px" weight="400" font-style="" opacity="1" y="5.05" transform="rotate(0)"></text></g></g><g id="SvgjsG1314"><path id="SvgjsPath1315" d="M120 118.5L182 78.5" stroke="#323232" stroke-width="2" fill="none" marker-end="url(#SvgjsMarker1316)"></path></g><g id="SvgjsG1318"><path id="SvgjsPath1319" d="M120 118.5C 144.8 118.5 157.2 118.5 182 118.5" stroke="#323232" stroke-width="2" fill="none" marker-end="url(#SvgjsMarker1320)"></path></g><g id="SvgjsG1322"><path id="SvgjsPath1323" d="M120 118.5L182 159.5" stroke="#323232" stroke-width="2" fill="none" marker-end="url(#SvgjsMarker1324)"></path></g><g id="SvgjsG1326" transform="translate(383.75,62)"><path id="SvgjsPath1327" d="M 0 4Q 0 0 4 0L 96.5 0Q 100.5 0 100.5 4L 100.5 29Q 100.5 33 96.5 33L 4 33Q 0 33 0 29Z" stroke="rgba(50,50,50,1)" stroke-width="2" fill-opacity="1" fill="#ffffff"></path><g id="SvgjsG1328"><text id="SvgjsText1329" font-family="微软雅黑" text-anchor="middle" font-size="13px" width="81px" fill="#323232" font-weight="400" align="middle" anchor="middle" family="微软雅黑" size="13px" weight="400" font-style="" opacity="1" y="6.55" transform="rotate(0)"><tspan id="SvgjsTspan1330" dy="16" x="50.5"><tspan id="SvgjsTspan1331" style="text-decoration:;">Consumer 1</tspan></tspan></text></g></g><g id="SvgjsG1332" transform="translate(383.75,102)"><path id="SvgjsPath1333" d="M 0 4Q 0 0 4 0L 96.5 0Q 100.5 0 100.5 4L 100.5 29Q 100.5 33 96.5 33L 4 33Q 0 33 0 29Z" stroke="rgba(50,50,50,1)" stroke-width="2" fill-opacity="1" fill="#ffffff"></path><g id="SvgjsG1334"><text id="SvgjsText1335" font-family="微软雅黑" text-anchor="middle" font-size="13px" width="81px" fill="#323232" font-weight="400" align="middle" anchor="middle" family="微软雅黑" size="13px" weight="400" font-style="" opacity="1" y="6.55" transform="rotate(0)"><tspan id="SvgjsTspan1336" dy="16" x="50.5"><tspan id="SvgjsTspan1337" style="text-decoration:;">Consumer 2</tspan></tspan></text></g></g><g id="SvgjsG1338" transform="translate(383.75,143)"><path id="SvgjsPath1339" d="M 0 4Q 0 0 4 0L 96.5 0Q 100.5 0 100.5 4L 100.5 29Q 100.5 33 96.5 33L 4 33Q 0 33 0 29Z" stroke="rgba(50,50,50,1)" stroke-width="2" fill-opacity="1" fill="#ffffff"></path><g id="SvgjsG1340"><text id="SvgjsText1341" font-family="微软雅黑" text-anchor="middle" font-size="13px" width="81px" fill="#323232" font-weight="400" align="middle" anchor="middle" family="微软雅黑" size="13px" weight="400" font-style="" opacity="1" y="6.55" transform="rotate(0)"><tspan id="SvgjsTspan1342" dy="16" x="50.5"><tspan id="SvgjsTspan1343" style="text-decoration:;">Consumer 3</tspan></tspan></text></g></g><g id="SvgjsG1344"><path id="SvgjsPath1345" d="M302 78.5L383.75 78.5" stroke-dasharray="3,3" stroke="#323232" stroke-width="2" fill="none" marker-end="url(#SvgjsMarker1346)"></path></g><g id="SvgjsG1348"><path id="SvgjsPath1349" d="M302 118.5L383.75 118.5" stroke-dasharray="3,3" stroke="#323232" stroke-width="2" fill="none" marker-end="url(#SvgjsMarker1350)"></path></g><g id="SvgjsG1352"><path id="SvgjsPath1353" d="M302 159.5L383.75 159.5" stroke-dasharray="3,3" stroke="#323232" stroke-width="2" fill="none" marker-end="url(#SvgjsMarker1354)"></path></g></svg>