<svg id="SvgjsSvg1006" width="541" height="330" xmlns="http://www.w3.org/2000/svg" version="1.1" xmlns:xlink="http://www.w3.org/1999/xlink" xmlns:svgjs="http://svgjs.com/svgjs"><defs id="SvgjsDefs1007"><marker id="SvgjsMarker1092" markerWidth="16" markerHeight="12" refX="16" refY="6" viewBox="0 0 16 12" orient="auto" markerUnits="userSpaceOnUse" stroke-dasharray="0,0"><path id="SvgjsPath1093" d="M0,2 L14,6 L0,11 L0,2" fill="#323232" stroke="#323232" stroke-width="2"></path></marker><marker id="SvgjsMarker1096" markerWidth="16" markerHeight="12" refX="16" refY="6" viewBox="0 0 16 12" orient="auto" markerUnits="userSpaceOnUse" stroke-dasharray="0,0"><path id="SvgjsPath1097" d="M0,2 L14,6 L0,11 L0,2" fill="#323232" stroke="#323232" stroke-width="2"></path></marker><marker id="SvgjsMarker1100" markerWidth="16" markerHeight="12" refX="16" refY="6" viewBox="0 0 16 12" orient="auto" markerUnits="userSpaceOnUse" stroke-dasharray="0,0"><path id="SvgjsPath1101" d="M0,2 L14,6 L0,11 L0,2" fill="#323232" stroke="#323232" stroke-width="2"></path></marker><marker id="SvgjsMarker1104" markerWidth="16" markerHeight="12" refX="16" refY="6" viewBox="0 0 16 12" orient="auto" markerUnits="userSpaceOnUse" stroke-dasharray="0,0"><path id="SvgjsPath1105" d="M0,2 L14,6 L0,11 L0,2" fill="#323232" stroke="#323232" stroke-width="2"></path></marker><marker id="SvgjsMarker1108" markerWidth="16" markerHeight="12" refX="16" refY="6" viewBox="0 0 16 12" orient="auto" markerUnits="userSpaceOnUse" stroke-dasharray="0,0"><path id="SvgjsPath1109" d="M0,2 L14,6 L0,11 L0,2" fill="#323232" stroke="#323232" stroke-width="2"></path></marker><marker id="SvgjsMarker1112" markerWidth="16" markerHeight="12" refX="16" refY="6" viewBox="0 0 16 12" orient="auto" markerUnits="userSpaceOnUse" stroke-dasharray="0,0"><path id="SvgjsPath1113" d="M0,2 L14,6 L0,11 L0,2" fill="#323232" stroke="#323232" stroke-width="2"></path></marker><marker id="SvgjsMarker1128" markerWidth="16" markerHeight="12" refX="16" refY="6" viewBox="0 0 16 12" orient="auto" markerUnits="userSpaceOnUse" stroke-dasharray="0,0"><path id="SvgjsPath1129" d="M0,2 L14,6 L0,11 L0,2" fill="#323232" stroke="#323232" stroke-width="2"></path></marker><marker id="SvgjsMarker1132" markerWidth="16" markerHeight="12" refX="16" refY="6" viewBox="0 0 16 12" orient="auto" markerUnits="userSpaceOnUse" stroke-dasharray="0,0"><path id="SvgjsPath1133" d="M0,2 L14,6 L0,11 L0,2" fill="#323232" stroke="#323232" stroke-width="2"></path></marker><marker id="SvgjsMarker1142" markerWidth="16" markerHeight="12" refX="16" refY="6" viewBox="0 0 16 12" orient="auto" markerUnits="userSpaceOnUse" stroke-dasharray="0,0"><path id="SvgjsPath1143" d="M0,2 L14,6 L0,11 L0,2" fill="#323232" stroke="#323232" stroke-width="2"></path></marker><marker id="SvgjsMarker1146" markerWidth="16" markerHeight="12" refX="16" refY="6" viewBox="0 0 16 12" orient="auto" markerUnits="userSpaceOnUse" stroke-dasharray="0,0"><path id="SvgjsPath1147" d="M0,2 L14,6 L0,11 L0,2" fill="#323232" stroke="#323232" stroke-width="2"></path></marker><marker id="SvgjsMarker1150" markerWidth="16" markerHeight="12" refX="16" refY="6" viewBox="0 0 16 12" orient="auto" markerUnits="userSpaceOnUse" stroke-dasharray="0,0"><path id="SvgjsPath1151" d="M0,2 L14,6 L0,11 L0,2" fill="#323232" stroke="#323232" stroke-width="2"></path></marker><marker id="SvgjsMarker1154" markerWidth="16" markerHeight="12" refX="16" refY="6" viewBox="0 0 16 12" orient="auto" markerUnits="userSpaceOnUse" stroke-dasharray="0,0"><path id="SvgjsPath1155" d="M0,2 L14,6 L0,11 L0,2" fill="#323232" stroke="#323232" stroke-width="2"></path></marker></defs><g id="SvgjsG1008" transform="translate(25,115.25)"><path id="SvgjsPath1009" d="M 0 4Q 0 0 4 0L 487 0Q 491 0 491 4L 491 133.5Q 491 137.5 487 137.5L 4 137.5Q 0 137.5 0 133.5Z" stroke-dasharray="10,6" stroke="rgba(50,50,50,1)" stroke-width="2" fill-opacity="1" fill="#ffffff"></path><g id="SvgjsG1010"><text id="SvgjsText1011" font-family="微软雅黑" text-anchor="middle" font-size="13px" width="471px" fill="#323232" font-weight="400" align="middle" anchor="middle" family="微软雅黑" size="13px" weight="400" font-style="" opacity="1" y="58.8" transform="rotate(0)"></text></g></g><g id="SvgjsG1012" transform="translate(174,138)"><path id="SvgjsPath1013" d="M 0 4Q 0 0 4 0L 73 0Q 77 0 77 4L 77 88Q 77 92 73 92L 4 92Q 0 92 0 88Z" stroke="rgba(50,50,50,1)" stroke-width="2" fill-opacity="1" fill="#ffe6cc"></path><g id="SvgjsG1014"><text id="SvgjsText1015" font-family="微软雅黑" text-anchor="middle" font-size="13px" width="67px" fill="#323232" font-weight="700" align="middle" anchor="middle" family="微软雅黑" size="13px" weight="700" font-style="" opacity="1" y="-2.378571428571429" transform="rotate(0)"><tspan id="SvgjsTspan1016" dy="16" x="38.5"><tspan id="SvgjsTspan1017" style="text-decoration:;">Node</tspan></tspan></text></g></g><g id="SvgjsG1018" transform="translate(186.75,163)"><path id="SvgjsPath1019" d="M 0 0L 51.5 0L 51.5 20L 0 20Z" stroke="rgba(50,50,50,1)" stroke-width="2" fill-opacity="1" fill="#ffe6cc"></path><g id="SvgjsG1020"><text id="SvgjsText1021" font-family="微软雅黑" text-anchor="middle" font-size="13px" width="32px" fill="#323232" font-weight="400" align="middle" anchor="middle" family="微软雅黑" size="13px" weight="400" font-style="" opacity="1" y="0.050000000000000044" transform="rotate(0)"><tspan id="SvgjsTspan1022" dy="16" x="26"><tspan id="SvgjsTspan1023" style="text-decoration:;">prev</tspan></tspan></text></g></g><g id="SvgjsG1024" transform="translate(186.75,194)"><path id="SvgjsPath1025" d="M 0 0L 51.5 0L 51.5 20L 0 20Z" stroke="rgba(50,50,50,1)" stroke-width="2" fill-opacity="1" fill="#ffe6cc"></path><g id="SvgjsG1026"><text id="SvgjsText1027" font-family="微软雅黑" text-anchor="middle" font-size="13px" width="32px" fill="#323232" font-weight="400" align="middle" anchor="middle" family="微软雅黑" size="13px" weight="400" font-style="" opacity="1" y="0.050000000000000044" transform="rotate(0)"><tspan id="SvgjsTspan1028" dy="16" x="26"><tspan id="SvgjsTspan1029" style="text-decoration:;">next</tspan></tspan></text></g></g><g id="SvgjsG1030" transform="translate(291,138)"><path id="SvgjsPath1031" d="M 0 4Q 0 0 4 0L 73 0Q 77 0 77 4L 77 88Q 77 92 73 92L 4 92Q 0 92 0 88Z" stroke="rgba(50,50,50,1)" stroke-width="2" fill-opacity="1" fill="#ffe6cc"></path><g id="SvgjsG1032"><text id="SvgjsText1033" font-family="微软雅黑" text-anchor="middle" font-size="13px" width="67px" fill="#323232" font-weight="700" align="middle" anchor="middle" family="微软雅黑" size="13px" weight="700" font-style="" opacity="1" y="-2.378571428571429" transform="rotate(0)"><tspan id="SvgjsTspan1034" dy="16" x="38.5"><tspan id="SvgjsTspan1035" style="text-decoration:;">Node</tspan></tspan></text></g></g><g id="SvgjsG1036" transform="translate(303.75,163)"><path id="SvgjsPath1037" d="M 0 0L 51.5 0L 51.5 20L 0 20Z" stroke="rgba(50,50,50,1)" stroke-width="2" fill-opacity="1" fill="#ffe6cc"></path><g id="SvgjsG1038"><text id="SvgjsText1039" font-family="微软雅黑" text-anchor="middle" font-size="13px" width="32px" fill="#323232" font-weight="700" align="middle" anchor="middle" family="微软雅黑" size="13px" weight="700" font-style="" opacity="1" y="0.050000000000000044" transform="rotate(0)"><tspan id="SvgjsTspan1040" dy="16" x="26"><tspan id="SvgjsTspan1041" style="text-decoration:;">prev</tspan></tspan></text></g></g><g id="SvgjsG1042" transform="translate(303.75,194)"><path id="SvgjsPath1043" d="M 0 0L 51.5 0L 51.5 20L 0 20Z" stroke="rgba(50,50,50,1)" stroke-width="2" fill-opacity="1" fill="#ffe6cc"></path><g id="SvgjsG1044"><text id="SvgjsText1045" font-family="微软雅黑" text-anchor="middle" font-size="13px" width="32px" fill="#323232" font-weight="700" align="middle" anchor="middle" family="微软雅黑" size="13px" weight="700" font-style="" opacity="1" y="0.050000000000000044" transform="rotate(0)"><tspan id="SvgjsTspan1046" dy="16" x="26"><tspan id="SvgjsTspan1047" style="text-decoration:;">next</tspan></tspan></text></g></g><g id="SvgjsG1048" transform="translate(408,138)"><path id="SvgjsPath1049" d="M 0 4Q 0 0 4 0L 73 0Q 77 0 77 4L 77 88Q 77 92 73 92L 4 92Q 0 92 0 88Z" stroke="rgba(50,50,50,1)" stroke-width="2" fill-opacity="1" fill="#ffe6cc"></path><g id="SvgjsG1050"><text id="SvgjsText1051" font-family="微软雅黑" text-anchor="middle" font-size="13px" width="67px" fill="#323232" font-weight="700" align="middle" anchor="middle" family="微软雅黑" size="13px" weight="700" font-style="" opacity="1" y="-2.378571428571429" transform="rotate(0)"><tspan id="SvgjsTspan1052" dy="16" x="38.5"><tspan id="SvgjsTspan1053" style="text-decoration:;">Node</tspan></tspan></text></g></g><g id="SvgjsG1054" transform="translate(420.75,163)"><path id="SvgjsPath1055" d="M 0 0L 51.5 0L 51.5 20L 0 20Z" stroke="rgba(50,50,50,1)" stroke-width="2" fill-opacity="1" fill="#ffe6cc"></path><g id="SvgjsG1056"><text id="SvgjsText1057" font-family="微软雅黑" text-anchor="middle" font-size="13px" width="32px" fill="#323232" font-weight="700" align="middle" anchor="middle" family="微软雅黑" size="13px" weight="700" font-style="" opacity="1" y="0.050000000000000044" transform="rotate(0)"><tspan id="SvgjsTspan1058" dy="16" x="26"><tspan id="SvgjsTspan1059" style="text-decoration:;">prev</tspan></tspan></text></g></g><g id="SvgjsG1060" transform="translate(420.75,194)"><path id="SvgjsPath1061" d="M 0 0L 51.5 0L 51.5 20L 0 20Z" stroke="rgba(50,50,50,1)" stroke-width="2" fill-opacity="1" fill="#ffe6cc"></path><g id="SvgjsG1062"><text id="SvgjsText1063" font-family="微软雅黑" text-anchor="middle" font-size="13px" width="32px" fill="#323232" font-weight="700" align="middle" anchor="middle" family="微软雅黑" size="13px" weight="700" font-style="" opacity="1" y="0.050000000000000044" transform="rotate(0)"><tspan id="SvgjsTspan1064" dy="16" x="26"><tspan id="SvgjsTspan1065" style="text-decoration:;">next</tspan></tspan></text></g></g><g id="SvgjsG1066" transform="translate(219.796875,251.5)"><path id="SvgjsPath1067" d="M 0 0L 86.5 0L 86.5 27.5L 0 27.5Z" stroke="none" fill="none"></path><g id="SvgjsG1068"><text id="SvgjsText1069" font-family="微软雅黑" text-anchor="middle" font-size="13px" width="87px" fill="#323232" font-weight="700" align="middle" anchor="middle" family="微软雅黑" size="13px" weight="700" font-style="" opacity="1" y="3.8" transform="rotate(0)"><tspan id="SvgjsTspan1070" dy="16" x="43.5"><tspan id="SvgjsTspan1071" style="text-decoration:;">CLH队列</tspan></tspan></text></g></g><g id="SvgjsG1072" transform="translate(57,138)"><path id="SvgjsPath1073" d="M 0 4Q 0 0 4 0L 73 0Q 77 0 77 4L 77 88Q 77 92 73 92L 4 92Q 0 92 0 88Z" stroke="rgba(50,50,50,1)" stroke-width="2" fill-opacity="1" fill="#ccffcc"></path><g id="SvgjsG1074"><text id="SvgjsText1075" font-family="微软雅黑" text-anchor="middle" font-size="13px" width="67px" fill="#323232" font-weight="700" align="middle" anchor="middle" family="微软雅黑" size="13px" weight="700" font-style="" opacity="1" y="-2.378571428571429" transform="rotate(0)"><tspan id="SvgjsTspan1076" dy="16" x="38.5"><tspan id="SvgjsTspan1077" style="text-decoration:;">Node</tspan></tspan></text></g></g><g id="SvgjsG1078" transform="translate(69.75,163)"><path id="SvgjsPath1079" d="M 0 0L 51.5 0L 51.5 20L 0 20Z" stroke="rgba(50,50,50,1)" stroke-width="2" fill-opacity="1" fill="#ccffcc"></path><g id="SvgjsG1080"><text id="SvgjsText1081" font-family="微软雅黑" text-anchor="middle" font-size="13px" width="32px" fill="#323232" font-weight="400" align="middle" anchor="middle" family="微软雅黑" size="13px" weight="400" font-style="" opacity="1" y="0.050000000000000044" transform="rotate(0)"><tspan id="SvgjsTspan1082" dy="16" x="26"><tspan id="SvgjsTspan1083" style="text-decoration:;">prev</tspan></tspan></text></g></g><g id="SvgjsG1084" transform="translate(69.75,194)"><path id="SvgjsPath1085" d="M 0 0L 51.5 0L 51.5 20L 0 20Z" stroke="rgba(50,50,50,1)" stroke-width="2" fill-opacity="1" fill="#ccffcc"></path><g id="SvgjsG1086"><text id="SvgjsText1087" font-family="微软雅黑" text-anchor="middle" font-size="13px" width="32px" fill="#323232" font-weight="400" align="middle" anchor="middle" family="微软雅黑" size="13px" weight="400" font-style="" opacity="1" y="0.050000000000000044" transform="rotate(0)"><tspan id="SvgjsTspan1088" dy="16" x="26"><tspan id="SvgjsTspan1089" style="text-decoration:;">next</tspan></tspan></text></g></g><g id="SvgjsG1090"><path id="SvgjsPath1091" d="M121.25 204L147.625 204L147.625 204L174 204" stroke="#323232" stroke-width="2" fill="none" marker-end="url(#SvgjsMarker1092)"></path></g><g id="SvgjsG1094"><path id="SvgjsPath1095" d="M238.25 204L264.625 204L264.625 204L291 204" stroke="#323232" stroke-width="2" fill="none" marker-end="url(#SvgjsMarker1096)"></path></g><g id="SvgjsG1098"><path id="SvgjsPath1099" d="M355.25 204L381.625 204L381.625 204L408 204" stroke="#323232" stroke-width="2" fill="none" marker-end="url(#SvgjsMarker1100)"></path></g><g id="SvgjsG1102"><path id="SvgjsPath1103" d="M420.75 173L394.375 173L394.375 173L368 173" stroke="#323232" stroke-width="2" fill="none" marker-end="url(#SvgjsMarker1104)"></path></g><g id="SvgjsG1106"><path id="SvgjsPath1107" d="M303.75 173L277.375 173L277.375 173L251 173" stroke="#323232" stroke-width="2" fill="none" marker-end="url(#SvgjsMarker1108)"></path></g><g id="SvgjsG1110"><path id="SvgjsPath1111" d="M186.75 173L160.375 173L160.375 173L134 173" stroke="#323232" stroke-width="2" fill="none" marker-end="url(#SvgjsMarker1112)"></path></g><g id="SvgjsG1114" transform="translate(46.25,279)"><path id="SvgjsPath1115" d="M 0 0L 98.5 0L 98.5 26L 0 26Z" stroke="none" fill="none"></path><g id="SvgjsG1116"><text id="SvgjsText1117" font-family="微软雅黑" text-anchor="middle" font-size="13px" width="99px" fill="#323232" font-weight="700" align="middle" anchor="middle" family="微软雅黑" size="13px" weight="700" font-style="" opacity="1" y="3.05" transform="rotate(0)"><tspan id="SvgjsTspan1118" dy="16" x="49.5"><tspan id="SvgjsTspan1119" style="text-decoration:;">HEAD</tspan></tspan></text></g></g><g id="SvgjsG1120" transform="translate(397.25,279)"><path id="SvgjsPath1121" d="M 0 0L 98.5 0L 98.5 26L 0 26Z" stroke="none" fill="none"></path><g id="SvgjsG1122"><text id="SvgjsText1123" font-family="微软雅黑" text-anchor="middle" font-size="13px" width="99px" fill="#323232" font-weight="700" align="middle" anchor="middle" family="微软雅黑" size="13px" weight="700" font-style="" opacity="1" y="3.05" transform="rotate(0)"><tspan id="SvgjsTspan1124" dy="16" x="49.5"><tspan id="SvgjsTspan1125" style="text-decoration:;">TAIL</tspan></tspan></text></g></g><g id="SvgjsG1126"><path id="SvgjsPath1127" d="M95.5 279L95.5 254.5L95.5 254.5L95.5 230" stroke="#323232" stroke-width="2" fill="none" marker-end="url(#SvgjsMarker1128)"></path></g><g id="SvgjsG1130"><path id="SvgjsPath1131" d="M446.5 279L446.5 254.5L446.5 254.5L446.5 230" stroke="#323232" stroke-width="2" fill="none" marker-end="url(#SvgjsMarker1132)"></path></g><g id="SvgjsG1134" transform="translate(211,25)"><path id="SvgjsPath1135" d="M 0 4Q 0 0 4 0L 103 0Q 107 0 107 4L 107 30Q 107 34 103 34L 4 34Q 0 34 0 30Z" stroke="rgba(50,50,50,1)" stroke-width="2" fill-opacity="1" fill="#ffffff"></path><g id="SvgjsG1136"><text id="SvgjsText1137" font-family="微软雅黑" text-anchor="middle" font-size="13px" width="87px" fill="#323232" font-weight="400" align="middle" anchor="middle" family="微软雅黑" size="13px" weight="400" font-style="" opacity="1" y="7.05" transform="rotate(0)"><tspan id="SvgjsTspan1138" dy="16" x="53.5"><tspan id="SvgjsTspan1139" style="text-decoration:;">资源</tspan></tspan></text></g></g><g id="SvgjsG1140"><path id="SvgjsPath1141" d="M95.5 138C 95.5 63.37882338102679 264.5 133.6211766189732 264.5 59" stroke="#323232" stroke-width="2" fill="none" marker-end="url(#SvgjsMarker1142)"></path></g><g id="SvgjsG1144"><path id="SvgjsPath1145" d="M212.5 138C 212.5 100.168795948318 264.5 96.831204051682 264.5 59" stroke-dasharray="3,3" stroke="#323232" stroke-width="2" fill="none" marker-end="url(#SvgjsMarker1146)"></path></g><g id="SvgjsG1148"><path id="SvgjsPath1149" d="M329.5 138C 329.5 97.07861194925079 264.5 99.92138805074921 264.5 59" stroke-dasharray="3,3" stroke="#323232" stroke-width="2" fill="none" marker-end="url(#SvgjsMarker1150)"></path></g><g id="SvgjsG1152"><path id="SvgjsPath1153" d="M446.5 138C 446.5 58.63754036069702 264.5 138.36245963930298 264.5 59" stroke-dasharray="3,3" stroke="#323232" stroke-width="2" fill="none" marker-end="url(#SvgjsMarker1154)"></path></g></svg>