<svg id="SvgjsSvg1006" width="763" height="434" xmlns="http://www.w3.org/2000/svg" version="1.1" xmlns:xlink="http://www.w3.org/1999/xlink" xmlns:svgjs="http://svgjs.com/svgjs"><defs id="SvgjsDefs1007"></defs><g id="SvgjsG1008" transform="translate(40,96.25)"><path id="SvgjsPath1009" d="M 0 4Q 0 0 4 0L 694 0Q 698 0 698 4L 698 124.5Q 698 128.5 694 128.5L 4 128.5Q 0 128.5 0 124.5Z" stroke-dasharray="10,6" stroke="rgba(50,50,50,1)" stroke-width="2" fill-opacity="1" fill="#cce5ff"></path><g id="SvgjsG1010"><text id="SvgjsText1011" font-family="微软雅黑" text-anchor="middle" font-size="13px" width="678px" fill="#323232" font-weight="400" align="middle" anchor="middle" family="微软雅黑" size="13px" weight="400" font-style="" opacity="1" y="54.3" transform="rotate(0)"></text></g></g><g id="SvgjsG1012" transform="translate(40.5,251)"><path id="SvgjsPath1013" d="M 0 4Q 0 0 4 0L 693 0Q 697 0 697 4L 697 126Q 697 130 693 130L 4 130Q 0 130 0 126Z" stroke-dasharray="10,6" stroke="rgba(50,50,50,1)" stroke-width="2" fill-opacity="1" fill="#cce5ff"></path><g id="SvgjsG1014"><text id="SvgjsText1015" font-family="微软雅黑" text-anchor="middle" font-size="13px" width="677px" fill="#323232" font-weight="400" align="middle" anchor="middle" family="微软雅黑" size="13px" weight="400" font-style="" opacity="1" y="55.05" transform="rotate(0)"></text></g></g><g id="SvgjsG1016" transform="translate(325,25)"><path id="SvgjsPath1017" d="M 0 4Q 0 0 4 0L 151 0Q 155 0 155 4L 155 380Q 155 384 151 384L 4 384Q 0 384 0 380Z" stroke="rgba(50,50,50,0.8)" stroke-width="2" fill-opacity="0.8" fill="#ffffff"></path><g id="SvgjsG1018"><text id="SvgjsText1019" font-family="微软雅黑" text-anchor="middle" font-size="13px" width="145px" fill="#323232" font-weight="400" align="middle" anchor="middle" family="微软雅黑" size="13px" weight="400" font-style="" opacity="0.8" y="18.478571428571428" transform="rotate(0)"><tspan id="SvgjsTspan1020" dy="16" x="77.5"><tspan id="SvgjsTspan1021" style="text-decoration:;font-weight: bold;">Broker 2</tspan></tspan></text></g></g><g id="SvgjsG1022" transform="translate(520,25)"><path id="SvgjsPath1023" d="M 0 4Q 0 0 4 0L 151 0Q 155 0 155 4L 155 380Q 155 384 151 384L 4 384Q 0 384 0 380Z" stroke="rgba(50,50,50,0.8)" stroke-width="2" fill-opacity="0.8" fill="#ffffff"></path><g id="SvgjsG1024"><text id="SvgjsText1025" font-family="微软雅黑" text-anchor="middle" font-size="13px" width="145px" fill="#323232" font-weight="400" align="middle" anchor="middle" family="微软雅黑" size="13px" weight="400" font-style="" opacity="0.8" y="18.478571428571428" transform="rotate(0)"><tspan id="SvgjsTspan1026" dy="16" x="77.5"><tspan id="SvgjsTspan1027" style="text-decoration:;font-weight: bold;">Broker 3</tspan></tspan></text></g></g><g id="SvgjsG1028" transform="translate(127,25)"><path id="SvgjsPath1029" d="M 0 4Q 0 0 4 0L 151 0Q 155 0 155 4L 155 380Q 155 384 151 384L 4 384Q 0 384 0 380Z" stroke="rgba(50,50,50,0.8)" stroke-width="2" fill-opacity="0.8" fill="#ffffff"></path><g id="SvgjsG1030"><text id="SvgjsText1031" font-family="微软雅黑" text-anchor="middle" font-size="13px" width="145px" fill="#323232" font-weight="400" align="middle" anchor="middle" family="微软雅黑" size="13px" weight="400" font-style="" opacity="0.8" y="18.478571428571428" transform="rotate(0)"><tspan id="SvgjsTspan1032" dy="16" x="77.5"><tspan id="SvgjsTspan1033" style="text-decoration:;font-weight: bold;">Broker 1</tspan></tspan></text></g></g><g id="SvgjsG1034" transform="translate(348.5,112)"><path id="SvgjsPath1035" d="M 0 4Q 0 0 4 0L 104 0Q 108 0 108 4L 108 101Q 108 105 104 105L 4 105Q 0 105 0 101Z" stroke="rgba(50,50,50,1)" stroke-width="2" fill-opacity="1" fill="#ffffcc"></path><g id="SvgjsG1036"><text id="SvgjsText1037" font-family="微软雅黑" text-anchor="middle" font-size="13px" width="98px" fill="#323232" font-weight="400" align="middle" anchor="middle" family="微软雅黑" size="13px" weight="400" font-style="" opacity="1" y="-1.45" transform="rotate(0)"><tspan id="SvgjsTspan1038" dy="16" x="54"><tspan id="SvgjsTspan1039" style="text-decoration:;font-weight: bold;">Topic 1 分片</tspan></tspan></text></g></g><g id="SvgjsG1040" transform="translate(359,138)"><path id="SvgjsPath1041" d="M 0 0L 87 0L 87 22L 0 22Z" stroke="rgba(50,50,50,1)" stroke-width="2" fill-opacity="1" fill="#e6ffcc"></path><g id="SvgjsG1042"><text id="SvgjsText1043" font-family="微软雅黑" text-anchor="middle" font-size="13px" width="67px" fill="#323232" font-weight="400" align="middle" anchor="middle" family="微软雅黑" size="13px" weight="400" font-style="" opacity="1" y="1.05" transform="rotate(0)"><tspan id="SvgjsTspan1044" dy="16" x="43.5"><tspan id="SvgjsTspan1045" style="text-decoration:;">队列 1</tspan></tspan></text></g></g><g id="SvgjsG1046" transform="translate(359,160)"><path id="SvgjsPath1047" d="M 0 0L 87 0L 87 22L 0 22Z" stroke="rgba(50,50,50,1)" stroke-width="2" fill-opacity="1" fill="#e6ffcc"></path><g id="SvgjsG1048"><text id="SvgjsText1049" font-family="微软雅黑" text-anchor="middle" font-size="13px" width="67px" fill="#323232" font-weight="400" align="middle" anchor="middle" family="微软雅黑" size="13px" weight="400" font-style="" opacity="1" y="1.05" transform="rotate(0)"><tspan id="SvgjsTspan1050" dy="16" x="43.5"><tspan id="SvgjsTspan1051" style="text-decoration:;">队列 2</tspan></tspan></text></g></g><g id="SvgjsG1052" transform="translate(359,182)"><path id="SvgjsPath1053" d="M 0 0L 87 0L 87 22L 0 22Z" stroke="rgba(50,50,50,1)" stroke-width="2" fill-opacity="1" fill="#e6ffcc"></path><g id="SvgjsG1054"><text id="SvgjsText1055" font-family="微软雅黑" text-anchor="middle" font-size="13px" width="67px" fill="#323232" font-weight="400" align="middle" anchor="middle" family="微软雅黑" size="13px" weight="400" font-style="" opacity="1" y="1.05" transform="rotate(0)"><tspan id="SvgjsTspan1056" dy="16" x="43.5"><tspan id="SvgjsTspan1057" style="text-decoration:;">队列 3</tspan></tspan></text></g></g><g id="SvgjsG1058" transform="translate(543.5,112)"><path id="SvgjsPath1059" d="M 0 4Q 0 0 4 0L 104 0Q 108 0 108 4L 108 101Q 108 105 104 105L 4 105Q 0 105 0 101Z" stroke="rgba(50,50,50,1)" stroke-width="2" fill-opacity="1" fill="#ffffcc"></path><g id="SvgjsG1060"><text id="SvgjsText1061" font-family="微软雅黑" text-anchor="middle" font-size="13px" width="98px" fill="#323232" font-weight="400" align="middle" anchor="middle" family="微软雅黑" size="13px" weight="400" font-style="" opacity="1" y="-1.45" transform="rotate(0)"><tspan id="SvgjsTspan1062" dy="16" x="54"><tspan id="SvgjsTspan1063" style="text-decoration:;font-weight: bold;">Topic 1 分片</tspan></tspan></text></g></g><g id="SvgjsG1064" transform="translate(554,138)"><path id="SvgjsPath1065" d="M 0 0L 87 0L 87 22L 0 22Z" stroke="rgba(50,50,50,1)" stroke-width="2" fill-opacity="1" fill="#e6ffcc"></path><g id="SvgjsG1066"><text id="SvgjsText1067" font-family="微软雅黑" text-anchor="middle" font-size="13px" width="67px" fill="#323232" font-weight="400" align="middle" anchor="middle" family="微软雅黑" size="13px" weight="400" font-style="" opacity="1" y="1.05" transform="rotate(0)"><tspan id="SvgjsTspan1068" dy="16" x="43.5"><tspan id="SvgjsTspan1069" style="text-decoration:;">队列 1</tspan></tspan></text></g></g><g id="SvgjsG1070" transform="translate(150.5,108)"><path id="SvgjsPath1071" d="M 0 4Q 0 0 4 0L 104 0Q 108 0 108 4L 108 101Q 108 105 104 105L 4 105Q 0 105 0 101Z" stroke="rgba(50,50,50,1)" stroke-width="2" fill-opacity="1" fill="#ffffcc"></path><g id="SvgjsG1072"><text id="SvgjsText1073" font-family="微软雅黑" text-anchor="middle" font-size="13px" width="98px" fill="#323232" font-weight="400" align="middle" anchor="middle" family="微软雅黑" size="13px" weight="400" font-style="" opacity="1" y="-1.45" transform="rotate(0)"><tspan id="SvgjsTspan1074" dy="16" x="54"><tspan id="SvgjsTspan1075" style="text-decoration:;font-weight: bold;">Topic 1 分片</tspan></tspan></text></g></g><g id="SvgjsG1076" transform="translate(161,134)"><path id="SvgjsPath1077" d="M 0 0L 87 0L 87 22L 0 22Z" stroke="rgba(50,50,50,1)" stroke-width="2" fill-opacity="1" fill="#e6ffcc"></path><g id="SvgjsG1078"><text id="SvgjsText1079" font-family="微软雅黑" text-anchor="middle" font-size="13px" width="67px" fill="#323232" font-weight="400" align="middle" anchor="middle" family="微软雅黑" size="13px" weight="400" font-style="" opacity="1" y="1.05" transform="rotate(0)"><tspan id="SvgjsTspan1080" dy="16" x="43.5"><tspan id="SvgjsTspan1081" style="text-decoration:;">队列 1</tspan></tspan></text></g></g><g id="SvgjsG1082" transform="translate(161,156)"><path id="SvgjsPath1083" d="M 0 0L 87 0L 87 22L 0 22Z" stroke="rgba(50,50,50,1)" stroke-width="2" fill-opacity="1" fill="#e6ffcc"></path><g id="SvgjsG1084"><text id="SvgjsText1085" font-family="微软雅黑" text-anchor="middle" font-size="13px" width="67px" fill="#323232" font-weight="400" align="middle" anchor="middle" family="微软雅黑" size="13px" weight="400" font-style="" opacity="1" y="1.05" transform="rotate(0)"><tspan id="SvgjsTspan1086" dy="16" x="43.5"><tspan id="SvgjsTspan1087" style="text-decoration:;">队列 2</tspan></tspan></text></g></g><g id="SvgjsG1088" transform="translate(150.5,264)"><path id="SvgjsPath1089" d="M 0 4Q 0 0 4 0L 104 0Q 108 0 108 4L 108 101Q 108 105 104 105L 4 105Q 0 105 0 101Z" stroke="rgba(50,50,50,1)" stroke-width="2" fill-opacity="1" fill="#ffffcc"></path><g id="SvgjsG1090"><text id="SvgjsText1091" font-family="微软雅黑" text-anchor="middle" font-size="13px" width="98px" fill="#323232" font-weight="400" align="middle" anchor="middle" family="微软雅黑" size="13px" weight="400" font-style="" opacity="1" y="-1.45" transform="rotate(0)"><tspan id="SvgjsTspan1092" dy="16" x="54"><tspan id="SvgjsTspan1093" style="text-decoration:;font-weight: bold;">Topic 2 分片</tspan></tspan></text></g></g><g id="SvgjsG1094" transform="translate(348.5,264)"><path id="SvgjsPath1095" d="M 0 4Q 0 0 4 0L 104 0Q 108 0 108 4L 108 101Q 108 105 104 105L 4 105Q 0 105 0 101Z" stroke="rgba(50,50,50,1)" stroke-width="2" fill-opacity="1" fill="#ffffcc"></path><g id="SvgjsG1096"><text id="SvgjsText1097" font-family="微软雅黑" text-anchor="middle" font-size="13px" width="98px" fill="#323232" font-weight="400" align="middle" anchor="middle" family="微软雅黑" size="13px" weight="400" font-style="" opacity="1" y="-1.45" transform="rotate(0)"><tspan id="SvgjsTspan1098" dy="16" x="54"><tspan id="SvgjsTspan1099" style="text-decoration:;font-weight: bold;">Topic 2 分片</tspan></tspan></text></g></g><g id="SvgjsG1100" transform="translate(543.5,264)"><path id="SvgjsPath1101" d="M 0 4Q 0 0 4 0L 104 0Q 108 0 108 4L 108 101Q 108 105 104 105L 4 105Q 0 105 0 101Z" stroke="rgba(50,50,50,1)" stroke-width="2" fill-opacity="1" fill="#ffffcc"></path><g id="SvgjsG1102"><text id="SvgjsText1103" font-family="微软雅黑" text-anchor="middle" font-size="13px" width="98px" fill="#323232" font-weight="400" align="middle" anchor="middle" family="微软雅黑" size="13px" weight="400" font-style="" opacity="1" y="-1.45" transform="rotate(0)"><tspan id="SvgjsTspan1104" dy="16" x="54"><tspan id="SvgjsTspan1105" style="text-decoration:;font-weight: bold;">Topic 2 分片</tspan></tspan></text></g></g><g id="SvgjsG1106" transform="translate(161,292)"><path id="SvgjsPath1107" d="M 0 0L 87 0L 87 22L 0 22Z" stroke="rgba(50,50,50,1)" stroke-width="2" fill-opacity="1" fill="#e6ffcc"></path><g id="SvgjsG1108"><text id="SvgjsText1109" font-family="微软雅黑" text-anchor="middle" font-size="13px" width="67px" fill="#323232" font-weight="400" align="middle" anchor="middle" family="微软雅黑" size="13px" weight="400" font-style="" opacity="1" y="1.05" transform="rotate(0)"><tspan id="SvgjsTspan1110" dy="16" x="43.5"><tspan id="SvgjsTspan1111" style="text-decoration:;">队列 1</tspan></tspan></text></g></g><g id="SvgjsG1112" transform="translate(161,314)"><path id="SvgjsPath1113" d="M 0 0L 87 0L 87 22L 0 22Z" stroke="rgba(50,50,50,1)" stroke-width="2" fill-opacity="1" fill="#e6ffcc"></path><g id="SvgjsG1114"><text id="SvgjsText1115" font-family="微软雅黑" text-anchor="middle" font-size="13px" width="67px" fill="#323232" font-weight="400" align="middle" anchor="middle" family="微软雅黑" size="13px" weight="400" font-style="" opacity="1" y="1.05" transform="rotate(0)"><tspan id="SvgjsTspan1116" dy="16" x="43.5"><tspan id="SvgjsTspan1117" style="text-decoration:;">队列 2</tspan></tspan></text></g></g><g id="SvgjsG1118" transform="translate(359,292)"><path id="SvgjsPath1119" d="M 0 0L 87 0L 87 22L 0 22Z" stroke="rgba(50,50,50,1)" stroke-width="2" fill-opacity="1" fill="#e6ffcc"></path><g id="SvgjsG1120"><text id="SvgjsText1121" font-family="微软雅黑" text-anchor="middle" font-size="13px" width="67px" fill="#323232" font-weight="400" align="middle" anchor="middle" family="微软雅黑" size="13px" weight="400" font-style="" opacity="1" y="1.05" transform="rotate(0)"><tspan id="SvgjsTspan1122" dy="16" x="43.5"><tspan id="SvgjsTspan1123" style="text-decoration:;">队列 1</tspan></tspan></text></g></g><g id="SvgjsG1124" transform="translate(554,292)"><path id="SvgjsPath1125" d="M 0 0L 87 0L 87 22L 0 22Z" stroke="rgba(50,50,50,1)" stroke-width="2" fill-opacity="1" fill="#e6ffcc"></path><g id="SvgjsG1126"><text id="SvgjsText1127" font-family="微软雅黑" text-anchor="middle" font-size="13px" width="67px" fill="#323232" font-weight="400" align="middle" anchor="middle" family="微软雅黑" size="13px" weight="400" font-style="" opacity="1" y="1.05" transform="rotate(0)"><tspan id="SvgjsTspan1128" dy="16" x="43.5"><tspan id="SvgjsTspan1129" style="text-decoration:;">队列 1</tspan></tspan></text></g></g><g id="SvgjsG1130" transform="translate(554,314)"><path id="SvgjsPath1131" d="M 0 0L 87 0L 87 22L 0 22Z" stroke="rgba(50,50,50,1)" stroke-width="2" fill-opacity="1" fill="#e6ffcc"></path><g id="SvgjsG1132"><text id="SvgjsText1133" font-family="微软雅黑" text-anchor="middle" font-size="13px" width="67px" fill="#323232" font-weight="400" align="middle" anchor="middle" family="微软雅黑" size="13px" weight="400" font-style="" opacity="1" y="1.05" transform="rotate(0)"><tspan id="SvgjsTspan1134" dy="16" x="43.5"><tspan id="SvgjsTspan1135" style="text-decoration:;">队列 2</tspan></tspan></text></g></g><g id="SvgjsG1136" transform="translate(554,336)"><path id="SvgjsPath1137" d="M 0 0L 87 0L 87 22L 0 22Z" stroke="rgba(50,50,50,1)" stroke-width="2" fill-opacity="1" fill="#e6ffcc"></path><g id="SvgjsG1138"><text id="SvgjsText1139" font-family="微软雅黑" text-anchor="middle" font-size="13px" width="67px" fill="#323232" font-weight="400" align="middle" anchor="middle" family="微软雅黑" size="13px" weight="400" font-style="" opacity="1" y="1.05" transform="rotate(0)"><tspan id="SvgjsTspan1140" dy="16" x="43.5"><tspan id="SvgjsTspan1141" style="text-decoration:;">队列 3</tspan></tspan></text></g></g><g id="SvgjsG1142" transform="translate(359,314)"><path id="SvgjsPath1143" d="M 0 0L 87 0L 87 22L 0 22Z" stroke="rgba(50,50,50,1)" stroke-width="2" fill-opacity="1" fill="#e6ffcc"></path><g id="SvgjsG1144"><text id="SvgjsText1145" font-family="微软雅黑" text-anchor="middle" font-size="13px" width="67px" fill="#323232" font-weight="400" align="middle" anchor="middle" family="微软雅黑" size="13px" weight="400" font-style="" opacity="1" y="1.05" transform="rotate(0)"><tspan id="SvgjsTspan1146" dy="16" x="43.5"><tspan id="SvgjsTspan1147" style="text-decoration:;">队列 2</tspan></tspan></text></g></g><g id="SvgjsG1148" transform="translate(25,140.5)"><path id="SvgjsPath1149" d="M 0 0L 120 0L 120 40L 0 40Z" stroke="none" fill="none"></path><g id="SvgjsG1150"><text id="SvgjsText1151" font-family="微软雅黑" text-anchor="middle" font-size="13px" width="120px" fill="#323232" font-weight="400" align="middle" anchor="middle" family="微软雅黑" size="13px" weight="400" font-style="" opacity="1" y="10.05" transform="rotate(0)"><tspan id="SvgjsTspan1152" dy="16" x="60"><tspan id="SvgjsTspan1153" style="text-decoration:;font-weight: bold;">Topic 1</tspan></tspan></text></g></g><g id="SvgjsG1154" transform="translate(25,296)"><path id="SvgjsPath1155" d="M 0 0L 120 0L 120 40L 0 40Z" stroke="none" fill="none"></path><g id="SvgjsG1156"><text id="SvgjsText1157" font-family="微软雅黑" text-anchor="middle" font-size="13px" width="120px" fill="#323232" font-weight="400" align="middle" anchor="middle" family="微软雅黑" size="13px" weight="400" font-style="" opacity="1" y="10.05" transform="rotate(0)"><tspan id="SvgjsTspan1158" dy="16" x="60"><tspan id="SvgjsTspan1159" style="text-decoration:;font-weight: bold;">Topic 2</tspan></tspan></text></g></g></svg>