<svg id="SvgjsSvg1184" width="486" height="479" xmlns="http://www.w3.org/2000/svg" version="1.1" xmlns:xlink="http://www.w3.org/1999/xlink" xmlns:svgjs="http://svgjs.com/svgjs"><defs id="SvgjsDefs1185"><marker id="SvgjsMarker1224" markerWidth="16" markerHeight="12" refX="16" refY="6" viewBox="0 0 16 12" orient="auto" markerUnits="userSpaceOnUse" stroke-dasharray="0,0"><path id="SvgjsPath1225" d="M0,2 L14,6 L0,11 L0,2" fill="#ff0000" stroke="#ff0000" stroke-width="2"></path></marker><marker id="SvgjsMarker1228" markerWidth="16" markerHeight="12" refX="16" refY="6" viewBox="0 0 16 12" orient="auto" markerUnits="userSpaceOnUse" stroke-dasharray="0,0"><path id="SvgjsPath1229" d="M0,2 L14,6 L0,11 L0,2" fill="#00cc00" stroke="#00cc00" stroke-width="2"></path></marker><marker id="SvgjsMarker1244" markerWidth="16" markerHeight="12" refX="16" refY="6" viewBox="0 0 16 12" orient="auto" markerUnits="userSpaceOnUse" stroke-dasharray="0,0"><path id="SvgjsPath1245" d="M0,2 L14,6 L0,11 L0,2" fill="#ff0000" stroke="#ff0000" stroke-width="2"></path></marker><marker id="SvgjsMarker1248" markerWidth="16" markerHeight="12" refX="16" refY="6" viewBox="0 0 16 12" orient="auto" markerUnits="userSpaceOnUse" stroke-dasharray="0,0"><path id="SvgjsPath1249" d="M0,2 L14,6 L0,11 L0,2" fill="#ff0000" stroke="#ff0000" stroke-width="2"></path></marker><marker id="SvgjsMarker1252" markerWidth="16" markerHeight="12" refX="16" refY="6" viewBox="0 0 16 12" orient="auto" markerUnits="userSpaceOnUse" stroke-dasharray="0,0"><path id="SvgjsPath1253" d="M0,2 L14,6 L0,11 L0,2" fill="#00cc00" stroke="#00cc00" stroke-width="2"></path></marker><marker id="SvgjsMarker1256" markerWidth="16" markerHeight="12" refX="16" refY="6" viewBox="0 0 16 12" orient="auto" markerUnits="userSpaceOnUse" stroke-dasharray="0,0"><path id="SvgjsPath1257" d="M0,2 L14,6 L0,11 L0,2" fill="#00cc00" stroke="#00cc00" stroke-width="2"></path></marker><marker id="SvgjsMarker1260" markerWidth="16" markerHeight="12" refX="16" refY="6" viewBox="0 0 16 12" orient="auto" markerUnits="userSpaceOnUse" stroke-dasharray="0,0"><path id="SvgjsPath1261" d="M0,2 L14,6 L0,11 L0,2" fill="#ff0000" stroke="#ff0000" stroke-width="2"></path></marker><marker id="SvgjsMarker1264" markerWidth="16" markerHeight="12" refX="16" refY="6" viewBox="0 0 16 12" orient="auto" markerUnits="userSpaceOnUse" stroke-dasharray="0,0"><path id="SvgjsPath1265" d="M0,2 L14,6 L0,11 L0,2" fill="#00cc00" stroke="#00cc00" stroke-width="2"></path></marker><marker id="SvgjsMarker1316" markerWidth="16" markerHeight="12" refX="16" refY="6" viewBox="0 0 16 12" orient="auto" markerUnits="userSpaceOnUse" stroke-dasharray="0,0"><path id="SvgjsPath1317" d="M0,2 L14,6 L0,11 L0,2" fill="#ff0000" stroke="#ff0000" stroke-width="2"></path></marker><marker id="SvgjsMarker1320" markerWidth="16" markerHeight="12" refX="16" refY="6" viewBox="0 0 16 12" orient="auto" markerUnits="userSpaceOnUse" stroke-dasharray="0,0"><path id="SvgjsPath1321" d="M0,2 L14,6 L0,11 L0,2" fill="#00cc00" stroke="#00cc00" stroke-width="2"></path></marker><marker id="SvgjsMarker1336" markerWidth="16" markerHeight="12" refX="16" refY="6" viewBox="0 0 16 12" orient="auto" markerUnits="userSpaceOnUse" stroke-dasharray="0,0"><path id="SvgjsPath1337" d="M0,2 L14,6 L0,11 L0,2" fill="#ff0000" stroke="#ff0000" stroke-width="2"></path></marker><marker id="SvgjsMarker1340" markerWidth="16" markerHeight="12" refX="16" refY="6" viewBox="0 0 16 12" orient="auto" markerUnits="userSpaceOnUse" stroke-dasharray="0,0"><path id="SvgjsPath1341" d="M0,2 L14,6 L0,11 L0,2" fill="#ff0000" stroke="#ff0000" stroke-width="2"></path></marker><marker id="SvgjsMarker1344" markerWidth="16" markerHeight="12" refX="16" refY="6" viewBox="0 0 16 12" orient="auto" markerUnits="userSpaceOnUse" stroke-dasharray="0,0"><path id="SvgjsPath1345" d="M0,2 L14,6 L0,11 L0,2" fill="#00cc00" stroke="#00cc00" stroke-width="2"></path></marker><marker id="SvgjsMarker1348" markerWidth="16" markerHeight="12" refX="16" refY="6" viewBox="0 0 16 12" orient="auto" markerUnits="userSpaceOnUse" stroke-dasharray="0,0"><path id="SvgjsPath1349" d="M0,2 L14,6 L0,11 L0,2" fill="#00cc00" stroke="#00cc00" stroke-width="2"></path></marker><marker id="SvgjsMarker1352" markerWidth="16" markerHeight="12" refX="16" refY="6" viewBox="0 0 16 12" orient="auto" markerUnits="userSpaceOnUse" stroke-dasharray="0,0"><path id="SvgjsPath1353" d="M0,2 L14,6 L0,11 L0,2" fill="#323232" stroke="#323232" stroke-width="2"></path></marker></defs><g id="SvgjsG1186" transform="translate(25,25)"><path id="SvgjsPath1187" d="M 0 4Q 0 0 4 0L 192 0Q 196 0 196 4L 196 425Q 196 429 192 429L 4 429Q 0 429 0 425Z" stroke="rgba(50,50,50,1)" stroke-width="2" fill-opacity="1" fill="#ffffff"></path><g id="SvgjsG1188"><text id="SvgjsText1189" font-family="微软雅黑" text-anchor="middle" font-size="13px" width="186px" fill="#323232" font-weight="700" align="middle" anchor="middle" family="微软雅黑" size="13px" weight="700" font-style="" opacity="1" y="21.692857142857143" transform="rotate(0)"><tspan id="SvgjsTspan1190" dy="16" x="98"><tspan id="SvgjsTspan1191" style="text-decoration:;">同步刷盘</tspan></tspan></text></g></g><g id="SvgjsG1192" transform="translate(53,86)"><path id="SvgjsPath1193" d="M 0 4Q 0 0 4 0L 136 0Q 140 0 140 4L 140 31Q 140 35 136 35L 4 35Q 0 35 0 31Z" stroke="rgba(50,50,50,1)" stroke-width="2" fill-opacity="1" fill="#ffffff"></path><g id="SvgjsG1194"><text id="SvgjsText1195" font-family="微软雅黑" text-anchor="middle" font-size="13px" width="120px" fill="#323232" font-weight="400" align="middle" anchor="middle" family="微软雅黑" size="13px" weight="400" font-style="" opacity="1" y="7.55" transform="rotate(0)"><tspan id="SvgjsTspan1196" dy="16" x="70"><tspan id="SvgjsTspan1197" style="text-decoration:;">Producer</tspan></tspan></text></g></g><g id="SvgjsG1198" transform="translate(53,161)"><path id="SvgjsPath1199" d="M 0 4Q 0 0 4 0L 136 0Q 140 0 140 4L 140 31Q 140 35 136 35L 4 35Q 0 35 0 31Z" stroke="rgba(50,50,50,1)" stroke-width="2" fill-opacity="1" fill="#ffffff"></path><g id="SvgjsG1200"><text id="SvgjsText1201" font-family="微软雅黑" text-anchor="middle" font-size="13px" width="120px" fill="#323232" font-weight="400" align="middle" anchor="middle" family="微软雅黑" size="13px" weight="400" font-style="" opacity="1" y="7.55" transform="rotate(0)"><tspan id="SvgjsTspan1202" dy="16" x="70"><tspan id="SvgjsTspan1203" style="text-decoration:;">Broker</tspan></tspan></text></g></g><g id="SvgjsG1204" transform="translate(53,236)"><path id="SvgjsPath1205" d="M 0 4Q 0 0 4 0L 136 0Q 140 0 140 4L 140 31Q 140 35 136 35L 4 35Q 0 35 0 31Z" stroke="rgba(50,50,50,1)" stroke-width="2" fill-opacity="1" fill="#e6ffcc"></path><g id="SvgjsG1206"><text id="SvgjsText1207" font-family="微软雅黑" text-anchor="middle" font-size="13px" width="120px" fill="#323232" font-weight="400" align="middle" anchor="middle" family="微软雅黑" size="13px" weight="400" font-style="" opacity="1" y="7.55" transform="rotate(0)"><tspan id="SvgjsTspan1208" dy="16" x="70"><tspan id="SvgjsTspan1209" style="text-decoration:;">Java Heap</tspan></tspan></text></g></g><g id="SvgjsG1210" transform="translate(53,311)"><path id="SvgjsPath1211" d="M 0 4Q 0 0 4 0L 136 0Q 140 0 140 4L 140 31Q 140 35 136 35L 4 35Q 0 35 0 31Z" stroke="rgba(50,50,50,1)" stroke-width="2" fill-opacity="1" fill="#e6ffcc"></path><g id="SvgjsG1212"><text id="SvgjsText1213" font-family="微软雅黑" text-anchor="middle" font-size="13px" width="120px" fill="#323232" font-weight="400" align="middle" anchor="middle" family="微软雅黑" size="13px" weight="400" font-style="" opacity="1" y="7.55" transform="rotate(0)"><tspan id="SvgjsTspan1214" dy="16" x="70"><tspan id="SvgjsTspan1215" style="text-decoration:;">Virtual Memory</tspan></tspan></text></g></g><g id="SvgjsG1216" transform="translate(53,386)"><path id="SvgjsPath1217" d="M 0 4Q 0 0 4 0L 136 0Q 140 0 140 4L 140 31Q 140 35 136 35L 4 35Q 0 35 0 31Z" stroke="rgba(50,50,50,1)" stroke-width="2" fill-opacity="1" fill="#ffffff"></path><g id="SvgjsG1218"><text id="SvgjsText1219" font-family="微软雅黑" text-anchor="middle" font-size="13px" width="120px" fill="#323232" font-weight="400" align="middle" anchor="middle" family="微软雅黑" size="13px" weight="400" font-style="" opacity="1" y="7.55" transform="rotate(0)"><tspan id="SvgjsTspan1220" dy="16" x="70"><tspan id="SvgjsTspan1221" style="text-decoration:;">DIsk</tspan></tspan></text></g></g><g id="SvgjsG1222"><path id="SvgjsPath1223" d="M91 121L91 141L91 141L91 161" stroke="#ff0000" stroke-width="2" fill="none" marker-end="url(#SvgjsMarker1224)"></path></g><g id="SvgjsG1226"><path id="SvgjsPath1227" d="M153 161L153 143.5L153 143.5L153 126" stroke="#00cc00" stroke-width="2" fill="none" marker-end="url(#SvgjsMarker1228)"></path></g><g id="SvgjsG1230" transform="translate(35,131)"><path id="SvgjsPath1231" d="M 0 0L 60 0L 60 20L 0 20Z" stroke="none" fill="none"></path><g id="SvgjsG1232"><text id="SvgjsText1233" font-family="微软雅黑" text-anchor="middle" font-size="13px" width="60px" fill="#323232" font-weight="400" align="middle" anchor="middle" family="微软雅黑" size="13px" weight="400" font-style="" opacity="1" y="0.050000000000000044" transform="rotate(0)"><tspan id="SvgjsTspan1234" dy="16" x="30"><tspan id="SvgjsTspan1235" style="text-decoration:;">send</tspan></tspan></text></g></g><g id="SvgjsG1236" transform="translate(147,131)"><path id="SvgjsPath1237" d="M 0 0L 60 0L 60 20L 0 20Z" stroke="none" fill="none"></path><g id="SvgjsG1238"><text id="SvgjsText1239" font-family="微软雅黑" text-anchor="middle" font-size="13px" width="60px" fill="#323232" font-weight="400" align="middle" anchor="middle" family="微软雅黑" size="13px" weight="400" font-style="" opacity="1" y="0.050000000000000044" transform="rotate(0)"><tspan id="SvgjsTspan1240" dy="16" x="30"><tspan id="SvgjsTspan1241" style="text-decoration:;">ACK</tspan></tspan></text></g></g><g id="SvgjsG1242"><path id="SvgjsPath1243" d="M92 196L92 216L92 216L92 236" stroke="#ff0000" stroke-width="2" fill="none" marker-end="url(#SvgjsMarker1244)"></path></g><g id="SvgjsG1246"><path id="SvgjsPath1247" d="M92 271L92 291L92 291L92 311" stroke="#ff0000" stroke-width="2" fill="none" marker-end="url(#SvgjsMarker1248)"></path></g><g id="SvgjsG1250"><path id="SvgjsPath1251" d="M153 236L153 218.5L153 218.5L153 201" stroke="#00cc00" stroke-width="2" fill="none" marker-end="url(#SvgjsMarker1252)"></path></g><g id="SvgjsG1254"><path id="SvgjsPath1255" d="M153 311L153 291L153 291L153 271" stroke="#00cc00" stroke-width="2" fill="none" marker-end="url(#SvgjsMarker1256)"></path></g><g id="SvgjsG1258"><path id="SvgjsPath1259" d="M91 346L91 366L91 366L91 386" stroke="#ff0000" stroke-width="2" fill="none" marker-end="url(#SvgjsMarker1260)"></path></g><g id="SvgjsG1262"><path id="SvgjsPath1263" d="M152 386L152 366L152 366L152 346" stroke="#00cc00" stroke-width="2" fill="none" marker-end="url(#SvgjsMarker1264)"></path></g><g id="SvgjsG1266" transform="translate(35,356)"><path id="SvgjsPath1267" d="M 0 0L 60 0L 60 20L 0 20Z" stroke="none" fill="none"></path><g id="SvgjsG1268"><text id="SvgjsText1269" font-family="微软雅黑" text-anchor="middle" font-size="13px" width="60px" fill="#323232" font-weight="400" align="middle" anchor="middle" family="微软雅黑" size="13px" weight="400" font-style="" opacity="1" y="0.050000000000000044" transform="rotate(0)"><tspan id="SvgjsTspan1270" dy="16" x="30"><tspan id="SvgjsTspan1271" style="text-decoration:;">flush</tspan></tspan></text></g></g><g id="SvgjsG1272" transform="translate(147,356)"><path id="SvgjsPath1273" d="M 0 0L 60 0L 60 20L 0 20Z" stroke="none" fill="none"></path><g id="SvgjsG1274"><text id="SvgjsText1275" font-family="微软雅黑" text-anchor="middle" font-size="13px" width="60px" fill="#323232" font-weight="400" align="middle" anchor="middle" family="微软雅黑" size="13px" weight="400" font-style="" opacity="1" y="0.050000000000000044" transform="rotate(0)"><tspan id="SvgjsTspan1276" dy="16" x="30"><tspan id="SvgjsTspan1277" style="text-decoration:;">ACK</tspan></tspan></text></g></g><g id="SvgjsG1278" transform="translate(265,25)"><path id="SvgjsPath1279" d="M 0 4Q 0 0 4 0L 192 0Q 196 0 196 4L 196 425Q 196 429 192 429L 4 429Q 0 429 0 425Z" stroke="rgba(50,50,50,1)" stroke-width="2" fill-opacity="1" fill="#ffffff"></path><g id="SvgjsG1280"><text id="SvgjsText1281" font-family="微软雅黑" text-anchor="middle" font-size="13px" width="186px" fill="#323232" font-weight="700" align="middle" anchor="middle" family="微软雅黑" size="13px" weight="700" font-style="" opacity="1" y="21.692857142857143" transform="rotate(0)"><tspan id="SvgjsTspan1282" dy="16" x="98"><tspan id="SvgjsTspan1283" style="text-decoration:;">异步刷盘</tspan></tspan></text></g></g><g id="SvgjsG1284" transform="translate(293,86)"><path id="SvgjsPath1285" d="M 0 4Q 0 0 4 0L 136 0Q 140 0 140 4L 140 31Q 140 35 136 35L 4 35Q 0 35 0 31Z" stroke="rgba(50,50,50,1)" stroke-width="2" fill-opacity="1" fill="#ffffff"></path><g id="SvgjsG1286"><text id="SvgjsText1287" font-family="微软雅黑" text-anchor="middle" font-size="13px" width="120px" fill="#323232" font-weight="400" align="middle" anchor="middle" family="微软雅黑" size="13px" weight="400" font-style="" opacity="1" y="7.55" transform="rotate(0)"><tspan id="SvgjsTspan1288" dy="16" x="70"><tspan id="SvgjsTspan1289" style="text-decoration:;">Producer</tspan></tspan></text></g></g><g id="SvgjsG1290" transform="translate(293,161)"><path id="SvgjsPath1291" d="M 0 4Q 0 0 4 0L 136 0Q 140 0 140 4L 140 31Q 140 35 136 35L 4 35Q 0 35 0 31Z" stroke="rgba(50,50,50,1)" stroke-width="2" fill-opacity="1" fill="#ffffff"></path><g id="SvgjsG1292"><text id="SvgjsText1293" font-family="微软雅黑" text-anchor="middle" font-size="13px" width="120px" fill="#323232" font-weight="400" align="middle" anchor="middle" family="微软雅黑" size="13px" weight="400" font-style="" opacity="1" y="7.55" transform="rotate(0)"><tspan id="SvgjsTspan1294" dy="16" x="70"><tspan id="SvgjsTspan1295" style="text-decoration:;">Broker</tspan></tspan></text></g></g><g id="SvgjsG1296" transform="translate(293,236)"><path id="SvgjsPath1297" d="M 0 4Q 0 0 4 0L 136 0Q 140 0 140 4L 140 31Q 140 35 136 35L 4 35Q 0 35 0 31Z" stroke="rgba(50,50,50,1)" stroke-width="2" fill-opacity="1" fill="#e6ffcc"></path><g id="SvgjsG1298"><text id="SvgjsText1299" font-family="微软雅黑" text-anchor="middle" font-size="13px" width="120px" fill="#323232" font-weight="400" align="middle" anchor="middle" family="微软雅黑" size="13px" weight="400" font-style="" opacity="1" y="7.55" transform="rotate(0)"><tspan id="SvgjsTspan1300" dy="16" x="70"><tspan id="SvgjsTspan1301" style="text-decoration:;">Java Heap</tspan></tspan></text></g></g><g id="SvgjsG1302" transform="translate(293,311)"><path id="SvgjsPath1303" d="M 0 4Q 0 0 4 0L 136 0Q 140 0 140 4L 140 31Q 140 35 136 35L 4 35Q 0 35 0 31Z" stroke="rgba(50,50,50,1)" stroke-width="2" fill-opacity="1" fill="#e6ffcc"></path><g id="SvgjsG1304"><text id="SvgjsText1305" font-family="微软雅黑" text-anchor="middle" font-size="13px" width="120px" fill="#323232" font-weight="400" align="middle" anchor="middle" family="微软雅黑" size="13px" weight="400" font-style="" opacity="1" y="7.55" transform="rotate(0)"><tspan id="SvgjsTspan1306" dy="16" x="70"><tspan id="SvgjsTspan1307" style="text-decoration:;">Virtual Memory</tspan></tspan></text></g></g><g id="SvgjsG1308" transform="translate(293,386)"><path id="SvgjsPath1309" d="M 0 4Q 0 0 4 0L 136 0Q 140 0 140 4L 140 31Q 140 35 136 35L 4 35Q 0 35 0 31Z" stroke="rgba(50,50,50,1)" stroke-width="2" fill-opacity="1" fill="#ffffff"></path><g id="SvgjsG1310"><text id="SvgjsText1311" font-family="微软雅黑" text-anchor="middle" font-size="13px" width="120px" fill="#323232" font-weight="400" align="middle" anchor="middle" family="微软雅黑" size="13px" weight="400" font-style="" opacity="1" y="7.55" transform="rotate(0)"><tspan id="SvgjsTspan1312" dy="16" x="70"><tspan id="SvgjsTspan1313" style="text-decoration:;">DIsk</tspan></tspan></text></g></g><g id="SvgjsG1314"><path id="SvgjsPath1315" d="M331 121L331 141L331 141L331 161" stroke="#ff0000" stroke-width="2" fill="none" marker-end="url(#SvgjsMarker1316)"></path></g><g id="SvgjsG1318"><path id="SvgjsPath1319" d="M393 161L393 143.5L393 143.5L393 126" stroke="#00cc00" stroke-width="2" fill="none" marker-end="url(#SvgjsMarker1320)"></path></g><g id="SvgjsG1322" transform="translate(275,131)"><path id="SvgjsPath1323" d="M 0 0L 60 0L 60 20L 0 20Z" stroke="none" fill="none"></path><g id="SvgjsG1324"><text id="SvgjsText1325" font-family="微软雅黑" text-anchor="middle" font-size="13px" width="60px" fill="#323232" font-weight="400" align="middle" anchor="middle" family="微软雅黑" size="13px" weight="400" font-style="" opacity="1" y="0.050000000000000044" transform="rotate(0)"><tspan id="SvgjsTspan1326" dy="16" x="30"><tspan id="SvgjsTspan1327" style="text-decoration:;">send</tspan></tspan></text></g></g><g id="SvgjsG1328" transform="translate(387,131)"><path id="SvgjsPath1329" d="M 0 0L 60 0L 60 20L 0 20Z" stroke="none" fill="none"></path><g id="SvgjsG1330"><text id="SvgjsText1331" font-family="微软雅黑" text-anchor="middle" font-size="13px" width="60px" fill="#323232" font-weight="400" align="middle" anchor="middle" family="微软雅黑" size="13px" weight="400" font-style="" opacity="1" y="0.050000000000000044" transform="rotate(0)"><tspan id="SvgjsTspan1332" dy="16" x="30"><tspan id="SvgjsTspan1333" style="text-decoration:;">ACK</tspan></tspan></text></g></g><g id="SvgjsG1334"><path id="SvgjsPath1335" d="M332 196L332 216L332 216L332 236" stroke="#ff0000" stroke-width="2" fill="none" marker-end="url(#SvgjsMarker1336)"></path></g><g id="SvgjsG1338"><path id="SvgjsPath1339" d="M332 271L332 291L332 291L332 311" stroke="#ff0000" stroke-width="2" fill="none" marker-end="url(#SvgjsMarker1340)"></path></g><g id="SvgjsG1342"><path id="SvgjsPath1343" d="M393 236L393 218.5L393 218.5L393 201" stroke="#00cc00" stroke-width="2" fill="none" marker-end="url(#SvgjsMarker1344)"></path></g><g id="SvgjsG1346"><path id="SvgjsPath1347" d="M393 311L393 291L393 291L393 271" stroke="#00cc00" stroke-width="2" fill="none" marker-end="url(#SvgjsMarker1348)"></path></g><g id="SvgjsG1350"><path id="SvgjsPath1351" d="M363 346L363 366L412 366L412 386" stroke-dasharray="8,5" stroke="#323232" stroke-width="2" fill="none" marker-end="url(#SvgjsMarker1352)"></path></g><g id="SvgjsG1354" transform="translate(275,356)"><path id="SvgjsPath1355" d="M 0 0L 88 0L 88 20L 0 20Z" stroke="none" fill="none"></path><g id="SvgjsG1356"><text id="SvgjsText1357" font-family="微软雅黑" text-anchor="middle" font-size="12px" width="88px" fill="#323232" font-weight="400" align="middle" anchor="middle" family="微软雅黑" size="12px" weight="400" font-style="" opacity="1" y="-6.8" transform="rotate(0)"><tspan id="SvgjsTspan1358" dy="15" x="44"><tspan id="SvgjsTspan1359" style="text-decoration:;">async</tspan></tspan><tspan id="SvgjsTspan1360" dy="15" x="44"><tspan id="SvgjsTspan1361" style="text-decoration:;">multi-thread</tspan></tspan></text></g></g></svg>