<svg id="SvgjsSvg1356" width="612" height="227" xmlns="http://www.w3.org/2000/svg" version="1.1" xmlns:xlink="http://www.w3.org/1999/xlink" xmlns:svgjs="http://svgjs.com/svgjs"><defs id="SvgjsDefs1357"><marker id="SvgjsMarker1450" markerWidth="16" markerHeight="12" refX="16" refY="6" viewBox="0 0 16 12" orient="auto" markerUnits="userSpaceOnUse" stroke-dasharray="0,0"><path id="SvgjsPath1451" d="M0,2 L14,6 L0,11 L0,2" fill="#323232" stroke="#323232" stroke-width="2"></path></marker><marker id="SvgjsMarker1454" markerWidth="16" markerHeight="12" refX="16" refY="6" viewBox="0 0 16 12" orient="auto" markerUnits="userSpaceOnUse" stroke-dasharray="0,0"><path id="SvgjsPath1455" d="M0,2 L14,6 L0,11 L0,2" fill="#323232" stroke="#323232" stroke-width="2"></path></marker><marker id="SvgjsMarker1458" markerWidth="16" markerHeight="12" refX="16" refY="6" viewBox="0 0 16 12" orient="auto" markerUnits="userSpaceOnUse" stroke-dasharray="0,0"><path id="SvgjsPath1459" d="M0,2 L14,6 L0,11 L0,2" fill="#323232" stroke="#323232" stroke-width="2"></path></marker><marker id="SvgjsMarker1468" markerWidth="16" markerHeight="12" refX="16" refY="6" viewBox="0 0 16 12" orient="auto" markerUnits="userSpaceOnUse" stroke-dasharray="0,0"><path id="SvgjsPath1469" d="M0,2 L14,6 L0,11 L0,2" fill="#323232" stroke="#323232" stroke-width="2"></path></marker><marker id="SvgjsMarker1472" markerWidth="16" markerHeight="12" refX="16" refY="6" viewBox="0 0 16 12" orient="auto" markerUnits="userSpaceOnUse" stroke-dasharray="0,0"><path id="SvgjsPath1473" d="M0,2 L14,6 L0,11 L0,2" fill="#323232" stroke="#323232" stroke-width="2"></path></marker></defs><g id="SvgjsG1358" transform="translate(247,25)"><path id="SvgjsPath1359" d="M 0 4Q 0 0 4 0L 147 0Q 151 0 151 4L 151 173.5Q 151 177.5 147 177.5L 4 177.5Q 0 177.5 0 173.5Z" stroke="rgba(50,50,50,1)" stroke-width="2" fill-opacity="1" fill="#ffffff"></path><g id="SvgjsG1360"><text id="SvgjsText1361" font-family="微软雅黑" text-anchor="middle" font-size="13px" width="141px" fill="#323232" font-weight="400" align="middle" anchor="middle" family="微软雅黑" size="13px" weight="400" font-style="" opacity="1" y="3.728571428571427" transform="rotate(0)"><tspan id="SvgjsTspan1362" dy="16" x="75.5"><tspan id="SvgjsTspan1363" style="text-decoration:;font-weight: bold;">Topic</tspan></tspan></text></g></g><g id="SvgjsG1364" transform="translate(441,25)"><path id="SvgjsPath1365" d="M 0 4Q 0 0 4 0L 142 0Q 146 0 146 4L 146 173.5Q 146 177.5 142 177.5L 4 177.5Q 0 177.5 0 173.5Z" stroke="rgba(50,50,50,1)" stroke-width="2" fill-opacity="1" fill="#ffffff"></path><g id="SvgjsG1366"><text id="SvgjsText1367" font-family="微软雅黑" text-anchor="middle" font-size="13px" width="136px" fill="#323232" font-weight="400" align="middle" anchor="middle" family="微软雅黑" size="13px" weight="400" font-style="" opacity="1" y="3.728571428571427" transform="rotate(0)"><tspan id="SvgjsTspan1368" dy="16" x="73"><tspan id="SvgjsTspan1369" style="text-decoration:;font-weight: bold;">Consumer Group</tspan></tspan></text></g></g><g id="SvgjsG1370" transform="translate(25,102)"><path id="SvgjsPath1371" d="M 0 4Q 0 0 4 0L 91 0Q 95 0 95 4L 95 29Q 95 33 91 33L 4 33Q 0 33 0 29Z" stroke="rgba(50,50,50,1)" stroke-width="2" fill-opacity="1" fill="#ffffff"></path><g id="SvgjsG1372"><text id="SvgjsText1373" font-family="微软雅黑" text-anchor="middle" font-size="13px" width="75px" fill="#323232" font-weight="400" align="middle" anchor="middle" family="微软雅黑" size="13px" weight="400" font-style="" opacity="1" y="6.55" transform="rotate(0)"><tspan id="SvgjsTspan1374" dy="16" x="47.5"><tspan id="SvgjsTspan1375" style="text-decoration:;">Producer</tspan></tspan></text></g></g><g id="SvgjsG1376" transform="translate(262,63.5)"><path id="SvgjsPath1377" d="M 0 0L 30 0L 30 30L 0 30Z" stroke="rgba(50,50,50,1)" stroke-width="2" fill-opacity="1" fill="#ffffff"></path><g id="SvgjsG1378"><text id="SvgjsText1379" font-family="微软雅黑" text-anchor="middle" font-size="13px" width="10px" fill="#323232" font-weight="400" align="middle" anchor="middle" family="微软雅黑" size="13px" weight="400" font-style="" opacity="1" y="5.05" transform="rotate(0)"><tspan id="SvgjsTspan1380" dy="16" x="15"><tspan id="SvgjsTspan1381" style="text-decoration:;">1</tspan></tspan></text></g></g><g id="SvgjsG1382" transform="translate(292,63.5)"><path id="SvgjsPath1383" d="M 0 0L 30 0L 30 30L 0 30Z" stroke="rgba(50,50,50,1)" stroke-width="2" fill-opacity="1" fill="#ffffff"></path><g id="SvgjsG1384"><text id="SvgjsText1385" font-family="微软雅黑" text-anchor="middle" font-size="13px" width="10px" fill="#323232" font-weight="400" align="middle" anchor="middle" family="微软雅黑" size="13px" weight="400" font-style="" opacity="1" y="5.05" transform="rotate(0)"><tspan id="SvgjsTspan1386" dy="16" x="15"><tspan id="SvgjsTspan1387" style="text-decoration:;">2</tspan></tspan></text></g></g><g id="SvgjsG1388" transform="translate(322,63.5)"><path id="SvgjsPath1389" d="M 0 0L 30 0L 30 30L 0 30Z" stroke="rgba(50,50,50,1)" stroke-width="2" fill-opacity="1" fill="#ffffff"></path><g id="SvgjsG1390"><text id="SvgjsText1391" font-family="微软雅黑" text-anchor="middle" font-size="13px" width="10px" fill="#323232" font-weight="400" align="middle" anchor="middle" family="微软雅黑" size="13px" weight="400" font-style="" opacity="1" y="5.05" transform="rotate(0)"><tspan id="SvgjsTspan1392" dy="16" x="15"><tspan id="SvgjsTspan1393" style="text-decoration:;">3</tspan></tspan></text></g></g><g id="SvgjsG1394" transform="translate(352,63.5)"><path id="SvgjsPath1395" d="M 0 0L 30 0L 30 30L 0 30Z" stroke="rgba(50,50,50,1)" stroke-width="2" fill-opacity="1" fill="#ffffff"></path><g id="SvgjsG1396"><text id="SvgjsText1397" font-family="微软雅黑" text-anchor="middle" font-size="13px" width="10px" fill="#323232" font-weight="400" align="middle" anchor="middle" family="微软雅黑" size="13px" weight="400" font-style="" opacity="1" y="5.05" transform="rotate(0)"></text></g></g><g id="SvgjsG1398" transform="translate(262,103.5)"><path id="SvgjsPath1399" d="M 0 0L 30 0L 30 30L 0 30Z" stroke="rgba(50,50,50,1)" stroke-width="2" fill-opacity="1" fill="#ffffff"></path><g id="SvgjsG1400"><text id="SvgjsText1401" font-family="微软雅黑" text-anchor="middle" font-size="13px" width="10px" fill="#323232" font-weight="700" align="middle" anchor="middle" family="微软雅黑" size="13px" weight="700" font-style="" opacity="1" y="5.05" transform="rotate(0)"></text></g></g><g id="SvgjsG1402" transform="translate(292,103.5)"><path id="SvgjsPath1403" d="M 0 0L 30 0L 30 30L 0 30Z" stroke="rgba(50,50,50,1)" stroke-width="2" fill-opacity="1" fill="#ffffff"></path><g id="SvgjsG1404"><text id="SvgjsText1405" font-family="微软雅黑" text-anchor="middle" font-size="13px" width="10px" fill="#323232" font-weight="400" align="middle" anchor="middle" family="微软雅黑" size="13px" weight="400" font-style="" opacity="1" y="5.05" transform="rotate(0)"></text></g></g><g id="SvgjsG1406" transform="translate(322,103.5)"><path id="SvgjsPath1407" d="M 0 0L 30 0L 30 30L 0 30Z" stroke="rgba(50,50,50,1)" stroke-width="2" fill-opacity="1" fill="#ffffff"></path><g id="SvgjsG1408"><text id="SvgjsText1409" font-family="微软雅黑" text-anchor="middle" font-size="13px" width="10px" fill="#323232" font-weight="400" align="middle" anchor="middle" family="微软雅黑" size="13px" weight="400" font-style="" opacity="1" y="5.05" transform="rotate(0)"></text></g></g><g id="SvgjsG1410" transform="translate(352,103.5)"><path id="SvgjsPath1411" d="M 0 0L 30 0L 30 30L 0 30Z" stroke="rgba(50,50,50,1)" stroke-width="2" fill-opacity="1" fill="#ffffff"></path><g id="SvgjsG1412"><text id="SvgjsText1413" font-family="微软雅黑" text-anchor="middle" font-size="13px" width="10px" fill="#323232" font-weight="400" align="middle" anchor="middle" family="微软雅黑" size="13px" weight="400" font-style="" opacity="1" y="5.05" transform="rotate(0)"></text></g></g><g id="SvgjsG1414" transform="translate(262,144.5)"><path id="SvgjsPath1415" d="M 0 0L 30 0L 30 30L 0 30Z" stroke="rgba(50,50,50,1)" stroke-width="2" fill-opacity="1" fill="#ffffff"></path><g id="SvgjsG1416"><text id="SvgjsText1417" font-family="微软雅黑" text-anchor="middle" font-size="13px" width="10px" fill="#323232" font-weight="700" align="middle" anchor="middle" family="微软雅黑" size="13px" weight="700" font-style="" opacity="1" y="5.05" transform="rotate(0)"></text></g></g><g id="SvgjsG1418" transform="translate(292,144.5)"><path id="SvgjsPath1419" d="M 0 0L 30 0L 30 30L 0 30Z" stroke="rgba(50,50,50,1)" stroke-width="2" fill-opacity="1" fill="#ffffff"></path><g id="SvgjsG1420"><text id="SvgjsText1421" font-family="微软雅黑" text-anchor="middle" font-size="13px" width="10px" fill="#323232" font-weight="700" align="middle" anchor="middle" family="微软雅黑" size="13px" weight="700" font-style="" opacity="1" y="5.05" transform="rotate(0)"></text></g></g><g id="SvgjsG1422" transform="translate(322,144.5)"><path id="SvgjsPath1423" d="M 0 0L 30 0L 30 30L 0 30Z" stroke="rgba(50,50,50,1)" stroke-width="2" fill-opacity="1" fill="#ffffff"></path><g id="SvgjsG1424"><text id="SvgjsText1425" font-family="微软雅黑" text-anchor="middle" font-size="13px" width="10px" fill="#323232" font-weight="400" align="middle" anchor="middle" family="微软雅黑" size="13px" weight="400" font-style="" opacity="1" y="5.05" transform="rotate(0)"></text></g></g><g id="SvgjsG1426" transform="translate(352,144.5)"><path id="SvgjsPath1427" d="M 0 0L 30 0L 30 30L 0 30Z" stroke="rgba(50,50,50,1)" stroke-width="2" fill-opacity="1" fill="#ffffff"></path><g id="SvgjsG1428"><text id="SvgjsText1429" font-family="微软雅黑" text-anchor="middle" font-size="13px" width="10px" fill="#323232" font-weight="400" align="middle" anchor="middle" family="微软雅黑" size="13px" weight="400" font-style="" opacity="1" y="5.05" transform="rotate(0)"></text></g></g><g id="SvgjsG1430" transform="translate(463.75,62)"><path id="SvgjsPath1431" d="M 0 4Q 0 0 4 0L 96.5 0Q 100.5 0 100.5 4L 100.5 29Q 100.5 33 96.5 33L 4 33Q 0 33 0 29Z" stroke="rgba(50,50,50,1)" stroke-width="2" fill-opacity="1" fill="#ffffff"></path><g id="SvgjsG1432"><text id="SvgjsText1433" font-family="微软雅黑" text-anchor="middle" font-size="13px" width="81px" fill="#323232" font-weight="400" align="middle" anchor="middle" family="微软雅黑" size="13px" weight="400" font-style="" opacity="1" y="6.55" transform="rotate(0)"><tspan id="SvgjsTspan1434" dy="16" x="50.5"><tspan id="SvgjsTspan1435" style="text-decoration:;">Consumer 1</tspan></tspan></text></g></g><g id="SvgjsG1436" transform="translate(463.75,102)"><path id="SvgjsPath1437" d="M 0 4Q 0 0 4 0L 96.5 0Q 100.5 0 100.5 4L 100.5 29Q 100.5 33 96.5 33L 4 33Q 0 33 0 29Z" stroke="rgba(50,50,50,1)" stroke-width="2" fill-opacity="1" fill="#ffffff"></path><g id="SvgjsG1438"><text id="SvgjsText1439" font-family="微软雅黑" text-anchor="middle" font-size="13px" width="81px" fill="#323232" font-weight="400" align="middle" anchor="middle" family="微软雅黑" size="13px" weight="400" font-style="" opacity="1" y="6.55" transform="rotate(0)"><tspan id="SvgjsTspan1440" dy="16" x="50.5"><tspan id="SvgjsTspan1441" style="text-decoration:;">Consumer 2</tspan></tspan></text></g></g><g id="SvgjsG1442" transform="translate(463.75,143)"><path id="SvgjsPath1443" d="M 0 4Q 0 0 4 0L 96.5 0Q 100.5 0 100.5 4L 100.5 29Q 100.5 33 96.5 33L 4 33Q 0 33 0 29Z" stroke="rgba(50,50,50,1)" stroke-width="2" fill-opacity="1" fill="#ffffff"></path><g id="SvgjsG1444"><text id="SvgjsText1445" font-family="微软雅黑" text-anchor="middle" font-size="13px" width="81px" fill="#323232" font-weight="400" align="middle" anchor="middle" family="微软雅黑" size="13px" weight="400" font-style="" opacity="1" y="6.55" transform="rotate(0)"><tspan id="SvgjsTspan1446" dy="16" x="50.5"><tspan id="SvgjsTspan1447" style="text-decoration:;">Consumer 3</tspan></tspan></text></g></g><g id="SvgjsG1448"><path id="SvgjsPath1449" d="M382 78.5L463.75 78.5" stroke-dasharray="3,3" stroke="#323232" stroke-width="2" fill="none" marker-end="url(#SvgjsMarker1450)"></path></g><g id="SvgjsG1452"><path id="SvgjsPath1453" d="M382 118.5L463.75 118.5" stroke-dasharray="3,3" stroke="#323232" stroke-width="2" fill="none" marker-end="url(#SvgjsMarker1454)"></path></g><g id="SvgjsG1456"><path id="SvgjsPath1457" d="M382 159.5L463.75 159.5" stroke-dasharray="3,3" stroke="#323232" stroke-width="2" fill="none" marker-end="url(#SvgjsMarker1458)"></path></g><g id="SvgjsG1460" transform="translate(153,92.75)"><path id="SvgjsPath1461" d="M 0 25.75C 0 -8.583333333333334 53 -8.583333333333334 53 25.75C 53 60.083333333333336 0 60.083333333333336 0 25.75Z" stroke="rgba(50,50,50,1)" stroke-width="2" fill-opacity="1" fill="#ffffff"></path><g id="SvgjsG1462"><text id="SvgjsText1463" font-family="微软雅黑" text-anchor="middle" font-size="12px" width="33px" fill="#323232" font-weight="700" align="middle" anchor="middle" family="微软雅黑" size="12px" weight="700" font-style="" opacity="1" y="16.45" transform="rotate(0)"><tspan id="SvgjsTspan1464" dy="15" x="26.5"><tspan id="SvgjsTspan1465" style="text-decoration:;font-weight: normal;">HASH</tspan></tspan></text></g></g><g id="SvgjsG1466"><path id="SvgjsPath1467" d="M120 118.5L153 118.5" stroke="#323232" stroke-width="2" fill="none" marker-end="url(#SvgjsMarker1468)"></path></g><g id="SvgjsG1470"><path id="SvgjsPath1471" d="M206 118.5L262 78.5" stroke="#323232" stroke-width="2" fill="none" marker-end="url(#SvgjsMarker1472)"></path></g></svg>