<svg id="SvgjsSvg1006" width="799" height="296" xmlns="http://www.w3.org/2000/svg" version="1.1" xmlns:xlink="http://www.w3.org/1999/xlink" xmlns:svgjs="http://svgjs.com/svgjs"><defs id="SvgjsDefs1007"><marker id="SvgjsMarker1118" markerWidth="16" markerHeight="12" refX="16" refY="6" viewBox="0 0 16 12" orient="auto" markerUnits="userSpaceOnUse" stroke-dasharray="0,0"><path id="SvgjsPath1119" d="M0,2 L14,6 L0,11 L0,2" fill="#323232" stroke="#323232" stroke-width="2"></path></marker><marker id="SvgjsMarker1122" markerWidth="16" markerHeight="12" refX="16" refY="6" viewBox="0 0 16 12" orient="auto" markerUnits="userSpaceOnUse" stroke-dasharray="0,0"><path id="SvgjsPath1123" d="M0,2 L14,6 L0,11 L0,2" fill="#323232" stroke="#323232" stroke-width="2"></path></marker><marker id="SvgjsMarker1126" markerWidth="16" markerHeight="12" refX="16" refY="6" viewBox="0 0 16 12" orient="auto" markerUnits="userSpaceOnUse" stroke-dasharray="0,0"><path id="SvgjsPath1127" d="M0,2 L14,6 L0,11 L0,2" fill="#323232" stroke="#323232" stroke-width="2"></path></marker><marker id="SvgjsMarker1130" markerWidth="16" markerHeight="12" refX="16" refY="6" viewBox="0 0 16 12" orient="auto" markerUnits="userSpaceOnUse" stroke-dasharray="0,0"><path id="SvgjsPath1131" d="M0,2 L14,6 L0,11 L0,2" fill="#323232" stroke="#323232" stroke-width="2"></path></marker><marker id="SvgjsMarker1164" markerWidth="16" markerHeight="12" refX="16" refY="6" viewBox="0 0 16 12" orient="auto" markerUnits="userSpaceOnUse" stroke-dasharray="0,0"><path id="SvgjsPath1165" d="M0,2 L14,6 L0,11 L0,2" fill="#323232" stroke="#323232" stroke-width="2"></path></marker><marker id="SvgjsMarker1168" markerWidth="16" markerHeight="12" refX="16" refY="6" viewBox="0 0 16 12" orient="auto" markerUnits="userSpaceOnUse" stroke-dasharray="0,0"><path id="SvgjsPath1169" d="M0,2 L14,6 L0,11 L0,2" fill="#323232" stroke="#323232" stroke-width="2"></path></marker></defs><g id="SvgjsG1008" transform="translate(25,25)"><path id="SvgjsPath1009" d="M 0 4Q 0 0 4 0L 136 0Q 140 0 140 4L 140 242Q 140 246 136 246L 4 246Q 0 246 0 242Z" stroke="rgba(50,50,50,1)" stroke-width="2" fill-opacity="1" fill="#ffffff"></path><g id="SvgjsG1010"><text id="SvgjsText1011" font-family="微软雅黑" text-anchor="middle" font-size="13px" width="130px" fill="#323232" font-weight="700" align="middle" anchor="middle" family="微软雅黑" size="13px" weight="700" font-style="" opacity="1" y="8.62142857142857" transform="rotate(0)"><tspan id="SvgjsTspan1012" dy="16" x="70"><tspan id="SvgjsTspan1013" style="text-decoration:;">Producer Group</tspan></tspan></text></g></g><g id="SvgjsG1014" transform="translate(242,25)"><path id="SvgjsPath1015" d="M 0 4Q 0 0 4 0L 308 0Q 312 0 312 4L 312 242Q 312 246 308 246L 4 246Q 0 246 0 242Z" stroke="rgba(50,50,50,1)" stroke-width="2" fill-opacity="1" fill="#ffffff"></path><g id="SvgjsG1016"><text id="SvgjsText1017" font-family="微软雅黑" text-anchor="middle" font-size="13px" width="302px" fill="#323232" font-weight="700" align="middle" anchor="middle" family="微软雅黑" size="13px" weight="700" font-style="" opacity="1" y="8.62142857142857" transform="rotate(0)"><tspan id="SvgjsTspan1018" dy="16" x="156"><tspan id="SvgjsTspan1019" style="text-decoration:;">Topic</tspan></tspan></text></g></g><g id="SvgjsG1020" transform="translate(50.5,95.5)"><path id="SvgjsPath1021" d="M 0 4Q 0 0 4 0L 87 0Q 91 0 91 4L 91 31Q 91 35 87 35L 4 35Q 0 35 0 31Z" stroke="rgba(50,50,50,1)" stroke-width="2" fill-opacity="1" fill="#ffffff"></path><g id="SvgjsG1022"><text id="SvgjsText1023" font-family="微软雅黑" text-anchor="middle" font-size="13px" width="71px" fill="#323232" font-weight="400" align="middle" anchor="middle" family="微软雅黑" size="13px" weight="400" font-style="" opacity="1" y="7.55" transform="rotate(0)"><tspan id="SvgjsTspan1024" dy="16" x="45.5"><tspan id="SvgjsTspan1025" style="text-decoration:;">Producer1</tspan></tspan></text></g></g><g id="SvgjsG1026" transform="translate(50.5,189.5)"><path id="SvgjsPath1027" d="M 0 4Q 0 0 4 0L 87 0Q 91 0 91 4L 91 31Q 91 35 87 35L 4 35Q 0 35 0 31Z" stroke="rgba(50,50,50,1)" stroke-width="2" fill-opacity="1" fill="#ffffff"></path><g id="SvgjsG1028"><text id="SvgjsText1029" font-family="微软雅黑" text-anchor="middle" font-size="13px" width="71px" fill="#323232" font-weight="400" align="middle" anchor="middle" family="微软雅黑" size="13px" weight="400" font-style="" opacity="1" y="7.55" transform="rotate(0)"><tspan id="SvgjsTspan1030" dy="16" x="45.5"><tspan id="SvgjsTspan1031" style="text-decoration:;">Producer2</tspan></tspan></text></g></g><g id="SvgjsG1032" transform="translate(273,95.5)"><path id="SvgjsPath1033" d="M 0 0L 36 0L 36 35L 0 35Z" stroke="rgba(50,50,50,1)" stroke-width="2" fill-opacity="1" fill="#ffffff"></path><g id="SvgjsG1034"><text id="SvgjsText1035" font-family="微软雅黑" text-anchor="middle" font-size="13px" width="16px" fill="#323232" font-weight="400" align="middle" anchor="middle" family="微软雅黑" size="13px" weight="400" font-style="" opacity="1" y="7.55" transform="rotate(0)"><tspan id="SvgjsTspan1036" dy="16" x="18"><tspan id="SvgjsTspan1037" style="text-decoration:;">0</tspan></tspan></text></g></g><g id="SvgjsG1038" transform="translate(308,95.5)"><path id="SvgjsPath1039" d="M 0 0L 36 0L 36 35L 0 35Z" stroke="rgba(50,50,50,1)" stroke-width="2" fill-opacity="1" fill="#ffffff"></path><g id="SvgjsG1040"><text id="SvgjsText1041" font-family="微软雅黑" text-anchor="middle" font-size="13px" width="16px" fill="#323232" font-weight="400" align="middle" anchor="middle" family="微软雅黑" size="13px" weight="400" font-style="" opacity="1" y="7.55" transform="rotate(0)"><tspan id="SvgjsTspan1042" dy="16" x="18"><tspan id="SvgjsTspan1043" style="text-decoration:;">3</tspan></tspan></text></g></g><g id="SvgjsG1044" transform="translate(344,95.5)"><path id="SvgjsPath1045" d="M 0 0L 36 0L 36 35L 0 35Z" stroke="rgba(50,50,50,1)" stroke-width="2" fill-opacity="1" fill="#ffffff"></path><g id="SvgjsG1046"><text id="SvgjsText1047" font-family="微软雅黑" text-anchor="middle" font-size="13px" width="16px" fill="#323232" font-weight="400" align="middle" anchor="middle" family="微软雅黑" size="13px" weight="400" font-style="" opacity="1" y="7.55" transform="rotate(0)"><tspan id="SvgjsTspan1048" dy="16" x="18"><tspan id="SvgjsTspan1049" style="text-decoration:;">4</tspan></tspan></text></g></g><g id="SvgjsG1050" transform="translate(380,95.5)"><path id="SvgjsPath1051" d="M 0 0L 36 0L 36 35L 0 35Z" stroke="rgba(50,50,50,1)" stroke-width="2" fill-opacity="1" fill="#ffffff"></path><g id="SvgjsG1052"><text id="SvgjsText1053" font-family="微软雅黑" text-anchor="middle" font-size="13px" width="16px" fill="#323232" font-weight="400" align="middle" anchor="middle" family="微软雅黑" size="13px" weight="400" font-style="" opacity="1" y="7.55" transform="rotate(0)"><tspan id="SvgjsTspan1054" dy="16" x="18"><tspan id="SvgjsTspan1055" style="text-decoration:;">7</tspan></tspan></text></g></g><g id="SvgjsG1056" transform="translate(452,95.5)"><path id="SvgjsPath1057" d="M 0 0L 36 0L 36 35L 0 35Z" stroke="rgba(50,50,50,1)" stroke-width="2" fill-opacity="1" fill="#ffffff"></path><g id="SvgjsG1058"><text id="SvgjsText1059" font-family="微软雅黑" text-anchor="middle" font-size="13px" width="16px" fill="#323232" font-weight="400" align="middle" anchor="middle" family="微软雅黑" size="13px" weight="400" font-style="" opacity="1" y="7.55" transform="rotate(0)"><tspan id="SvgjsTspan1060" dy="16" x="18"><tspan id="SvgjsTspan1061" style="text-decoration:;">11</tspan></tspan></text></g></g><g id="SvgjsG1062" transform="translate(416,95.5)"><path id="SvgjsPath1063" d="M 0 0L 36 0L 36 35L 0 35Z" stroke="rgba(50,50,50,1)" stroke-width="2" fill-opacity="1" fill="#ffffff"></path><g id="SvgjsG1064"><text id="SvgjsText1065" font-family="微软雅黑" text-anchor="middle" font-size="13px" width="16px" fill="#323232" font-weight="400" align="middle" anchor="middle" family="微软雅黑" size="13px" weight="400" font-style="" opacity="1" y="7.55" transform="rotate(0)"><tspan id="SvgjsTspan1066" dy="16" x="18"><tspan id="SvgjsTspan1067" style="text-decoration:;">8</tspan></tspan></text></g></g><g id="SvgjsG1068" transform="translate(273,189.5)"><path id="SvgjsPath1069" d="M 0 0L 36 0L 36 35L 0 35Z" stroke="rgba(50,50,50,1)" stroke-width="2" fill-opacity="1" fill="#ffffff"></path><g id="SvgjsG1070"><text id="SvgjsText1071" font-family="微软雅黑" text-anchor="middle" font-size="13px" width="16px" fill="#323232" font-weight="400" align="middle" anchor="middle" family="微软雅黑" size="13px" weight="400" font-style="" opacity="1" y="7.55" transform="rotate(0)"><tspan id="SvgjsTspan1072" dy="16" x="18"><tspan id="SvgjsTspan1073" style="text-decoration:;">1</tspan></tspan></text></g></g><g id="SvgjsG1074" transform="translate(308,189.5)"><path id="SvgjsPath1075" d="M 0 0L 36 0L 36 35L 0 35Z" stroke="rgba(50,50,50,1)" stroke-width="2" fill-opacity="1" fill="#ffffff"></path><g id="SvgjsG1076"><text id="SvgjsText1077" font-family="微软雅黑" text-anchor="middle" font-size="13px" width="16px" fill="#323232" font-weight="400" align="middle" anchor="middle" family="微软雅黑" size="13px" weight="400" font-style="" opacity="1" y="7.55" transform="rotate(0)"><tspan id="SvgjsTspan1078" dy="16" x="18"><tspan id="SvgjsTspan1079" style="text-decoration:;">2</tspan></tspan></text></g></g><g id="SvgjsG1080" transform="translate(344,189.5)"><path id="SvgjsPath1081" d="M 0 0L 36 0L 36 35L 0 35Z" stroke="rgba(50,50,50,1)" stroke-width="2" fill-opacity="1" fill="#ffffff"></path><g id="SvgjsG1082"><text id="SvgjsText1083" font-family="微软雅黑" text-anchor="middle" font-size="13px" width="16px" fill="#323232" font-weight="400" align="middle" anchor="middle" family="微软雅黑" size="13px" weight="400" font-style="" opacity="1" y="7.55" transform="rotate(0)"><tspan id="SvgjsTspan1084" dy="16" x="18"><tspan id="SvgjsTspan1085" style="text-decoration:;">5</tspan></tspan></text></g></g><g id="SvgjsG1086" transform="translate(380,189.5)"><path id="SvgjsPath1087" d="M 0 0L 36 0L 36 35L 0 35Z" stroke="rgba(50,50,50,1)" stroke-width="2" fill-opacity="1" fill="#ffffff"></path><g id="SvgjsG1088"><text id="SvgjsText1089" font-family="微软雅黑" text-anchor="middle" font-size="13px" width="16px" fill="#323232" font-weight="400" align="middle" anchor="middle" family="微软雅黑" size="13px" weight="400" font-style="" opacity="1" y="7.55" transform="rotate(0)"><tspan id="SvgjsTspan1090" dy="16" x="18"><tspan id="SvgjsTspan1091" style="text-decoration:;">6</tspan></tspan></text></g></g><g id="SvgjsG1092" transform="translate(416,189.5)"><path id="SvgjsPath1093" d="M 0 0L 36 0L 36 35L 0 35Z" stroke="rgba(50,50,50,1)" stroke-width="2" fill-opacity="1" fill="#ffffff"></path><g id="SvgjsG1094"><text id="SvgjsText1095" font-family="微软雅黑" text-anchor="middle" font-size="13px" width="16px" fill="#323232" font-weight="400" align="middle" anchor="middle" family="微软雅黑" size="13px" weight="400" font-style="" opacity="1" y="7.55" transform="rotate(0)"><tspan id="SvgjsTspan1096" dy="16" x="18"><tspan id="SvgjsTspan1097" style="text-decoration:;">9</tspan></tspan></text></g></g><g id="SvgjsG1098" transform="translate(452,189.5)"><path id="SvgjsPath1099" d="M 0 0L 36 0L 36 35L 0 35Z" stroke="rgba(50,50,50,1)" stroke-width="2" fill-opacity="1" fill="#ffffff"></path><g id="SvgjsG1100"><text id="SvgjsText1101" font-family="微软雅黑" text-anchor="middle" font-size="13px" width="16px" fill="#323232" font-weight="400" align="middle" anchor="middle" family="微软雅黑" size="13px" weight="400" font-style="" opacity="1" y="7.55" transform="rotate(0)"><tspan id="SvgjsTspan1102" dy="16" x="18"><tspan id="SvgjsTspan1103" style="text-decoration:;">10</tspan></tspan></text></g></g><g id="SvgjsG1104" transform="translate(488,95.5)"><path id="SvgjsPath1105" d="M 0 0L 36 0L 36 35L 0 35Z" stroke="rgba(50,50,50,1)" stroke-width="2" fill-opacity="1" fill="#ffffff"></path><g id="SvgjsG1106"><text id="SvgjsText1107" font-family="微软雅黑" text-anchor="middle" font-size="13px" width="16px" fill="#323232" font-weight="400" align="middle" anchor="middle" family="微软雅黑" size="13px" weight="400" font-style="" opacity="1" y="7.55" transform="rotate(0)"><tspan id="SvgjsTspan1108" dy="16" x="18"><tspan id="SvgjsTspan1109" style="text-decoration:;">··</tspan></tspan></text></g></g><g id="SvgjsG1110" transform="translate(488,189.5)"><path id="SvgjsPath1111" d="M 0 0L 36 0L 36 35L 0 35Z" stroke="rgba(50,50,50,1)" stroke-width="2" fill-opacity="1" fill="#ffffff"></path><g id="SvgjsG1112"><text id="SvgjsText1113" font-family="微软雅黑" text-anchor="middle" font-size="13px" width="16px" fill="#323232" font-weight="400" align="middle" anchor="middle" family="微软雅黑" size="13px" weight="400" font-style="" opacity="1" y="7.55" transform="rotate(0)"><tspan id="SvgjsTspan1114" dy="16" x="18"><tspan id="SvgjsTspan1115" style="text-decoration:;">··</tspan></tspan></text></g></g><g id="SvgjsG1116"><path id="SvgjsPath1117" d="M139.5 112.5L273 113" stroke="#323232" stroke-width="2" fill="none" marker-end="url(#SvgjsMarker1118)"></path></g><g id="SvgjsG1120"><path id="SvgjsPath1121" d="M139.5 112.5L273 207" stroke="#323232" stroke-width="2" fill="none" marker-end="url(#SvgjsMarker1122)"></path></g><g id="SvgjsG1124"><path id="SvgjsPath1125" d="M139.5 206.5L273 113" stroke="#323232" stroke-width="2" fill="none" marker-end="url(#SvgjsMarker1126)"></path></g><g id="SvgjsG1128"><path id="SvgjsPath1129" d="M139.5 206.5L273 207" stroke="#323232" stroke-width="2" fill="none" marker-end="url(#SvgjsMarker1130)"></path></g><g id="SvgjsG1132" transform="translate(173,75.5)"><path id="SvgjsPath1133" d="M 0 0L 61 0L 61 23L 0 23Z" stroke="none" fill="none"></path><g id="SvgjsG1134"><text id="SvgjsText1135" font-family="微软雅黑" text-anchor="middle" font-size="13px" width="61px" fill="#323232" font-weight="400" align="middle" anchor="middle" family="微软雅黑" size="13px" weight="400" font-style="" opacity="1" y="1.55" transform="rotate(0)"><tspan id="SvgjsTspan1136" dy="16" x="30.5"><tspan id="SvgjsTspan1137" style="text-decoration:;">生产</tspan></tspan></text></g></g><g id="SvgjsG1138" transform="translate(632,25)"><path id="SvgjsPath1139" d="M 0 4Q 0 0 4 0L 138 0Q 142 0 142 4L 142 242Q 142 246 138 246L 4 246Q 0 246 0 242Z" stroke="rgba(50,50,50,1)" stroke-width="2" fill-opacity="1" fill="#ffffff"></path><g id="SvgjsG1140"><text id="SvgjsText1141" font-family="微软雅黑" text-anchor="middle" font-size="13px" width="132px" fill="#323232" font-weight="700" align="middle" anchor="middle" family="微软雅黑" size="13px" weight="700" font-style="" opacity="1" y="8.62142857142857" transform="rotate(0)"><tspan id="SvgjsTspan1142" dy="16" x="71"><tspan id="SvgjsTspan1143" style="text-decoration:;">Consumer Group</tspan></tspan></text></g></g><g id="SvgjsG1144" transform="translate(657.5,75.5)"><path id="SvgjsPath1145" d="M 0 4Q 0 0 4 0L 87 0Q 91 0 91 4L 91 31Q 91 35 87 35L 4 35Q 0 35 0 31Z" stroke="rgba(50,50,50,1)" stroke-width="2" fill-opacity="1" fill="#ffffff"></path><g id="SvgjsG1146"><text id="SvgjsText1147" font-family="微软雅黑" text-anchor="middle" font-size="13px" width="71px" fill="#323232" font-weight="400" align="middle" anchor="middle" family="微软雅黑" size="13px" weight="400" font-style="" opacity="1" y="7.55" transform="rotate(0)"><tspan id="SvgjsTspan1148" dy="16" x="45.5"><tspan id="SvgjsTspan1149" style="text-decoration:;">Consumer1</tspan></tspan></text></g></g><g id="SvgjsG1150" transform="translate(657.5,148)"><path id="SvgjsPath1151" d="M 0 4Q 0 0 4 0L 87 0Q 91 0 91 4L 91 31Q 91 35 87 35L 4 35Q 0 35 0 31Z" stroke="rgba(50,50,50,1)" stroke-width="2" fill-opacity="1" fill="#ffffff"></path><g id="SvgjsG1152"><text id="SvgjsText1153" font-family="微软雅黑" text-anchor="middle" font-size="13px" width="71px" fill="#323232" font-weight="400" align="middle" anchor="middle" family="微软雅黑" size="13px" weight="400" font-style="" opacity="1" y="7.55" transform="rotate(0)"><tspan id="SvgjsTspan1154" dy="16" x="45.5"><tspan id="SvgjsTspan1155" style="text-decoration:;">Consumer2</tspan></tspan></text></g></g><g id="SvgjsG1156" transform="translate(657.5,216)"><path id="SvgjsPath1157" d="M 0 4Q 0 0 4 0L 87 0Q 91 0 91 4L 91 31Q 91 35 87 35L 4 35Q 0 35 0 31Z" stroke="rgba(50,50,50,1)" stroke-width="2" fill-opacity="1" fill="#ffffff"></path><g id="SvgjsG1158"><text id="SvgjsText1159" font-family="微软雅黑" text-anchor="middle" font-size="13px" width="71px" fill="#323232" font-weight="400" align="middle" anchor="middle" family="微软雅黑" size="13px" weight="400" font-style="" opacity="1" y="7.55" transform="rotate(0)"><tspan id="SvgjsTspan1160" dy="16" x="45.5"><tspan id="SvgjsTspan1161" style="text-decoration:;">Consumer3</tspan></tspan></text></g></g><g id="SvgjsG1162"><path id="SvgjsPath1163" d="M703 75.5L703 64.5L326 64.5L326 95.5" stroke="#323232" stroke-width="2" fill="none" marker-end="url(#SvgjsMarker1164)"></path></g><g id="SvgjsG1166"><path id="SvgjsPath1167" d="M657.5 165.5L362 165.5L362 189.5" stroke="#323232" stroke-width="2" fill="none" marker-end="url(#SvgjsMarker1168)"></path></g><g id="SvgjsG1170" transform="translate(562,72.5)"><path id="SvgjsPath1171" d="M 0 0L 61 0L 61 23L 0 23Z" stroke="none" fill="none"></path><g id="SvgjsG1172"><text id="SvgjsText1173" font-family="微软雅黑" text-anchor="middle" font-size="13px" width="61px" fill="#323232" font-weight="400" align="middle" anchor="middle" family="微软雅黑" size="13px" weight="400" font-style="" opacity="1" y="1.55" transform="rotate(0)"><tspan id="SvgjsTspan1174" dy="16" x="30.5"><tspan id="SvgjsTspan1175" style="text-decoration:;">消费</tspan></tspan></text></g></g><g id="SvgjsG1176" transform="translate(173,222)"><path id="SvgjsPath1177" d="M 0 0L 61 0L 61 23L 0 23Z" stroke="none" fill="none"></path><g id="SvgjsG1178"><text id="SvgjsText1179" font-family="微软雅黑" text-anchor="middle" font-size="13px" width="61px" fill="#323232" font-weight="400" align="middle" anchor="middle" family="微软雅黑" size="13px" weight="400" font-style="" opacity="1" y="1.55" transform="rotate(0)"><tspan id="SvgjsTspan1180" dy="16" x="30.5"><tspan id="SvgjsTspan1181" style="text-decoration:;">生产</tspan></tspan></text></g></g><g id="SvgjsG1182" transform="translate(562,183)"><path id="SvgjsPath1183" d="M 0 0L 61 0L 61 23L 0 23Z" stroke="none" fill="none"></path><g id="SvgjsG1184"><text id="SvgjsText1185" font-family="微软雅黑" text-anchor="middle" font-size="13px" width="61px" fill="#323232" font-weight="400" align="middle" anchor="middle" family="微软雅黑" size="13px" weight="400" font-style="" opacity="1" y="1.55" transform="rotate(0)"><tspan id="SvgjsTspan1186" dy="16" x="30.5"><tspan id="SvgjsTspan1187" style="text-decoration:;">消费</tspan></tspan></text></g></g><g id="SvgjsG1188" transform="translate(326,68.5)"><path id="SvgjsPath1189" d="M 0 0L 61 0L 61 23L 0 23Z" stroke="none" fill="none"></path><g id="SvgjsG1190"><text id="SvgjsText1191" font-family="微软雅黑" text-anchor="middle" font-size="13px" width="61px" fill="#323232" font-weight="400" align="middle" anchor="middle" family="微软雅黑" size="13px" weight="400" font-style="" opacity="1" y="1.55" transform="rotate(0)"><tspan id="SvgjsTspan1192" dy="16" x="30.5"><tspan id="SvgjsTspan1193" style="text-decoration:;">offset</tspan></tspan></text></g></g><g id="SvgjsG1194" transform="translate(363,166.5)"><path id="SvgjsPath1195" d="M 0 0L 61 0L 61 23L 0 23Z" stroke="none" fill="none"></path><g id="SvgjsG1196"><text id="SvgjsText1197" font-family="微软雅黑" text-anchor="middle" font-size="13px" width="61px" fill="#323232" font-weight="400" align="middle" anchor="middle" family="微软雅黑" size="13px" weight="400" font-style="" opacity="1" y="1.55" transform="rotate(0)"><tspan id="SvgjsTspan1198" dy="16" x="30.5"><tspan id="SvgjsTspan1199" style="text-decoration:;">offset</tspan></tspan></text></g></g></svg>