<svg id="SvgjsSvg1274" width="929" height="371.75" xmlns="http://www.w3.org/2000/svg" version="1.1" xmlns:xlink="http://www.w3.org/1999/xlink" xmlns:svgjs="http://svgjs.com/svgjs"><defs id="SvgjsDefs1275"><marker id="SvgjsMarker1344" markerWidth="16" markerHeight="12" refX="16" refY="6" viewBox="0 0 16 12" orient="auto" markerUnits="userSpaceOnUse" stroke-dasharray="0,0"><path id="SvgjsPath1345" d="M0,2 L14,6 L0,11 L0,2" fill="#323232" stroke="#323232" stroke-width="2"></path></marker><marker id="SvgjsMarker1410" markerWidth="16" markerHeight="12" refX="16" refY="6" viewBox="0 0 16 12" orient="auto" markerUnits="userSpaceOnUse" stroke-dasharray="0,0"><path id="SvgjsPath1411" d="M0,2 L14,6 L0,11 L0,2" fill="#323232" stroke="#323232" stroke-width="2"></path></marker><marker id="SvgjsMarker1414" markerWidth="16" markerHeight="12" refX="16" refY="6" viewBox="0 0 16 12" orient="auto" markerUnits="userSpaceOnUse" stroke-dasharray="0,0"><path id="SvgjsPath1415" d="M0,2 L14,6 L0,11 L0,2" fill="#323232" stroke="#323232" stroke-width="2"></path></marker><marker id="SvgjsMarker1452" markerWidth="16" markerHeight="12" refX="16" refY="6" viewBox="0 0 16 12" orient="auto" markerUnits="userSpaceOnUse" stroke-dasharray="0,0"><path id="SvgjsPath1453" d="M0,2 L14,6 L0,11 L0,2" fill="#323232" stroke="#323232" stroke-width="2"></path></marker><marker id="SvgjsMarker1456" markerWidth="16" markerHeight="12" refX="16" refY="6" viewBox="0 0 16 12" orient="auto" markerUnits="userSpaceOnUse" stroke-dasharray="0,0"><path id="SvgjsPath1457" d="M0,2 L14,6 L0,11 L0,2" fill="#323232" stroke="#323232" stroke-width="2"></path></marker><marker id="SvgjsMarker1466" markerWidth="16" markerHeight="12" refX="16" refY="6" viewBox="0 0 16 12" orient="auto" markerUnits="userSpaceOnUse" stroke-dasharray="0,0"><path id="SvgjsPath1467" d="M0,2 L14,6 L0,11 L0,2" fill="#323232" stroke="#323232" stroke-width="2"></path></marker><marker id="SvgjsMarker1470" markerWidth="16" markerHeight="12" refX="16" refY="6" viewBox="0 0 16 12" orient="auto" markerUnits="userSpaceOnUse" stroke-dasharray="0,0"><path id="SvgjsPath1471" d="M0,2 L14,6 L0,11 L0,2" fill="#323232" stroke="#323232" stroke-width="2"></path></marker><marker id="SvgjsMarker1482" markerWidth="16" markerHeight="12" refX="16" refY="6" viewBox="0 0 16 12" orient="auto" markerUnits="userSpaceOnUse" stroke-dasharray="0,0"><path id="SvgjsPath1483" d="M0,2 L14,6 L0,11 L0,2" fill="#323232" stroke="#323232" stroke-width="2"></path></marker><marker id="SvgjsMarker1486" markerWidth="16" markerHeight="12" refX="16" refY="6" viewBox="0 0 16 12" orient="auto" markerUnits="userSpaceOnUse" stroke-dasharray="0,0"><path id="SvgjsPath1487" d="M0,2 L14,6 L0,11 L0,2" fill="#323232" stroke="#323232" stroke-width="2"></path></marker><marker id="SvgjsMarker1526" markerWidth="16" markerHeight="12" refX="16" refY="6" viewBox="0 0 16 12" orient="auto" markerUnits="userSpaceOnUse" stroke-dasharray="0,0"><path id="SvgjsPath1527" d="M0,2 L14,6 L0,11 L0,2" fill="#323232" stroke="#323232" stroke-width="2"></path></marker><marker id="SvgjsMarker1540" markerWidth="16" markerHeight="12" refX="16" refY="6" viewBox="0 0 16 12" orient="auto" markerUnits="userSpaceOnUse" stroke-dasharray="0,0"><path id="SvgjsPath1541" d="M0,2 L14,6 L0,11 L0,2" fill="#323232" stroke="#323232" stroke-width="2"></path></marker></defs><g id="SvgjsG1276" transform="translate(228,25.75)"><path id="SvgjsPath1277" d="M 0 4Q 0 0 4 0L 77 0Q 81 0 81 4L 81 317Q 81 321 77 321L 4 321Q 0 321 0 317Z" stroke="rgba(50,50,50,1)" stroke-width="2" fill-opacity="1" fill="#ffffff"></path><g id="SvgjsG1278"><text id="SvgjsText1279" font-family="微软雅黑" text-anchor="middle" font-size="12px" width="71px" fill="#323232" font-weight="700" align="middle" anchor="middle" family="微软雅黑" size="12px" weight="700" font-style="" opacity="1" y="14.628571428571426" transform="rotate(0)"><tspan id="SvgjsTspan1280" dy="15" x="40.5"><tspan id="SvgjsTspan1281" style="text-decoration:;">CommitLog</tspan></tspan></text></g></g><g id="SvgjsG1282" transform="translate(51,25.75)"><path id="SvgjsPath1283" d="M 0 4Q 0 0 4 0L 140 0Q 144 0 144 4L 144 136Q 144 140 140 140L 4 140Q 0 140 0 136Z" stroke-dasharray="10,6" stroke="rgba(50,50,50,1)" stroke-width="2" fill-opacity="1" fill="#ffffff"></path><g id="SvgjsG1284"><text id="SvgjsText1285" font-family="微软雅黑" text-anchor="middle" font-size="13px" width="124px" fill="#323232" font-weight="400" align="middle" anchor="middle" family="微软雅黑" size="13px" weight="400" font-style="" opacity="1" y="60.05" transform="rotate(0)"></text></g></g><g id="SvgjsG1286" transform="translate(65,75.75)"><path id="SvgjsPath1287" d="M 0 4Q 0 0 4 0L 41 0Q 45 0 45 4L 45 23Q 45 27 41 27L 4 27Q 0 27 0 23Z" stroke="rgba(50,50,50,1)" stroke-width="2" fill-opacity="1" fill="#ff0000"></path><g id="SvgjsG1288"><text id="SvgjsText1289" font-family="微软雅黑" text-anchor="middle" font-size="13px" width="25px" fill="#323232" font-weight="400" align="middle" anchor="middle" family="微软雅黑" size="13px" weight="400" font-style="" opacity="1" y="3.55" transform="rotate(0)"></text></g></g><g id="SvgjsG1290" transform="translate(65,119.75)"><path id="SvgjsPath1291" d="M 0 4Q 0 0 4 0L 41 0Q 45 0 45 4L 45 23Q 45 27 41 27L 4 27Q 0 27 0 23Z" stroke-dasharray="10,6" stroke="rgba(50,50,50,1)" stroke-width="2" fill-opacity="1" fill="#ffffff"></path><g id="SvgjsG1292"><text id="SvgjsText1293" font-family="微软雅黑" text-anchor="middle" font-size="13px" width="25px" fill="#323232" font-weight="400" align="middle" anchor="middle" family="微软雅黑" size="13px" weight="400" font-style="" opacity="1" y="3.55" transform="rotate(0)"></text></g></g><g id="SvgjsG1294" transform="translate(58.5,28.75)"><path id="SvgjsPath1295" d="M 0 0L 129 0L 129 39L 0 39Z" stroke="none" fill="none"></path><g id="SvgjsG1296"><text id="SvgjsText1297" font-family="微软雅黑" text-anchor="middle" font-size="13px" width="129px" fill="#323232" font-weight="700" align="middle" anchor="middle" family="微软雅黑" size="13px" weight="700" font-style="" opacity="1" y="9.55" transform="rotate(0)"><tspan id="SvgjsTspan1298" dy="16" x="64.5"><tspan id="SvgjsTspan1299" style="text-decoration:;">CommitLog中的消息</tspan></tspan></text></g></g><g id="SvgjsG1300" transform="translate(117,78.75)"><path id="SvgjsPath1301" d="M 0 0L 65 0L 65 21L 0 21Z" stroke="none" fill="none"></path><g id="SvgjsG1302"><text id="SvgjsText1303" font-family="微软雅黑" text-anchor="middle" font-size="13px" width="65px" fill="#323232" font-weight="400" align="middle" anchor="middle" family="微软雅黑" size="13px" weight="400" font-style="" opacity="1" y="0.55" transform="rotate(0)"><tspan id="SvgjsTspan1304" dy="16" x="32.5"><tspan id="SvgjsTspan1305" style="text-decoration:;">已写入</tspan></tspan></text></g></g><g id="SvgjsG1306" transform="translate(117,122.75)"><path id="SvgjsPath1307" d="M 0 0L 65 0L 65 21L 0 21Z" stroke="none" fill="none"></path><g id="SvgjsG1308"><text id="SvgjsText1309" font-family="微软雅黑" text-anchor="middle" font-size="13px" width="65px" fill="#323232" font-weight="400" align="middle" anchor="middle" family="微软雅黑" size="13px" weight="400" font-style="" opacity="1" y="0.55" transform="rotate(0)"><tspan id="SvgjsTspan1310" dy="16" x="32.5"><tspan id="SvgjsTspan1311" style="text-decoration:;">等待写入</tspan></tspan></text></g></g><g id="SvgjsG1312" transform="translate(246,69.75)"><path id="SvgjsPath1313" d="M 0 4Q 0 0 4 0L 41 0Q 45 0 45 4L 45 23Q 45 27 41 27L 4 27Q 0 27 0 23Z" stroke="rgba(50,50,50,1)" stroke-width="2" fill-opacity="1" fill="#ff0000"></path><g id="SvgjsG1314"><text id="SvgjsText1315" font-family="微软雅黑" text-anchor="middle" font-size="13px" width="25px" fill="#323232" font-weight="400" align="middle" anchor="middle" family="微软雅黑" size="13px" weight="400" font-style="" opacity="1" y="3.55" transform="rotate(0)"></text></g></g><g id="SvgjsG1316" transform="translate(246,116.75)"><path id="SvgjsPath1317" d="M 0 4Q 0 0 4 0L 41 0Q 45 0 45 4L 45 23Q 45 27 41 27L 4 27Q 0 27 0 23Z" stroke="rgba(50,50,50,1)" stroke-width="2" fill-opacity="1" fill="#ff0000"></path><g id="SvgjsG1318"><text id="SvgjsText1319" font-family="微软雅黑" text-anchor="middle" font-size="13px" width="25px" fill="#323232" font-weight="400" align="middle" anchor="middle" family="微软雅黑" size="13px" weight="400" font-style="" opacity="1" y="3.55" transform="rotate(0)"></text></g></g><g id="SvgjsG1320" transform="translate(246,163.75)"><path id="SvgjsPath1321" d="M 0 4Q 0 0 4 0L 41 0Q 45 0 45 4L 45 23Q 45 27 41 27L 4 27Q 0 27 0 23Z" stroke="rgba(50,50,50,1)" stroke-width="2" fill-opacity="1" fill="#ff0000"></path><g id="SvgjsG1322"><text id="SvgjsText1323" font-family="微软雅黑" text-anchor="middle" font-size="13px" width="25px" fill="#323232" font-weight="400" align="middle" anchor="middle" family="微软雅黑" size="13px" weight="400" font-style="" opacity="1" y="3.55" transform="rotate(0)"></text></g></g><g id="SvgjsG1324" transform="translate(246,210.75)"><path id="SvgjsPath1325" d="M 0 4Q 0 0 4 0L 41 0Q 45 0 45 4L 45 23Q 45 27 41 27L 4 27Q 0 27 0 23Z" stroke="rgba(50,50,50,1)" stroke-width="2" fill-opacity="1" fill="#ff0000"></path><g id="SvgjsG1326"><text id="SvgjsText1327" font-family="微软雅黑" text-anchor="middle" font-size="13px" width="25px" fill="#323232" font-weight="400" align="middle" anchor="middle" family="微软雅黑" size="13px" weight="400" font-style="" opacity="1" y="3.55" transform="rotate(0)"></text></g></g><g id="SvgjsG1328" transform="translate(246,257.75)"><path id="SvgjsPath1329" d="M 0 4Q 0 0 4 0L 41 0Q 45 0 45 4L 45 23Q 45 27 41 27L 4 27Q 0 27 0 23Z" stroke="rgba(50,50,50,1)" stroke-width="2" fill-opacity="1" fill="#ff0000"></path><g id="SvgjsG1330"><text id="SvgjsText1331" font-family="微软雅黑" text-anchor="middle" font-size="13px" width="25px" fill="#323232" font-weight="400" align="middle" anchor="middle" family="微软雅黑" size="13px" weight="400" font-style="" opacity="1" y="3.55" transform="rotate(0)"></text></g></g><g id="SvgjsG1332" transform="translate(246,304.75)"><path id="SvgjsPath1333" d="M 0 4Q 0 0 4 0L 41 0Q 45 0 45 4L 45 23Q 45 27 41 27L 4 27Q 0 27 0 23Z" stroke-dasharray="10,6" stroke="rgba(50,50,50,1)" stroke-width="2" fill-opacity="1" fill="#ffffff"></path><g id="SvgjsG1334"><text id="SvgjsText1335" font-family="微软雅黑" text-anchor="middle" font-size="13px" width="25px" fill="#323232" font-weight="400" align="middle" anchor="middle" family="微软雅黑" size="13px" weight="400" font-style="" opacity="1" y="3.55" transform="rotate(0)"></text></g></g><g id="SvgjsG1336" transform="translate(79.5,203.75)"><path id="SvgjsPath1337" d="M 0 4Q 0 0 4 0L 83 0Q 87 0 87 4L 87 33Q 87 37 83 37L 4 37Q 0 37 0 33Z" stroke="rgba(50,50,50,1)" stroke-width="2" fill-opacity="1" fill="#ffffff"></path><g id="SvgjsG1338"><text id="SvgjsText1339" font-family="微软雅黑" text-anchor="middle" font-size="13px" width="67px" fill="#323232" font-weight="700" align="middle" anchor="middle" family="微软雅黑" size="13px" weight="700" font-style="" opacity="1" y="8.55" transform="rotate(0)"><tspan id="SvgjsTspan1340" dy="16" x="43.5"><tspan id="SvgjsTspan1341" style="text-decoration:;">Producer</tspan></tspan></text></g></g><g id="SvgjsG1342"><path id="SvgjsPath1343" d="M166.5 222.25C 216.35779778530136 222.25 196.14220221469864 318.25 246 318.25" stroke="#323232" stroke-width="2" fill="none" marker-end="url(#SvgjsMarker1344)"></path></g><g id="SvgjsG1346" transform="translate(25,237.75)"><path id="SvgjsPath1347" d="M 0 0L 196 0L 196 40L 0 40Z" stroke="none" fill="none"></path><g id="SvgjsG1348"><text id="SvgjsText1349" font-family="微软雅黑" text-anchor="middle" font-size="12px" width="196px" fill="#323232" font-weight="400" align="middle" anchor="middle" family="微软雅黑" size="12px" weight="400" font-style="" opacity="1" y="10.7" transform="rotate(0)"><tspan id="SvgjsTspan1350" dy="15" x="98"><tspan id="SvgjsTspan1351" style="text-decoration:;font-size: inherit;">Topic、QueueId、Message</tspan></tspan></text></g></g><g id="SvgjsG1352" transform="translate(395,75.75)"><path id="SvgjsPath1353" d="M 0 4Q 0 0 4 0L 233 0Q 237 0 237 4L 237 57Q 237 61 233 61L 4 61Q 0 61 0 57Z" stroke="rgba(50,50,50,1)" stroke-width="2" fill-opacity="1" fill="#ffffff"></path><g id="SvgjsG1354"><text id="SvgjsText1355" font-family="微软雅黑" text-anchor="middle" font-size="13px" width="217px" fill="#323232" font-weight="400" align="middle" anchor="middle" family="微软雅黑" size="13px" weight="400" font-style="" opacity="1" y="20.55" transform="rotate(0)"></text></g></g><g id="SvgjsG1356" transform="matrix(6.123233995736766e-17,1,-1,6.123233995736766e-17,435,83.75)"><path id="SvgjsPath1357" d="M 0 4Q 0 0 4 0L 41 0Q 45 0 45 4L 45 23Q 45 27 41 27L 4 27Q 0 27 0 23Z" stroke="rgba(50,50,50,1)" stroke-width="2" fill-opacity="1" fill="#00cc00"></path><g id="SvgjsG1358"><text id="SvgjsText1359" font-family="微软雅黑" text-anchor="middle" font-size="13px" width="25px" fill="#323232" font-weight="400" align="middle" anchor="middle" family="微软雅黑" size="13px" weight="400" font-style="" opacity="1" y="3.55" transform="rotate(0)"></text></g></g><g id="SvgjsG1360" transform="matrix(6.123233995736766e-17,1,-1,6.123233995736766e-17,471,83.75)"><path id="SvgjsPath1361" d="M 0 4Q 0 0 4 0L 41 0Q 45 0 45 4L 45 23Q 45 27 41 27L 4 27Q 0 27 0 23Z" stroke="rgba(50,50,50,1)" stroke-width="2" fill-opacity="1" fill="#00cc00"></path><g id="SvgjsG1362"><text id="SvgjsText1363" font-family="微软雅黑" text-anchor="middle" font-size="13px" width="25px" fill="#323232" font-weight="400" align="middle" anchor="middle" family="微软雅黑" size="13px" weight="400" font-style="" opacity="1" y="3.55" transform="rotate(0)"></text></g></g><g id="SvgjsG1364" transform="matrix(6.123233995736766e-17,1,-1,6.123233995736766e-17,508,83.75)"><path id="SvgjsPath1365" d="M 0 4Q 0 0 4 0L 41 0Q 45 0 45 4L 45 23Q 45 27 41 27L 4 27Q 0 27 0 23Z" stroke-dasharray="10,6" stroke="rgba(50,50,50,1)" stroke-width="2" fill-opacity="1" fill="#00cc00"></path><g id="SvgjsG1366"><text id="SvgjsText1367" font-family="微软雅黑" text-anchor="middle" font-size="13px" width="25px" fill="#323232" font-weight="400" align="middle" anchor="middle" family="微软雅黑" size="13px" weight="400" font-style="" opacity="1" y="3.55" transform="rotate(0)"></text></g></g><g id="SvgjsG1368" transform="matrix(6.123233995736766e-17,1,-1,6.123233995736766e-17,545,83.75)"><path id="SvgjsPath1369" d="M 0 4Q 0 0 4 0L 41 0Q 45 0 45 4L 45 23Q 45 27 41 27L 4 27Q 0 27 0 23Z" stroke-dasharray="10,6" stroke="rgba(50,50,50,1)" stroke-width="2" fill-opacity="1" fill="#00cc00"></path><g id="SvgjsG1370"><text id="SvgjsText1371" font-family="微软雅黑" text-anchor="middle" font-size="13px" width="25px" fill="#323232" font-weight="400" align="middle" anchor="middle" family="微软雅黑" size="13px" weight="400" font-style="" opacity="1" y="3.55" transform="rotate(0)"></text></g></g><g id="SvgjsG1372" transform="matrix(6.123233995736766e-17,1,-1,6.123233995736766e-17,582,83.75)"><path id="SvgjsPath1373" d="M 0 4Q 0 0 4 0L 41 0Q 45 0 45 4L 45 23Q 45 27 41 27L 4 27Q 0 27 0 23Z" stroke-dasharray="10,6" stroke="rgba(50,50,50,1)" stroke-width="2" fill-opacity="1" fill="#00cc00"></path><g id="SvgjsG1374"><text id="SvgjsText1375" font-family="微软雅黑" text-anchor="middle" font-size="13px" width="25px" fill="#323232" font-weight="400" align="middle" anchor="middle" family="微软雅黑" size="13px" weight="400" font-style="" opacity="1" y="3.55" transform="rotate(0)"></text></g></g><g id="SvgjsG1376" transform="matrix(6.123233995736766e-17,1,-1,6.123233995736766e-17,619,83.75)"><path id="SvgjsPath1377" d="M 0 4Q 0 0 4 0L 41 0Q 45 0 45 4L 45 23Q 45 27 41 27L 4 27Q 0 27 0 23Z" stroke-dasharray="10,6" stroke="rgba(50,50,50,1)" stroke-width="2" fill-opacity="1" fill="#ffffff"></path><g id="SvgjsG1378"><text id="SvgjsText1379" font-family="微软雅黑" text-anchor="middle" font-size="13px" width="25px" fill="#323232" font-weight="400" align="middle" anchor="middle" family="微软雅黑" size="13px" weight="400" font-style="" opacity="1" y="3.55" transform="rotate(0)"></text></g></g><g id="SvgjsG1380" transform="translate(395,244.75)"><path id="SvgjsPath1381" d="M 0 4Q 0 0 4 0L 233 0Q 237 0 237 4L 237 57Q 237 61 233 61L 4 61Q 0 61 0 57Z" stroke="rgba(50,50,50,1)" stroke-width="2" fill-opacity="1" fill="#ffffff"></path><g id="SvgjsG1382"><text id="SvgjsText1383" font-family="微软雅黑" text-anchor="middle" font-size="13px" width="217px" fill="#323232" font-weight="400" align="middle" anchor="middle" family="微软雅黑" size="13px" weight="400" font-style="" opacity="1" y="20.55" transform="rotate(0)"></text></g></g><g id="SvgjsG1384" transform="matrix(6.123233995736766e-17,1,-1,6.123233995736766e-17,435,251.75)"><path id="SvgjsPath1385" d="M 0 4Q 0 0 4 0L 41 0Q 45 0 45 4L 45 23Q 45 27 41 27L 4 27Q 0 27 0 23Z" stroke="rgba(50,50,50,1)" stroke-width="2" fill-opacity="1" fill="#00cc00"></path><g id="SvgjsG1386"><text id="SvgjsText1387" font-family="微软雅黑" text-anchor="middle" font-size="13px" width="25px" fill="#323232" font-weight="400" align="middle" anchor="middle" family="微软雅黑" size="13px" weight="400" font-style="" opacity="1" y="3.55" transform="rotate(0)"></text></g></g><g id="SvgjsG1388" transform="matrix(6.123233995736766e-17,1,-1,6.123233995736766e-17,471,251.75)"><path id="SvgjsPath1389" d="M 0 4Q 0 0 4 0L 41 0Q 45 0 45 4L 45 23Q 45 27 41 27L 4 27Q 0 27 0 23Z" stroke="rgba(50,50,50,1)" stroke-width="2" fill-opacity="1" fill="#00cc00"></path><g id="SvgjsG1390"><text id="SvgjsText1391" font-family="微软雅黑" text-anchor="middle" font-size="13px" width="25px" fill="#323232" font-weight="400" align="middle" anchor="middle" family="微软雅黑" size="13px" weight="400" font-style="" opacity="1" y="3.55" transform="rotate(0)"></text></g></g><g id="SvgjsG1392" transform="matrix(6.123233995736766e-17,1,-1,6.123233995736766e-17,508,251.75)"><path id="SvgjsPath1393" d="M 0 4Q 0 0 4 0L 41 0Q 45 0 45 4L 45 23Q 45 27 41 27L 4 27Q 0 27 0 23Z" stroke="rgba(50,50,50,1)" stroke-width="2" fill-opacity="1" fill="#00cc00"></path><g id="SvgjsG1394"><text id="SvgjsText1395" font-family="微软雅黑" text-anchor="middle" font-size="13px" width="25px" fill="#323232" font-weight="400" align="middle" anchor="middle" family="微软雅黑" size="13px" weight="400" font-style="" opacity="1" y="3.55" transform="rotate(0)"></text></g></g><g id="SvgjsG1396" transform="matrix(6.123233995736766e-17,1,-1,6.123233995736766e-17,545,251.75)"><path id="SvgjsPath1397" d="M 0 4Q 0 0 4 0L 41 0Q 45 0 45 4L 45 23Q 45 27 41 27L 4 27Q 0 27 0 23Z" stroke-dasharray="10,6" stroke="rgba(50,50,50,1)" stroke-width="2" fill-opacity="1" fill="#00cc00"></path><g id="SvgjsG1398"><text id="SvgjsText1399" font-family="微软雅黑" text-anchor="middle" font-size="13px" width="25px" fill="#323232" font-weight="400" align="middle" anchor="middle" family="微软雅黑" size="13px" weight="400" font-style="" opacity="1" y="3.55" transform="rotate(0)"></text></g></g><g id="SvgjsG1400" transform="matrix(6.123233995736766e-17,1,-1,6.123233995736766e-17,582,251.75)"><path id="SvgjsPath1401" d="M 0 4Q 0 0 4 0L 41 0Q 45 0 45 4L 45 23Q 45 27 41 27L 4 27Q 0 27 0 23Z" stroke-dasharray="10,6" stroke="rgba(50,50,50,1)" stroke-width="2" fill-opacity="1" fill="#00cc00"></path><g id="SvgjsG1402"><text id="SvgjsText1403" font-family="微软雅黑" text-anchor="middle" font-size="13px" width="25px" fill="#323232" font-weight="400" align="middle" anchor="middle" family="微软雅黑" size="13px" weight="400" font-style="" opacity="1" y="3.55" transform="rotate(0)"></text></g></g><g id="SvgjsG1404" transform="matrix(6.123233995736766e-17,1,-1,6.123233995736766e-17,619,251.75)"><path id="SvgjsPath1405" d="M 0 4Q 0 0 4 0L 41 0Q 45 0 45 4L 45 23Q 45 27 41 27L 4 27Q 0 27 0 23Z" stroke-dasharray="10,6" stroke="rgba(50,50,50,1)" stroke-width="2" fill-opacity="1" fill="#ffffff"></path><g id="SvgjsG1406"><text id="SvgjsText1407" font-family="微软雅黑" text-anchor="middle" font-size="13px" width="25px" fill="#323232" font-weight="400" align="middle" anchor="middle" family="微软雅黑" size="13px" weight="400" font-style="" opacity="1" y="3.55" transform="rotate(0)"></text></g></g><g id="SvgjsG1408"><path id="SvgjsPath1409" d="M291 224.25L337 224.25L337 27.75L605.5 27.75L605.5 83.75" stroke="#323232" stroke-width="2" fill="none" marker-end="url(#SvgjsMarker1410)"></path></g><g id="SvgjsG1412"><path id="SvgjsPath1413" d="M291 271.25L337 271.25L337 345.75L605.5 345.75L605.5 296.75" stroke="#323232" stroke-width="2" fill="none" marker-end="url(#SvgjsMarker1414)"></path></g><g id="SvgjsG1416" transform="translate(336.5,38.25)"><path id="SvgjsPath1417" d="M 0 0L 270 0L 270 20L 0 20Z" stroke="none" fill="none"></path><g id="SvgjsG1418"><text id="SvgjsText1419" font-family="微软雅黑" text-anchor="middle" font-size="12px" width="270px" fill="#323232" font-weight="400" align="middle" anchor="middle" family="微软雅黑" size="12px" weight="400" font-style="" opacity="1" y="0.7000000000000002" transform="rotate(0)"><tspan id="SvgjsTspan1420" dy="15" x="135"><tspan id="SvgjsTspan1421" style="text-decoration:;">CommitLogOffset、MsgSize、TagHash</tspan></tspan></text></g></g><g id="SvgjsG1422" transform="translate(336.5,314.75)"><path id="SvgjsPath1423" d="M 0 0L 270 0L 270 20L 0 20Z" stroke="none" fill="none"></path><g id="SvgjsG1424"><text id="SvgjsText1425" font-family="微软雅黑" text-anchor="middle" font-size="12px" width="270px" fill="#323232" font-weight="400" align="middle" anchor="middle" family="微软雅黑" size="12px" weight="400" font-style="" opacity="1" y="0.7000000000000002" transform="rotate(0)"><tspan id="SvgjsTspan1426" dy="15" x="135"><tspan id="SvgjsTspan1427" style="text-decoration:;">CommitLogOffset、MsgSize、TagHash</tspan></tspan></text></g></g><g id="SvgjsG1428" transform="translate(612,96.75)"><path id="SvgjsPath1429" d="M 0 0L 121 0L 121 19L 0 19Z" stroke="none" fill="none"></path><g id="SvgjsG1430"><text id="SvgjsText1431" font-family="微软雅黑" text-anchor="middle" font-size="13px" width="121px" fill="#323232" font-weight="700" align="middle" anchor="middle" family="微软雅黑" size="13px" weight="700" font-style="" opacity="1" y="-8.45" transform="rotate(0)"><tspan id="SvgjsTspan1432" dy="16" x="60.5"><tspan id="SvgjsTspan1433" style="text-decoration:;">Consumer</tspan></tspan><tspan id="SvgjsTspan1434" dy="16" x="60.5"><tspan id="SvgjsTspan1435" style="text-decoration:;">Queue0</tspan></tspan></text></g></g><g id="SvgjsG1436" transform="translate(612,264.75)"><path id="SvgjsPath1437" d="M 0 0L 121 0L 121 19L 0 19Z" stroke="none" fill="none"></path><g id="SvgjsG1438"><text id="SvgjsText1439" font-family="微软雅黑" text-anchor="middle" font-size="13px" width="121px" fill="#323232" font-weight="700" align="middle" anchor="middle" family="微软雅黑" size="13px" weight="700" font-style="" opacity="1" y="-8.45" transform="rotate(0)"><tspan id="SvgjsTspan1440" dy="16" x="60.5"><tspan id="SvgjsTspan1441" style="text-decoration:;">Consumer</tspan></tspan><tspan id="SvgjsTspan1442" dy="16" x="60.5"><tspan id="SvgjsTspan1443" style="text-decoration:;">Queue1</tspan></tspan></text></g></g><g id="SvgjsG1444" transform="translate(386.5,178.75)"><path id="SvgjsPath1445" d="M 0 0L 70 0L 70 20L 0 20Z" stroke="none" fill="none"></path><g id="SvgjsG1446"><text id="SvgjsText1447" font-family="微软雅黑" text-anchor="middle" font-size="12px" width="70px" fill="#323232" font-weight="400" align="middle" anchor="middle" family="微软雅黑" size="12px" weight="400" font-style="" opacity="1" y="0.7000000000000002" transform="rotate(0)"><tspan id="SvgjsTspan1448" dy="15" x="35"><tspan id="SvgjsTspan1449" style="text-decoration:;">MinOffset</tspan></tspan></text></g></g><g id="SvgjsG1450"><path id="SvgjsPath1451" d="M421.5 178.75L421.5 153.75L421.5 153.75L421.5 128.75" stroke-dasharray="3,3" stroke="#323232" stroke-width="2" fill="none" marker-end="url(#SvgjsMarker1452)"></path></g><g id="SvgjsG1454"><path id="SvgjsPath1455" d="M421.5 198.75L421.5 225.25L421.5 225.25L421.5 251.75" stroke-dasharray="3,3" stroke="#323232" stroke-width="2" fill="none" marker-end="url(#SvgjsMarker1456)"></path></g><g id="SvgjsG1458" transform="translate(533.5,178.75)"><path id="SvgjsPath1459" d="M 0 0L 70 0L 70 20L 0 20Z" stroke="none" fill="none"></path><g id="SvgjsG1460"><text id="SvgjsText1461" font-family="微软雅黑" text-anchor="middle" font-size="12px" width="70px" fill="#323232" font-weight="400" align="middle" anchor="middle" family="微软雅黑" size="12px" weight="400" font-style="" opacity="1" y="0.7000000000000002" transform="rotate(0)"><tspan id="SvgjsTspan1462" dy="15" x="35"><tspan id="SvgjsTspan1463" style="text-decoration:;">MaxOffset</tspan></tspan></text></g></g><g id="SvgjsG1464"><path id="SvgjsPath1465" d="M568.5 178.75L568.5 153.75L568.5 153.75L568.5 128.75" stroke-dasharray="3,3" stroke="#323232" stroke-width="2" fill="none" marker-end="url(#SvgjsMarker1466)"></path></g><g id="SvgjsG1468"><path id="SvgjsPath1469" d="M568.5 198.75L568.5 225.25L568.5 225.25L568.5 251.75" stroke-dasharray="3,3" stroke="#323232" stroke-width="2" fill="none" marker-end="url(#SvgjsMarker1470)"></path></g><g id="SvgjsG1472" transform="translate(459.5,172.75)"><path id="SvgjsPath1473" d="M 0 0L 70 0L 70 32L 0 32Z" stroke="none" fill="none"></path><g id="SvgjsG1474"><text id="SvgjsText1475" font-family="微软雅黑" text-anchor="middle" font-size="12px" width="70px" fill="#323232" font-weight="400" align="middle" anchor="middle" family="微软雅黑" size="12px" weight="400" font-style="" opacity="1" y="-0.7999999999999998" transform="rotate(0)"><tspan id="SvgjsTspan1476" dy="15" x="35"><tspan id="SvgjsTspan1477" style="text-decoration:;">Consumer</tspan></tspan><tspan id="SvgjsTspan1478" dy="15" x="35"><tspan id="SvgjsTspan1479" style="text-decoration:;">Offset</tspan></tspan></text></g></g><g id="SvgjsG1480"><path id="SvgjsPath1481" d="M494.5 172.75L494.5 150.75L494.5 150.75L494.5 128.75" stroke-dasharray="3,3" stroke="#323232" stroke-width="2" fill="none" marker-end="url(#SvgjsMarker1482)"></path></g><g id="SvgjsG1484"><path id="SvgjsPath1485" d="M494.5 204.75L531.5 251.75" stroke-dasharray="3,3" stroke="#323232" stroke-width="2" fill="none" marker-end="url(#SvgjsMarker1486)"></path></g><g id="SvgjsG1488" transform="translate(717,28.5)"><path id="SvgjsPath1489" d="M 0 4Q 0 0 4 0L 182.5 0Q 186.5 0 186.5 4L 186.5 155Q 186.5 159 182.5 159L 4 159Q 0 159 0 155Z" stroke-dasharray="10,6" stroke="rgba(50,50,50,1)" stroke-width="2" fill-opacity="1" fill="#ffffff"></path><g id="SvgjsG1490"><text id="SvgjsText1491" font-family="微软雅黑" text-anchor="middle" font-size="13px" width="167px" fill="#323232" font-weight="400" align="middle" anchor="middle" family="微软雅黑" size="13px" weight="400" font-style="" opacity="1" y="69.55" transform="rotate(0)"></text></g></g><g id="SvgjsG1492" transform="translate(741,69.5)"><path id="SvgjsPath1493" d="M 0 4Q 0 0 4 0L 41 0Q 45 0 45 4L 45 23Q 45 27 41 27L 4 27Q 0 27 0 23Z" stroke="rgba(50,50,50,1)" stroke-width="2" fill-opacity="1" fill="#00cc00"></path><g id="SvgjsG1494"><text id="SvgjsText1495" font-family="微软雅黑" text-anchor="middle" font-size="13px" width="25px" fill="#323232" font-weight="400" align="middle" anchor="middle" family="微软雅黑" size="13px" weight="400" font-style="" opacity="1" y="3.55" transform="rotate(0)"></text></g></g><g id="SvgjsG1496" transform="translate(741,106.5)"><path id="SvgjsPath1497" d="M 0 4Q 0 0 4 0L 41 0Q 45 0 45 4L 45 23Q 45 27 41 27L 4 27Q 0 27 0 23Z" stroke-dasharray="10,6" stroke="rgba(50,50,50,1)" stroke-width="2" fill-opacity="1" fill="#00cc00"></path><g id="SvgjsG1498"><text id="SvgjsText1499" font-family="微软雅黑" text-anchor="middle" font-size="13px" width="25px" fill="#323232" font-weight="400" align="middle" anchor="middle" family="微软雅黑" size="13px" weight="400" font-style="" opacity="1" y="3.55" transform="rotate(0)"></text></g></g><g id="SvgjsG1500" transform="translate(732.5,25)"><path id="SvgjsPath1501" d="M 0 0L 155.5 0L 155.5 40L 0 40Z" stroke="none" fill="none"></path><g id="SvgjsG1502"><text id="SvgjsText1503" font-family="微软雅黑" text-anchor="middle" font-size="13px" width="156px" fill="#323232" font-weight="700" align="middle" anchor="middle" family="微软雅黑" size="13px" weight="700" font-style="" opacity="1" y="10.05" transform="rotate(0)"><tspan id="SvgjsTspan1504" dy="16" x="78"><tspan id="SvgjsTspan1505" style="text-decoration:;">ConsumerQueue中的消息</tspan></tspan></text></g></g><g id="SvgjsG1506" transform="translate(816,72.5)"><path id="SvgjsPath1507" d="M 0 0L 65 0L 65 21L 0 21Z" stroke="none" fill="none"></path><g id="SvgjsG1508"><text id="SvgjsText1509" font-family="微软雅黑" text-anchor="middle" font-size="13px" width="65px" fill="#323232" font-weight="400" align="middle" anchor="middle" family="微软雅黑" size="13px" weight="400" font-style="" opacity="1" y="0.55" transform="rotate(0)"><tspan id="SvgjsTspan1510" dy="16" x="32.5"><tspan id="SvgjsTspan1511" style="text-decoration:;">已消费</tspan></tspan></text></g></g><g id="SvgjsG1512" transform="translate(816,109.5)"><path id="SvgjsPath1513" d="M 0 0L 65 0L 65 21L 0 21Z" stroke="none" fill="none"></path><g id="SvgjsG1514"><text id="SvgjsText1515" font-family="微软雅黑" text-anchor="middle" font-size="13px" width="65px" fill="#323232" font-weight="400" align="middle" anchor="middle" family="微软雅黑" size="13px" weight="400" font-style="" opacity="1" y="0.55" transform="rotate(0)"><tspan id="SvgjsTspan1516" dy="16" x="32.5"><tspan id="SvgjsTspan1517" style="text-decoration:;">未消费</tspan></tspan></text></g></g><g id="SvgjsG1518" transform="translate(766.75,203.75)"><path id="SvgjsPath1519" d="M 0 4Q 0 0 4 0L 83 0Q 87 0 87 4L 87 33Q 87 37 83 37L 4 37Q 0 37 0 33Z" stroke="rgba(50,50,50,1)" stroke-width="2" fill-opacity="1" fill="#ffffff"></path><g id="SvgjsG1520"><text id="SvgjsText1521" font-family="微软雅黑" text-anchor="middle" font-size="13px" width="67px" fill="#323232" font-weight="700" align="middle" anchor="middle" family="微软雅黑" size="13px" weight="700" font-style="" opacity="1" y="8.55" transform="rotate(0)"><tspan id="SvgjsTspan1522" dy="16" x="43.5"><tspan id="SvgjsTspan1523" style="text-decoration:;">Consumer</tspan></tspan></text></g></g><g id="SvgjsG1524"><path id="SvgjsPath1525" d="M531.5 251.75C 538 193.75 689 246.75 766.75 222.25" stroke-dasharray="8,5" stroke="#323232" stroke-width="2" fill="none" marker-end="url(#SvgjsMarker1526)"></path></g><g id="SvgjsG1528" transform="translate(741,143.5)"><path id="SvgjsPath1529" d="M 0 4Q 0 0 4 0L 41 0Q 45 0 45 4L 45 23Q 45 27 41 27L 4 27Q 0 27 0 23Z" stroke-dasharray="10,6" stroke="rgba(50,50,50,1)" stroke-width="2" fill-opacity="1" fill="#ffffff"></path><g id="SvgjsG1530"><text id="SvgjsText1531" font-family="微软雅黑" text-anchor="middle" font-size="13px" width="25px" fill="#323232" font-weight="400" align="middle" anchor="middle" family="微软雅黑" size="13px" weight="400" font-style="" opacity="1" y="3.55" transform="rotate(0)"></text></g></g><g id="SvgjsG1532" transform="translate(816,146.5)"><path id="SvgjsPath1533" d="M 0 0L 65 0L 65 21L 0 21Z" stroke="none" fill="none"></path><g id="SvgjsG1534"><text id="SvgjsText1535" font-family="微软雅黑" text-anchor="middle" font-size="13px" width="65px" fill="#323232" font-weight="400" align="middle" anchor="middle" family="微软雅黑" size="13px" weight="400" font-style="" opacity="1" y="0.55" transform="rotate(0)"><tspan id="SvgjsTspan1536" dy="16" x="32.5"><tspan id="SvgjsTspan1537" style="text-decoration:;">等待分发</tspan></tspan></text></g></g><g id="SvgjsG1538"><path id="SvgjsPath1539" d="M494.5 128.75C 651 169.75 655 233.75 766.75 222.25" stroke-dasharray="8,5" stroke="#323232" stroke-width="2" fill="none" marker-end="url(#SvgjsMarker1540)"></path></g></svg>