<svg id="SvgjsSvg1200" width="799" height="296" xmlns="http://www.w3.org/2000/svg" version="1.1" xmlns:xlink="http://www.w3.org/1999/xlink" xmlns:svgjs="http://svgjs.com/svgjs"><defs id="SvgjsDefs1201"><marker id="SvgjsMarker1360" markerWidth="16" markerHeight="12" refX="16" refY="6" viewBox="0 0 16 12" orient="auto" markerUnits="userSpaceOnUse" stroke-dasharray="0,0"><path id="SvgjsPath1361" d="M0,2 L14,6 L0,11 L0,2" fill="#323232" stroke="#323232" stroke-width="2"></path></marker><marker id="SvgjsMarker1370" markerWidth="16" markerHeight="12" refX="16" refY="6" viewBox="0 0 16 12" orient="auto" markerUnits="userSpaceOnUse" stroke-dasharray="0,0"><path id="SvgjsPath1371" d="M0,2 L14,6 L0,11 L0,2" fill="#323232" stroke="#323232" stroke-width="2"></path></marker><marker id="SvgjsMarker1380" markerWidth="16" markerHeight="12" refX="16" refY="6" viewBox="0 0 16 12" orient="auto" markerUnits="userSpaceOnUse" stroke-dasharray="0,0"><path id="SvgjsPath1381" d="M0,2 L14,6 L0,11 L0,2" fill="#323232" stroke="#323232" stroke-width="2"></path></marker><marker id="SvgjsMarker1390" markerWidth="16" markerHeight="12" refX="16" refY="6" viewBox="0 0 16 12" orient="auto" markerUnits="userSpaceOnUse" stroke-dasharray="0,0"><path id="SvgjsPath1391" d="M0,2 L14,6 L0,11 L0,2" fill="#323232" stroke="#323232" stroke-width="2"></path></marker></defs><g id="SvgjsG1202" transform="translate(25,25)"><path id="SvgjsPath1203" d="M 0 4Q 0 0 4 0L 136 0Q 140 0 140 4L 140 242Q 140 246 136 246L 4 246Q 0 246 0 242Z" stroke="rgba(50,50,50,1)" stroke-width="2" fill-opacity="1" fill="#ffffff"></path><g id="SvgjsG1204"><text id="SvgjsText1205" font-family="微软雅黑" text-anchor="middle" font-size="13px" width="130px" fill="#323232" font-weight="700" align="middle" anchor="middle" family="微软雅黑" size="13px" weight="700" font-style="" opacity="1" y="8.62142857142857" transform="rotate(0)"><tspan id="SvgjsTspan1206" dy="16" x="70"><tspan id="SvgjsTspan1207" style="text-decoration:;">Consumer Group 1</tspan></tspan></text></g></g><g id="SvgjsG1208" transform="translate(242,25)"><path id="SvgjsPath1209" d="M 0 4Q 0 0 4 0L 308 0Q 312 0 312 4L 312 242Q 312 246 308 246L 4 246Q 0 246 0 242Z" stroke="rgba(50,50,50,1)" stroke-width="2" fill-opacity="1" fill="#ffffff"></path><g id="SvgjsG1210"><text id="SvgjsText1211" font-family="微软雅黑" text-anchor="middle" font-size="13px" width="302px" fill="#323232" font-weight="700" align="middle" anchor="middle" family="微软雅黑" size="13px" weight="700" font-style="" opacity="1" y="8.62142857142857" transform="rotate(0)"><tspan id="SvgjsTspan1212" dy="16" x="156"><tspan id="SvgjsTspan1213" style="text-decoration:;">Topic</tspan></tspan></text></g></g><g id="SvgjsG1214" transform="translate(273,95.5)"><path id="SvgjsPath1215" d="M 0 0L 36 0L 36 35L 0 35Z" stroke="rgba(50,50,50,1)" stroke-width="2" fill-opacity="1" fill="#ffffff"></path><g id="SvgjsG1216"><text id="SvgjsText1217" font-family="微软雅黑" text-anchor="middle" font-size="13px" width="16px" fill="#323232" font-weight="400" align="middle" anchor="middle" family="微软雅黑" size="13px" weight="400" font-style="" opacity="1" y="7.55" transform="rotate(0)"><tspan id="SvgjsTspan1218" dy="16" x="18"><tspan id="SvgjsTspan1219" style="text-decoration:;">0</tspan></tspan></text></g></g><g id="SvgjsG1220" transform="translate(308,95.5)"><path id="SvgjsPath1221" d="M 0 0L 36 0L 36 35L 0 35Z" stroke="rgba(50,50,50,1)" stroke-width="2" fill-opacity="1" fill="#ffffff"></path><g id="SvgjsG1222"><text id="SvgjsText1223" font-family="微软雅黑" text-anchor="middle" font-size="13px" width="16px" fill="#323232" font-weight="400" align="middle" anchor="middle" family="微软雅黑" size="13px" weight="400" font-style="" opacity="1" y="7.55" transform="rotate(0)"><tspan id="SvgjsTspan1224" dy="16" x="18"><tspan id="SvgjsTspan1225" style="text-decoration:;">3</tspan></tspan></text></g></g><g id="SvgjsG1226" transform="translate(344,95.5)"><path id="SvgjsPath1227" d="M 0 0L 36 0L 36 35L 0 35Z" stroke="rgba(50,50,50,1)" stroke-width="2" fill-opacity="1" fill="#ffffff"></path><g id="SvgjsG1228"><text id="SvgjsText1229" font-family="微软雅黑" text-anchor="middle" font-size="13px" width="16px" fill="#323232" font-weight="400" align="middle" anchor="middle" family="微软雅黑" size="13px" weight="400" font-style="" opacity="1" y="7.55" transform="rotate(0)"><tspan id="SvgjsTspan1230" dy="16" x="18"><tspan id="SvgjsTspan1231" style="text-decoration:;">4</tspan></tspan></text></g></g><g id="SvgjsG1232" transform="translate(380,95.5)"><path id="SvgjsPath1233" d="M 0 0L 36 0L 36 35L 0 35Z" stroke="rgba(50,50,50,1)" stroke-width="2" fill-opacity="1" fill="#ffffff"></path><g id="SvgjsG1234"><text id="SvgjsText1235" font-family="微软雅黑" text-anchor="middle" font-size="13px" width="16px" fill="#323232" font-weight="400" align="middle" anchor="middle" family="微软雅黑" size="13px" weight="400" font-style="" opacity="1" y="7.55" transform="rotate(0)"><tspan id="SvgjsTspan1236" dy="16" x="18"><tspan id="SvgjsTspan1237" style="text-decoration:;">7</tspan></tspan></text></g></g><g id="SvgjsG1238" transform="translate(452,95.5)"><path id="SvgjsPath1239" d="M 0 0L 36 0L 36 35L 0 35Z" stroke="rgba(50,50,50,1)" stroke-width="2" fill-opacity="1" fill="#ffffff"></path><g id="SvgjsG1240"><text id="SvgjsText1241" font-family="微软雅黑" text-anchor="middle" font-size="13px" width="16px" fill="#323232" font-weight="400" align="middle" anchor="middle" family="微软雅黑" size="13px" weight="400" font-style="" opacity="1" y="7.55" transform="rotate(0)"><tspan id="SvgjsTspan1242" dy="16" x="18"><tspan id="SvgjsTspan1243" style="text-decoration:;">11</tspan></tspan></text></g></g><g id="SvgjsG1244" transform="translate(416,95.5)"><path id="SvgjsPath1245" d="M 0 0L 36 0L 36 35L 0 35Z" stroke="rgba(50,50,50,1)" stroke-width="2" fill-opacity="1" fill="#ffffff"></path><g id="SvgjsG1246"><text id="SvgjsText1247" font-family="微软雅黑" text-anchor="middle" font-size="13px" width="16px" fill="#323232" font-weight="400" align="middle" anchor="middle" family="微软雅黑" size="13px" weight="400" font-style="" opacity="1" y="7.55" transform="rotate(0)"><tspan id="SvgjsTspan1248" dy="16" x="18"><tspan id="SvgjsTspan1249" style="text-decoration:;">8</tspan></tspan></text></g></g><g id="SvgjsG1250" transform="translate(273,189.5)"><path id="SvgjsPath1251" d="M 0 0L 36 0L 36 35L 0 35Z" stroke="rgba(50,50,50,1)" stroke-width="2" fill-opacity="1" fill="#ffffff"></path><g id="SvgjsG1252"><text id="SvgjsText1253" font-family="微软雅黑" text-anchor="middle" font-size="13px" width="16px" fill="#323232" font-weight="400" align="middle" anchor="middle" family="微软雅黑" size="13px" weight="400" font-style="" opacity="1" y="7.55" transform="rotate(0)"><tspan id="SvgjsTspan1254" dy="16" x="18"><tspan id="SvgjsTspan1255" style="text-decoration:;">1</tspan></tspan></text></g></g><g id="SvgjsG1256" transform="translate(308,189.5)"><path id="SvgjsPath1257" d="M 0 0L 36 0L 36 35L 0 35Z" stroke="rgba(50,50,50,1)" stroke-width="2" fill-opacity="1" fill="#ffffff"></path><g id="SvgjsG1258"><text id="SvgjsText1259" font-family="微软雅黑" text-anchor="middle" font-size="13px" width="16px" fill="#323232" font-weight="400" align="middle" anchor="middle" family="微软雅黑" size="13px" weight="400" font-style="" opacity="1" y="7.55" transform="rotate(0)"><tspan id="SvgjsTspan1260" dy="16" x="18"><tspan id="SvgjsTspan1261" style="text-decoration:;">2</tspan></tspan></text></g></g><g id="SvgjsG1262" transform="translate(344,189.5)"><path id="SvgjsPath1263" d="M 0 0L 36 0L 36 35L 0 35Z" stroke="rgba(50,50,50,1)" stroke-width="2" fill-opacity="1" fill="#ffffff"></path><g id="SvgjsG1264"><text id="SvgjsText1265" font-family="微软雅黑" text-anchor="middle" font-size="13px" width="16px" fill="#323232" font-weight="400" align="middle" anchor="middle" family="微软雅黑" size="13px" weight="400" font-style="" opacity="1" y="7.55" transform="rotate(0)"><tspan id="SvgjsTspan1266" dy="16" x="18"><tspan id="SvgjsTspan1267" style="text-decoration:;">5</tspan></tspan></text></g></g><g id="SvgjsG1268" transform="translate(380,189.5)"><path id="SvgjsPath1269" d="M 0 0L 36 0L 36 35L 0 35Z" stroke="rgba(50,50,50,1)" stroke-width="2" fill-opacity="1" fill="#ffffff"></path><g id="SvgjsG1270"><text id="SvgjsText1271" font-family="微软雅黑" text-anchor="middle" font-size="13px" width="16px" fill="#323232" font-weight="400" align="middle" anchor="middle" family="微软雅黑" size="13px" weight="400" font-style="" opacity="1" y="7.55" transform="rotate(0)"><tspan id="SvgjsTspan1272" dy="16" x="18"><tspan id="SvgjsTspan1273" style="text-decoration:;">6</tspan></tspan></text></g></g><g id="SvgjsG1274" transform="translate(416,189.5)"><path id="SvgjsPath1275" d="M 0 0L 36 0L 36 35L 0 35Z" stroke="rgba(50,50,50,1)" stroke-width="2" fill-opacity="1" fill="#ffffff"></path><g id="SvgjsG1276"><text id="SvgjsText1277" font-family="微软雅黑" text-anchor="middle" font-size="13px" width="16px" fill="#323232" font-weight="400" align="middle" anchor="middle" family="微软雅黑" size="13px" weight="400" font-style="" opacity="1" y="7.55" transform="rotate(0)"><tspan id="SvgjsTspan1278" dy="16" x="18"><tspan id="SvgjsTspan1279" style="text-decoration:;">9</tspan></tspan></text></g></g><g id="SvgjsG1280" transform="translate(452,189.5)"><path id="SvgjsPath1281" d="M 0 0L 36 0L 36 35L 0 35Z" stroke="rgba(50,50,50,1)" stroke-width="2" fill-opacity="1" fill="#ffffff"></path><g id="SvgjsG1282"><text id="SvgjsText1283" font-family="微软雅黑" text-anchor="middle" font-size="13px" width="16px" fill="#323232" font-weight="400" align="middle" anchor="middle" family="微软雅黑" size="13px" weight="400" font-style="" opacity="1" y="7.55" transform="rotate(0)"><tspan id="SvgjsTspan1284" dy="16" x="18"><tspan id="SvgjsTspan1285" style="text-decoration:;">10</tspan></tspan></text></g></g><g id="SvgjsG1286" transform="translate(488,95.5)"><path id="SvgjsPath1287" d="M 0 0L 36 0L 36 35L 0 35Z" stroke="rgba(50,50,50,1)" stroke-width="2" fill-opacity="1" fill="#ffffff"></path><g id="SvgjsG1288"><text id="SvgjsText1289" font-family="微软雅黑" text-anchor="middle" font-size="13px" width="16px" fill="#323232" font-weight="400" align="middle" anchor="middle" family="微软雅黑" size="13px" weight="400" font-style="" opacity="1" y="7.55" transform="rotate(0)"><tspan id="SvgjsTspan1290" dy="16" x="18"><tspan id="SvgjsTspan1291" style="text-decoration:;">··</tspan></tspan></text></g></g><g id="SvgjsG1292" transform="translate(488,189.5)"><path id="SvgjsPath1293" d="M 0 0L 36 0L 36 35L 0 35Z" stroke="rgba(50,50,50,1)" stroke-width="2" fill-opacity="1" fill="#ffffff"></path><g id="SvgjsG1294"><text id="SvgjsText1295" font-family="微软雅黑" text-anchor="middle" font-size="13px" width="16px" fill="#323232" font-weight="400" align="middle" anchor="middle" family="微软雅黑" size="13px" weight="400" font-style="" opacity="1" y="7.55" transform="rotate(0)"><tspan id="SvgjsTspan1296" dy="16" x="18"><tspan id="SvgjsTspan1297" style="text-decoration:;">··</tspan></tspan></text></g></g><g id="SvgjsG1298" transform="translate(173.5,101.5)"><path id="SvgjsPath1299" d="M 0 0L 61 0L 61 23L 0 23Z" stroke="none" fill="none"></path><g id="SvgjsG1300"><text id="SvgjsText1301" font-family="微软雅黑" text-anchor="middle" font-size="13px" width="61px" fill="#323232" font-weight="400" align="middle" anchor="middle" family="微软雅黑" size="13px" weight="400" font-style="" opacity="1" y="1.55" transform="rotate(0)"><tspan id="SvgjsTspan1302" dy="16" x="30.5"><tspan id="SvgjsTspan1303" style="text-decoration:;">消费</tspan></tspan></text></g></g><g id="SvgjsG1304" transform="translate(632,25)"><path id="SvgjsPath1305" d="M 0 4Q 0 0 4 0L 138 0Q 142 0 142 4L 142 242Q 142 246 138 246L 4 246Q 0 246 0 242Z" stroke="rgba(50,50,50,1)" stroke-width="2" fill-opacity="1" fill="#ffffff"></path><g id="SvgjsG1306"><text id="SvgjsText1307" font-family="微软雅黑" text-anchor="middle" font-size="13px" width="132px" fill="#323232" font-weight="700" align="middle" anchor="middle" family="微软雅黑" size="13px" weight="700" font-style="" opacity="1" y="8.62142857142857" transform="rotate(0)"><tspan id="SvgjsTspan1308" dy="16" x="71"><tspan id="SvgjsTspan1309" style="text-decoration:;">Consumer Group 2</tspan></tspan></text></g></g><g id="SvgjsG1310" transform="translate(657.5,95.5)"><path id="SvgjsPath1311" d="M 0 4Q 0 0 4 0L 87 0Q 91 0 91 4L 91 31Q 91 35 87 35L 4 35Q 0 35 0 31Z" stroke="rgba(50,50,50,1)" stroke-width="2" fill-opacity="1" fill="#ffffff"></path><g id="SvgjsG1312"><text id="SvgjsText1313" font-family="微软雅黑" text-anchor="middle" font-size="13px" width="71px" fill="#323232" font-weight="400" align="middle" anchor="middle" family="微软雅黑" size="13px" weight="400" font-style="" opacity="1" y="7.55" transform="rotate(0)"><tspan id="SvgjsTspan1314" dy="16" x="45.5"><tspan id="SvgjsTspan1315" style="text-decoration:;">Consumer1</tspan></tspan></text></g></g><g id="SvgjsG1316" transform="translate(657.5,189.5)"><path id="SvgjsPath1317" d="M 0 4Q 0 0 4 0L 87 0Q 91 0 91 4L 91 31Q 91 35 87 35L 4 35Q 0 35 0 31Z" stroke="rgba(50,50,50,1)" stroke-width="2" fill-opacity="1" fill="#ffffff"></path><g id="SvgjsG1318"><text id="SvgjsText1319" font-family="微软雅黑" text-anchor="middle" font-size="13px" width="71px" fill="#323232" font-weight="400" align="middle" anchor="middle" family="微软雅黑" size="13px" weight="400" font-style="" opacity="1" y="7.55" transform="rotate(0)"><tspan id="SvgjsTspan1320" dy="16" x="45.5"><tspan id="SvgjsTspan1321" style="text-decoration:;">Consumer2</tspan></tspan></text></g></g><g id="SvgjsG1322" transform="translate(562,101.5)"><path id="SvgjsPath1323" d="M 0 0L 61 0L 61 23L 0 23Z" stroke="none" fill="none"></path><g id="SvgjsG1324"><text id="SvgjsText1325" font-family="微软雅黑" text-anchor="middle" font-size="13px" width="61px" fill="#323232" font-weight="400" align="middle" anchor="middle" family="微软雅黑" size="13px" weight="400" font-style="" opacity="1" y="1.55" transform="rotate(0)"><tspan id="SvgjsTspan1326" dy="16" x="30.5"><tspan id="SvgjsTspan1327" style="text-decoration:;">消费</tspan></tspan></text></g></g><g id="SvgjsG1328" transform="translate(562,195.5)"><path id="SvgjsPath1329" d="M 0 0L 61 0L 61 23L 0 23Z" stroke="none" fill="none"></path><g id="SvgjsG1330"><text id="SvgjsText1331" font-family="微软雅黑" text-anchor="middle" font-size="13px" width="61px" fill="#323232" font-weight="400" align="middle" anchor="middle" family="微软雅黑" size="13px" weight="400" font-style="" opacity="1" y="1.55" transform="rotate(0)"><tspan id="SvgjsTspan1332" dy="16" x="30.5"><tspan id="SvgjsTspan1333" style="text-decoration:;">消费</tspan></tspan></text></g></g><g id="SvgjsG1334" transform="translate(268,68.5)"><path id="SvgjsPath1335" d="M 0 0L 61 0L 61 23L 0 23Z" stroke="none" fill="none"></path><g id="SvgjsG1336"><text id="SvgjsText1337" font-family="微软雅黑" text-anchor="middle" font-size="13px" width="61px" fill="#323232" font-weight="400" align="middle" anchor="middle" family="微软雅黑" size="13px" weight="400" font-style="" opacity="1" y="1.55" transform="rotate(0)"><tspan id="SvgjsTspan1338" dy="16" x="30.5"><tspan id="SvgjsTspan1339" style="text-decoration:;">offset</tspan></tspan></text></g></g><g id="SvgjsG1340" transform="translate(173.5,195.5)"><path id="SvgjsPath1341" d="M 0 0L 61 0L 61 23L 0 23Z" stroke="none" fill="none"></path><g id="SvgjsG1342"><text id="SvgjsText1343" font-family="微软雅黑" text-anchor="middle" font-size="13px" width="61px" fill="#323232" font-weight="400" align="middle" anchor="middle" family="微软雅黑" size="13px" weight="400" font-style="" opacity="1" y="1.55" transform="rotate(0)"><tspan id="SvgjsTspan1344" dy="16" x="30.5"><tspan id="SvgjsTspan1345" style="text-decoration:;">消费</tspan></tspan></text></g></g><g id="SvgjsG1346" transform="translate(49.5,95.5)"><path id="SvgjsPath1347" d="M 0 4Q 0 0 4 0L 87 0Q 91 0 91 4L 91 31Q 91 35 87 35L 4 35Q 0 35 0 31Z" stroke="rgba(50,50,50,1)" stroke-width="2" fill-opacity="1" fill="#ffffff"></path><g id="SvgjsG1348"><text id="SvgjsText1349" font-family="微软雅黑" text-anchor="middle" font-size="13px" width="71px" fill="#323232" font-weight="400" align="middle" anchor="middle" family="微软雅黑" size="13px" weight="400" font-style="" opacity="1" y="7.55" transform="rotate(0)"><tspan id="SvgjsTspan1350" dy="16" x="45.5"><tspan id="SvgjsTspan1351" style="text-decoration:;">Consumer1</tspan></tspan></text></g></g><g id="SvgjsG1352" transform="translate(49.5,189.5)"><path id="SvgjsPath1353" d="M 0 4Q 0 0 4 0L 87 0Q 91 0 91 4L 91 31Q 91 35 87 35L 4 35Q 0 35 0 31Z" stroke="rgba(50,50,50,1)" stroke-width="2" fill-opacity="1" fill="#ffffff"></path><g id="SvgjsG1354"><text id="SvgjsText1355" font-family="微软雅黑" text-anchor="middle" font-size="13px" width="71px" fill="#323232" font-weight="400" align="middle" anchor="middle" family="微软雅黑" size="13px" weight="400" font-style="" opacity="1" y="7.55" transform="rotate(0)"><tspan id="SvgjsTspan1356" dy="16" x="45.5"><tspan id="SvgjsTspan1357" style="text-decoration:;">Consumer2</tspan></tspan></text></g></g><g id="SvgjsG1358"><path id="SvgjsPath1359" d="M95 95.5L95 65.5L326 65.5L326 95.5" stroke="#323232" stroke-width="2" fill="none" marker-end="url(#SvgjsMarker1360)"></path></g><g id="SvgjsG1362" transform="translate(416,166.5)"><path id="SvgjsPath1363" d="M 0 0L 61 0L 61 23L 0 23Z" stroke="none" fill="none"></path><g id="SvgjsG1364"><text id="SvgjsText1365" font-family="微软雅黑" text-anchor="middle" font-size="13px" width="61px" fill="#323232" font-weight="400" align="middle" anchor="middle" family="微软雅黑" size="13px" weight="400" font-style="" opacity="1" y="1.55" transform="rotate(0)"><tspan id="SvgjsTspan1366" dy="16" x="30.5"><tspan id="SvgjsTspan1367" style="text-decoration:;">offset</tspan></tspan></text></g></g><g id="SvgjsG1368"><path id="SvgjsPath1369" d="M703 95.5L703 65.5L434 65.5L434 95.5" stroke="#323232" stroke-width="2" fill="none" marker-end="url(#SvgjsMarker1370)"></path></g><g id="SvgjsG1372" transform="translate(430,72.5)"><path id="SvgjsPath1373" d="M 0 0L 61 0L 61 23L 0 23Z" stroke="none" fill="none"></path><g id="SvgjsG1374"><text id="SvgjsText1375" font-family="微软雅黑" text-anchor="middle" font-size="13px" width="61px" fill="#323232" font-weight="400" align="middle" anchor="middle" family="微软雅黑" size="13px" weight="400" font-style="" opacity="1" y="1.55" transform="rotate(0)"><tspan id="SvgjsTspan1376" dy="16" x="30.5"><tspan id="SvgjsTspan1377" style="text-decoration:;">offset</tspan></tspan></text></g></g><g id="SvgjsG1378"><path id="SvgjsPath1379" d="M703 189.5L703 148.5L326 148.5L326 189.5" stroke="#323232" stroke-width="2" fill="none" marker-end="url(#SvgjsMarker1380)"></path></g><g id="SvgjsG1382" transform="translate(319,166.5)"><path id="SvgjsPath1383" d="M 0 0L 61 0L 61 23L 0 23Z" stroke="none" fill="none"></path><g id="SvgjsG1384"><text id="SvgjsText1385" font-family="微软雅黑" text-anchor="middle" font-size="13px" width="61px" fill="#323232" font-weight="400" align="middle" anchor="middle" family="微软雅黑" size="13px" weight="400" font-style="" opacity="1" y="1.55" transform="rotate(0)"><tspan id="SvgjsTspan1386" dy="16" x="30.5"><tspan id="SvgjsTspan1387" style="text-decoration:;">offset</tspan></tspan></text></g></g><g id="SvgjsG1388"><path id="SvgjsPath1389" d="M95 189.5L95 163.5L470 163.5L470 189.5" stroke="#323232" stroke-width="2" fill="none" marker-end="url(#SvgjsMarker1390)"></path></g></svg>