<svg id="SvgjsSvg1006" width="549" height="323" xmlns="http://www.w3.org/2000/svg" version="1.1" xmlns:xlink="http://www.w3.org/1999/xlink" xmlns:svgjs="http://svgjs.com/svgjs"><defs id="SvgjsDefs1007"><marker id="SvgjsMarker1058" markerWidth="16" markerHeight="12" refX="16" refY="6" viewBox="0 0 16 12" orient="auto" markerUnits="userSpaceOnUse" stroke-dasharray="0,0"><path id="SvgjsPath1059" d="M0,2 L14,6 L0,11 L0,2" fill="#323232" stroke="#323232" stroke-width="2"></path></marker><marker id="SvgjsMarker1062" markerWidth="16" markerHeight="12" refX="16" refY="6" viewBox="0 0 16 12" orient="auto" markerUnits="userSpaceOnUse" stroke-dasharray="0,0"><path id="SvgjsPath1063" d="M0,2 L14,6 L0,11 L0,2" fill="#323232" stroke="#323232" stroke-width="2"></path></marker><marker id="SvgjsMarker1066" markerWidth="16" markerHeight="12" refX="16" refY="6" viewBox="0 0 16 12" orient="auto" markerUnits="userSpaceOnUse" stroke-dasharray="0,0"><path id="SvgjsPath1067" d="M0,2 L14,6 L0,11 L0,2" fill="#323232" stroke="#323232" stroke-width="2"></path></marker><marker id="SvgjsMarker1070" markerWidth="16" markerHeight="12" refX="16" refY="6" viewBox="0 0 16 12" orient="auto" markerUnits="userSpaceOnUse" stroke-dasharray="0,0"><path id="SvgjsPath1071" d="M0,2 L14,6 L0,11 L0,2" fill="#323232" stroke="#323232" stroke-width="2"></path></marker></defs><g id="SvgjsG1008" transform="translate(25,122)"><path id="SvgjsPath1009" d="M 0 0L 499 0L 499 176L 0 176Z" stroke="rgba(50,50,50,1)" stroke-width="2" fill-opacity="1" fill="#ffffff"></path><g id="SvgjsG1010"><text id="SvgjsText1011" font-family="微软雅黑" text-anchor="middle" font-size="13px" width="479px" fill="#323232" font-weight="400" align="middle" anchor="middle" family="微软雅黑" size="13px" weight="400" font-style="" opacity="1" y="78.05" transform="rotate(0)"></text></g></g><g id="SvgjsG1012" transform="translate(224.625,137.5)"><path id="SvgjsPath1013" d="M 0 0L 99.75 0L 99.75 40.5L 0 40.5Z" stroke="rgba(50,50,50,1)" stroke-width="2" fill-opacity="1" fill="#ffffff"></path><g id="SvgjsG1014"><text id="SvgjsText1015" font-family="微软雅黑" text-anchor="middle" font-size="12px" width="80px" fill="#323232" font-weight="400" align="middle" anchor="middle" family="微软雅黑" size="12px" weight="400" font-style="" opacity="1" y="3.45" transform="rotate(0)"><tspan id="SvgjsTspan1016" dy="15" x="50"><tspan id="SvgjsTspan1017" style="text-decoration:;">Remoting</tspan></tspan><tspan id="SvgjsTspan1018" dy="15" x="50"><tspan id="SvgjsTspan1019" style="text-decoration:;">Module</tspan></tspan></text></g></g><g id="SvgjsG1020" transform="translate(284.5,239.75)"><path id="SvgjsPath1021" d="M 0 0L 99.75 0L 99.75 40.5L 0 40.5Z" stroke="rgba(50,50,50,1)" stroke-width="2" fill-opacity="1" fill="#ffffff"></path><g id="SvgjsG1022"><text id="SvgjsText1023" font-family="微软雅黑" text-anchor="middle" font-size="12px" width="80px" fill="#323232" font-weight="400" align="middle" anchor="middle" family="微软雅黑" size="12px" weight="400" font-style="" opacity="1" y="3.45" transform="rotate(0)"><tspan id="SvgjsTspan1024" dy="15" x="50"><tspan id="SvgjsTspan1025" style="text-decoration:;">HA</tspan></tspan><tspan id="SvgjsTspan1026" dy="15" x="50"><tspan id="SvgjsTspan1027" style="text-decoration:;">Service</tspan></tspan></text></g></g><g id="SvgjsG1028" transform="translate(404.25,239.75)"><path id="SvgjsPath1029" d="M 0 0L 99.75 0L 99.75 40.5L 0 40.5Z" stroke="rgba(50,50,50,1)" stroke-width="2" fill-opacity="1" fill="#ffffff"></path><g id="SvgjsG1030"><text id="SvgjsText1031" font-family="微软雅黑" text-anchor="middle" font-size="12px" width="80px" fill="#323232" font-weight="400" align="middle" anchor="middle" family="微软雅黑" size="12px" weight="400" font-style="" opacity="1" y="3.45" transform="rotate(0)"><tspan id="SvgjsTspan1032" dy="15" x="50"><tspan id="SvgjsTspan1033" style="text-decoration:;">Index</tspan></tspan><tspan id="SvgjsTspan1034" dy="15" x="50"><tspan id="SvgjsTspan1035" style="text-decoration:;">Service</tspan></tspan></text></g></g><g id="SvgjsG1036" transform="translate(164.75,239.75)"><path id="SvgjsPath1037" d="M 0 0L 99.75 0L 99.75 40.5L 0 40.5Z" stroke="rgba(50,50,50,1)" stroke-width="2" fill-opacity="1" fill="#ffffff"></path><g id="SvgjsG1038"><text id="SvgjsText1039" font-family="微软雅黑" text-anchor="middle" font-size="12px" width="80px" fill="#323232" font-weight="400" align="middle" anchor="middle" family="微软雅黑" size="12px" weight="400" font-style="" opacity="1" y="3.45" transform="rotate(0)"><tspan id="SvgjsTspan1040" dy="15" x="50"><tspan id="SvgjsTspan1041" style="text-decoration:;">Store</tspan></tspan><tspan id="SvgjsTspan1042" dy="15" x="50"><tspan id="SvgjsTspan1043" style="text-decoration:;">Service</tspan></tspan></text></g></g><g id="SvgjsG1044" transform="translate(45,239.75)"><path id="SvgjsPath1045" d="M 0 0L 99.75 0L 99.75 40.5L 0 40.5Z" stroke="rgba(50,50,50,1)" stroke-width="2" fill-opacity="1" fill="#ffffff"></path><g id="SvgjsG1046"><text id="SvgjsText1047" font-family="微软雅黑" text-anchor="middle" font-size="12px" width="80px" fill="#323232" font-weight="400" align="middle" anchor="middle" family="微软雅黑" size="12px" weight="400" font-style="" opacity="1" y="3.45" transform="rotate(0)"><tspan id="SvgjsTspan1048" dy="15" x="50"><tspan id="SvgjsTspan1049" style="text-decoration:;">Client </tspan></tspan><tspan id="SvgjsTspan1050" dy="15" x="50"><tspan id="SvgjsTspan1051" style="text-decoration:;">Manager</tspan></tspan></text></g></g><g id="SvgjsG1052" transform="translate(244.5,56.75)"><path id="SvgjsPath1053" d="M 19.8 0L 40.2 0L 40.2 45.5L 60 45.5L 30 75.5L 0 45.5L 19.8 45.5L 19.8 0Z" stroke="rgba(50,50,50,1)" stroke-width="2" fill-opacity="1" fill="#ffffff"></path><g id="SvgjsG1054"><text id="SvgjsText1055" font-family="微软雅黑" text-anchor="middle" font-size="13px" width="84px" fill="#323232" font-weight="400" align="middle" anchor="middle" family="微软雅黑" size="13px" weight="400" font-style="" opacity="1" y="24.025000000000002" transform="rotate(0)"></text></g></g><g id="SvgjsG1056"><path id="SvgjsPath1057" d="M274.5 178L274.5 208.875L94.875 208.875L94.875 239.75" stroke="#323232" stroke-width="2" fill="none" marker-end="url(#SvgjsMarker1058)"></path></g><g id="SvgjsG1060"><path id="SvgjsPath1061" d="M274.5 178L274.5 208.875L214.625 208.875L214.625 239.75" stroke="#323232" stroke-width="2" fill="none" marker-end="url(#SvgjsMarker1062)"></path></g><g id="SvgjsG1064"><path id="SvgjsPath1065" d="M274.5 178L274.5 208.875L334.375 208.875L334.375 239.75" stroke="#323232" stroke-width="2" fill="none" marker-end="url(#SvgjsMarker1066)"></path></g><g id="SvgjsG1068"><path id="SvgjsPath1069" d="M274.5 178L274.5 208.875L454.125 208.875L454.125 239.75" stroke="#323232" stroke-width="2" fill="none" marker-end="url(#SvgjsMarker1070)"></path></g><g id="SvgjsG1072" transform="translate(223.75,25)"><path id="SvgjsPath1073" d="M 0 0L 101.5 0L 101.5 24L 0 24Z" stroke="none" fill="none"></path><g id="SvgjsG1074"><text id="SvgjsText1075" font-family="微软雅黑" text-anchor="middle" font-size="12px" width="102px" fill="#323232" font-weight="400" align="middle" anchor="middle" family="微软雅黑" size="12px" weight="400" font-style="" opacity="1" y="2.7" transform="rotate(0)"><tspan id="SvgjsTspan1076" dy="15" x="51"><tspan id="SvgjsTspan1077" style="text-decoration:;">Requests</tspan></tspan></text></g></g></svg>