<svg id="SvgjsSvg1362" width="410" height="272" xmlns="http://www.w3.org/2000/svg" version="1.1" xmlns:xlink="http://www.w3.org/1999/xlink" xmlns:svgjs="http://svgjs.com/svgjs"><defs id="SvgjsDefs1363"><marker id="SvgjsMarker1396" markerWidth="16" markerHeight="12" refX="0" refY="6" viewBox="0 0 16 12" orient="auto" markerUnits="userSpaceOnUse" stroke-dasharray="0,0"><path id="SvgjsPath1397" d="M15,1.5 L2,6 L15,10.5" fill="#323232" stroke="#323232" stroke-width="2"></path></marker><marker id="SvgjsMarker1398" markerWidth="16" markerHeight="12" refX="16" refY="6" viewBox="0 0 16 12" orient="auto" markerUnits="userSpaceOnUse" stroke-dasharray="0,0"><path id="SvgjsPath1399" d="M0,2 L14,6 L0,11 L0,2" fill="#323232" stroke="#323232" stroke-width="2"></path></marker><marker id="SvgjsMarker1402" markerWidth="16" markerHeight="12" refX="0" refY="6" viewBox="0 0 16 12" orient="auto" markerUnits="userSpaceOnUse" stroke-dasharray="0,0"><path id="SvgjsPath1403" d="M15,1.5 L2,6 L15,10.5" fill="#323232" stroke="#323232" stroke-width="2"></path></marker><marker id="SvgjsMarker1404" markerWidth="16" markerHeight="12" refX="16" refY="6" viewBox="0 0 16 12" orient="auto" markerUnits="userSpaceOnUse" stroke-dasharray="0,0"><path id="SvgjsPath1405" d="M0,2 L14,6 L0,11 L0,2" fill="#323232" stroke="#323232" stroke-width="2"></path></marker></defs><g id="SvgjsG1364" transform="translate(25,25)"><path id="SvgjsPath1365" d="M 0 4Q 0 0 4 0L 356 0Q 360 0 360 4L 360 218Q 360 222 356 222L 4 222Q 0 222 0 218Z" stroke="rgba(50,50,50,1)" stroke-width="2" fill-opacity="1" fill="#ffffff"></path><g id="SvgjsG1366"><text id="SvgjsText1367" font-family="微软雅黑" text-anchor="middle" font-size="13px" width="350px" fill="#323232" font-weight="700" align="middle" anchor="middle" family="微软雅黑" size="13px" weight="700" font-style="" opacity="1" y="6.907142857142856" transform="rotate(0)"><tspan id="SvgjsTspan1368" dy="16" x="180"><tspan id="SvgjsTspan1369" style="text-decoration:;">Broker 集群</tspan></tspan></text></g></g><g id="SvgjsG1370" transform="translate(61,79)"><path id="SvgjsPath1371" d="M 0 4Q 0 0 4 0L 122 0Q 126 0 126 4L 126 32Q 126 36 122 36L 4 36Q 0 36 0 32Z" stroke="rgba(50,50,50,1)" stroke-width="2" fill-opacity="1" fill="#ffffff"></path><g id="SvgjsG1372"><text id="SvgjsText1373" font-family="微软雅黑" text-anchor="middle" font-size="13px" width="106px" fill="#323232" font-weight="400" align="middle" anchor="middle" family="微软雅黑" size="13px" weight="400" font-style="" opacity="1" y="8.05" transform="rotate(0)"><tspan id="SvgjsTspan1374" dy="16" x="63"><tspan id="SvgjsTspan1375" style="text-decoration:;">Broker Master 1</tspan></tspan></text></g></g><g id="SvgjsG1376" transform="translate(225,79)"><path id="SvgjsPath1377" d="M 0 4Q 0 0 4 0L 122 0Q 126 0 126 4L 126 32Q 126 36 122 36L 4 36Q 0 36 0 32Z" stroke="rgba(50,50,50,1)" stroke-width="2" fill-opacity="1" fill="#ffffff"></path><g id="SvgjsG1378"><text id="SvgjsText1379" font-family="微软雅黑" text-anchor="middle" font-size="13px" width="106px" fill="#323232" font-weight="400" align="middle" anchor="middle" family="微软雅黑" size="13px" weight="400" font-style="" opacity="1" y="8.05" transform="rotate(0)"><tspan id="SvgjsTspan1380" dy="16" x="63"><tspan id="SvgjsTspan1381" style="text-decoration:;">Broker Master 2</tspan></tspan></text></g></g><g id="SvgjsG1382" transform="translate(61,174)"><path id="SvgjsPath1383" d="M 0 4Q 0 0 4 0L 122 0Q 126 0 126 4L 126 32Q 126 36 122 36L 4 36Q 0 36 0 32Z" stroke="rgba(50,50,50,1)" stroke-width="2" fill-opacity="1" fill="#ffffff"></path><g id="SvgjsG1384"><text id="SvgjsText1385" font-family="微软雅黑" text-anchor="middle" font-size="13px" width="106px" fill="#323232" font-weight="400" align="middle" anchor="middle" family="微软雅黑" size="13px" weight="400" font-style="" opacity="1" y="8.05" transform="rotate(0)"><tspan id="SvgjsTspan1386" dy="16" x="63"><tspan id="SvgjsTspan1387" style="text-decoration:;">Broker Slave 1</tspan></tspan></text></g></g><g id="SvgjsG1388" transform="translate(225,174)"><path id="SvgjsPath1389" d="M 0 4Q 0 0 4 0L 122 0Q 126 0 126 4L 126 32Q 126 36 122 36L 4 36Q 0 36 0 32Z" stroke="rgba(50,50,50,1)" stroke-width="2" fill-opacity="1" fill="#ffffff"></path><g id="SvgjsG1390"><text id="SvgjsText1391" font-family="微软雅黑" text-anchor="middle" font-size="13px" width="106px" fill="#323232" font-weight="400" align="middle" anchor="middle" family="微软雅黑" size="13px" weight="400" font-style="" opacity="1" y="8.05" transform="rotate(0)"><tspan id="SvgjsTspan1392" dy="16" x="63"><tspan id="SvgjsTspan1393" style="text-decoration:;">Broker Slave 2</tspan></tspan></text></g></g><g id="SvgjsG1394"><path id="SvgjsPath1395" d="M124 174L124 144.5L124 144.5L124 115" stroke="#323232" stroke-width="2" fill="none" marker-start="url(#SvgjsMarker1396)" marker-end="url(#SvgjsMarker1398)"></path></g><g id="SvgjsG1400"><path id="SvgjsPath1401" d="M288 115L288 144.5L288 144.5L288 174" stroke="#323232" stroke-width="2" fill="none" marker-start="url(#SvgjsMarker1402)" marker-end="url(#SvgjsMarker1404)"></path></g><g id="SvgjsG1406" transform="translate(71,134.5)"><path id="SvgjsPath1407" d="M 0 0L 57 0L 57 20L 0 20Z" stroke="none" fill="none"></path><g id="SvgjsG1408"><text id="SvgjsText1409" font-family="微软雅黑" text-anchor="middle" font-size="13px" width="57px" fill="#323232" font-weight="400" align="middle" anchor="middle" family="微软雅黑" size="13px" weight="400" font-style="" opacity="1" y="0.050000000000000044" transform="rotate(0)"><tspan id="SvgjsTspan1410" dy="16" x="28.5"><tspan id="SvgjsTspan1411" style="text-decoration:;">Data</tspan></tspan></text></g></g><g id="SvgjsG1412" transform="translate(118,134.5)"><path id="SvgjsPath1413" d="M 0 0L 57 0L 57 20L 0 20Z" stroke="none" fill="none"></path><g id="SvgjsG1414"><text id="SvgjsText1415" font-family="微软雅黑" text-anchor="middle" font-size="13px" width="57px" fill="#323232" font-weight="400" align="middle" anchor="middle" family="微软雅黑" size="13px" weight="400" font-style="" opacity="1" y="0.050000000000000044" transform="rotate(0)"><tspan id="SvgjsTspan1416" dy="16" x="28.5"><tspan id="SvgjsTspan1417" style="text-decoration:;">Sync</tspan></tspan></text></g></g><g id="SvgjsG1418" transform="translate(237,134.5)"><path id="SvgjsPath1419" d="M 0 0L 57 0L 57 20L 0 20Z" stroke="none" fill="none"></path><g id="SvgjsG1420"><text id="SvgjsText1421" font-family="微软雅黑" text-anchor="middle" font-size="13px" width="57px" fill="#323232" font-weight="400" align="middle" anchor="middle" family="微软雅黑" size="13px" weight="400" font-style="" opacity="1" y="0.050000000000000044" transform="rotate(0)"><tspan id="SvgjsTspan1422" dy="16" x="28.5"><tspan id="SvgjsTspan1423" style="text-decoration:;">Data</tspan></tspan></text></g></g><g id="SvgjsG1424" transform="translate(281,134.5)"><path id="SvgjsPath1425" d="M 0 0L 57 0L 57 20L 0 20Z" stroke="none" fill="none"></path><g id="SvgjsG1426"><text id="SvgjsText1427" font-family="微软雅黑" text-anchor="middle" font-size="13px" width="57px" fill="#323232" font-weight="400" align="middle" anchor="middle" family="微软雅黑" size="13px" weight="400" font-style="" opacity="1" y="0.050000000000000044" transform="rotate(0)"><tspan id="SvgjsTspan1428" dy="16" x="28.5"><tspan id="SvgjsTspan1429" style="text-decoration:;">Sync</tspan></tspan></text></g></g></svg>