<svg id="SvgjsSvg1430" width="645" height="308" xmlns="http://www.w3.org/2000/svg" version="1.1" xmlns:xlink="http://www.w3.org/1999/xlink" xmlns:svgjs="http://svgjs.com/svgjs"><defs id="SvgjsDefs1431"></defs><g id="SvgjsG1432" transform="translate(25,25)"><path id="SvgjsPath1433" d="M 0 4Q 0 0 4 0L 591 0Q 595 0 595 4L 595 254Q 595 258 591 258L 4 258Q 0 258 0 254Z" stroke="rgba(50,50,50,1)" stroke-width="2" fill-opacity="1" fill="#ffffff"></path><g id="SvgjsG1434"><text id="SvgjsText1435" font-family="微软雅黑" text-anchor="middle" font-size="13px" width="585px" fill="#323232" font-weight="700" align="middle" anchor="middle" family="微软雅黑" size="13px" weight="700" font-style="" opacity="1" y="9.478571428571428" transform="rotate(0)"><tspan id="SvgjsTspan1436" dy="16" x="297.5"><tspan id="SvgjsTspan1437" style="text-decoration:;">CommitLog</tspan></tspan></text></g></g><g id="SvgjsG1438" transform="translate(51,74)"><path id="SvgjsPath1439" d="M 0 4Q 0 0 4 0L 252 0Q 256 0 256 4L 256 180Q 256 184 252 184L 4 184Q 0 184 0 180Z" stroke="rgba(50,50,50,1)" stroke-width="2" fill-opacity="1" fill="#ffffff"></path><g id="SvgjsG1440"><text id="SvgjsText1441" font-family="微软雅黑" text-anchor="middle" font-size="13px" width="246px" fill="#323232" font-weight="700" align="middle" anchor="middle" family="微软雅黑" size="13px" weight="700" font-style="" opacity="1" y="4.192857142857142" transform="rotate(0)"><tspan id="SvgjsTspan1442" dy="16" x="128"><tspan id="SvgjsTspan1443" style="text-decoration:;">Topic</tspan></tspan></text></g></g><g id="SvgjsG1444" transform="translate(73,110)"><path id="SvgjsPath1445" d="M 0 0L 212 0L 212 57L 0 57Z" stroke="rgba(50,50,50,1)" stroke-width="2" fill-opacity="1" fill="#ffffff"></path><g id="SvgjsG1446"><text id="SvgjsText1447" font-family="微软雅黑" text-anchor="middle" font-size="13px" width="192px" fill="#323232" font-weight="400" align="middle" anchor="middle" family="微软雅黑" size="13px" weight="400" font-style="" opacity="1" y="18.55" transform="rotate(0)"></text></g></g><g id="SvgjsG1448" transform="translate(140,123)"><path id="SvgjsPath1449" d="M 0 0L 135 0L 135 31L 0 31Z" stroke="rgba(50,50,50,1)" stroke-width="2" fill-opacity="1" fill="#ffffff"></path><g id="SvgjsG1450"><text id="SvgjsText1451" font-family="微软雅黑" text-anchor="middle" font-size="13px" width="115px" fill="#323232" font-weight="400" align="middle" anchor="middle" family="微软雅黑" size="13px" weight="400" font-style="" opacity="1" y="5.55" transform="rotate(0)"><tspan id="SvgjsTspan1452" dy="16" x="67.5"><tspan id="SvgjsTspan1453" style="text-decoration:;">ConsumeQueue</tspan></tspan></text></g></g><g id="SvgjsG1454" transform="translate(73,128.5)"><path id="SvgjsPath1455" d="M 0 0L 70 0L 70 20L 0 20Z" stroke="none" fill="none"></path><g id="SvgjsG1456"><text id="SvgjsText1457" font-family="微软雅黑" text-anchor="middle" font-size="13px" width="70px" fill="#323232" font-weight="400" align="middle" anchor="middle" family="微软雅黑" size="13px" weight="400" font-style="" opacity="1" y="0.050000000000000044" transform="rotate(0)"><tspan id="SvgjsTspan1458" dy="16" x="35"><tspan id="SvgjsTspan1459" style="text-decoration:;">Queue</tspan></tspan></text></g></g><g id="SvgjsG1460" transform="translate(73,188)"><path id="SvgjsPath1461" d="M 0 0L 212 0L 212 57L 0 57Z" stroke="rgba(50,50,50,1)" stroke-width="2" fill-opacity="1" fill="#ffffff"></path><g id="SvgjsG1462"><text id="SvgjsText1463" font-family="微软雅黑" text-anchor="middle" font-size="13px" width="192px" fill="#323232" font-weight="400" align="middle" anchor="middle" family="微软雅黑" size="13px" weight="400" font-style="" opacity="1" y="18.55" transform="rotate(0)"></text></g></g><g id="SvgjsG1464" transform="translate(73,206.5)"><path id="SvgjsPath1465" d="M 0 0L 70 0L 70 20L 0 20Z" stroke="none" fill="none"></path><g id="SvgjsG1466"><text id="SvgjsText1467" font-family="微软雅黑" text-anchor="middle" font-size="13px" width="70px" fill="#323232" font-weight="400" align="middle" anchor="middle" family="微软雅黑" size="13px" weight="400" font-style="" opacity="1" y="0.050000000000000044" transform="rotate(0)"><tspan id="SvgjsTspan1468" dy="16" x="35"><tspan id="SvgjsTspan1469" style="text-decoration:;">Queue</tspan></tspan></text></g></g><g id="SvgjsG1470" transform="translate(140,201)"><path id="SvgjsPath1471" d="M 0 0L 135 0L 135 31L 0 31Z" stroke="rgba(50,50,50,1)" stroke-width="2" fill-opacity="1" fill="#ffffff"></path><g id="SvgjsG1472"><text id="SvgjsText1473" font-family="微软雅黑" text-anchor="middle" font-size="13px" width="115px" fill="#323232" font-weight="400" align="middle" anchor="middle" family="微软雅黑" size="13px" weight="400" font-style="" opacity="1" y="5.55" transform="rotate(0)"><tspan id="SvgjsTspan1474" dy="16" x="67.5"><tspan id="SvgjsTspan1475" style="text-decoration:;">ConsumeQueue</tspan></tspan></text></g></g><g id="SvgjsG1476" transform="translate(340,74)"><path id="SvgjsPath1477" d="M 0 4Q 0 0 4 0L 252 0Q 256 0 256 4L 256 180Q 256 184 252 184L 4 184Q 0 184 0 180Z" stroke="rgba(50,50,50,1)" stroke-width="2" fill-opacity="1" fill="#ffffff"></path><g id="SvgjsG1478"><text id="SvgjsText1479" font-family="微软雅黑" text-anchor="middle" font-size="13px" width="246px" fill="#323232" font-weight="700" align="middle" anchor="middle" family="微软雅黑" size="13px" weight="700" font-style="" opacity="1" y="4.192857142857142" transform="rotate(0)"><tspan id="SvgjsTspan1480" dy="16" x="128"><tspan id="SvgjsTspan1481" style="text-decoration:;">Topic</tspan></tspan></text></g></g><g id="SvgjsG1482" transform="translate(362,110)"><path id="SvgjsPath1483" d="M 0 0L 212 0L 212 57L 0 57Z" stroke="rgba(50,50,50,1)" stroke-width="2" fill-opacity="1" fill="#ffffff"></path><g id="SvgjsG1484"><text id="SvgjsText1485" font-family="微软雅黑" text-anchor="middle" font-size="13px" width="192px" fill="#323232" font-weight="400" align="middle" anchor="middle" family="微软雅黑" size="13px" weight="400" font-style="" opacity="1" y="18.55" transform="rotate(0)"></text></g></g><g id="SvgjsG1486" transform="translate(362,128.5)"><path id="SvgjsPath1487" d="M 0 0L 70 0L 70 20L 0 20Z" stroke="none" fill="none"></path><g id="SvgjsG1488"><text id="SvgjsText1489" font-family="微软雅黑" text-anchor="middle" font-size="13px" width="70px" fill="#323232" font-weight="400" align="middle" anchor="middle" family="微软雅黑" size="13px" weight="400" font-style="" opacity="1" y="0.050000000000000044" transform="rotate(0)"><tspan id="SvgjsTspan1490" dy="16" x="35"><tspan id="SvgjsTspan1491" style="text-decoration:;">Queue</tspan></tspan></text></g></g><g id="SvgjsG1492" transform="translate(428,123)"><path id="SvgjsPath1493" d="M 0 0L 135 0L 135 31L 0 31Z" stroke="rgba(50,50,50,1)" stroke-width="2" fill-opacity="1" fill="#ffffff"></path><g id="SvgjsG1494"><text id="SvgjsText1495" font-family="微软雅黑" text-anchor="middle" font-size="13px" width="115px" fill="#323232" font-weight="400" align="middle" anchor="middle" family="微软雅黑" size="13px" weight="400" font-style="" opacity="1" y="5.55" transform="rotate(0)"><tspan id="SvgjsTspan1496" dy="16" x="67.5"><tspan id="SvgjsTspan1497" style="text-decoration:;">ConsumeQueue</tspan></tspan></text></g></g><g id="SvgjsG1498" transform="translate(362,188)"><path id="SvgjsPath1499" d="M 0 0L 212 0L 212 57L 0 57Z" stroke="rgba(50,50,50,1)" stroke-width="2" fill-opacity="1" fill="#ffffff"></path><g id="SvgjsG1500"><text id="SvgjsText1501" font-family="微软雅黑" text-anchor="middle" font-size="13px" width="192px" fill="#323232" font-weight="400" align="middle" anchor="middle" family="微软雅黑" size="13px" weight="400" font-style="" opacity="1" y="18.55" transform="rotate(0)"></text></g></g><g id="SvgjsG1502" transform="translate(362,206.5)"><path id="SvgjsPath1503" d="M 0 0L 70 0L 70 20L 0 20Z" stroke="none" fill="none"></path><g id="SvgjsG1504"><text id="SvgjsText1505" font-family="微软雅黑" text-anchor="middle" font-size="13px" width="70px" fill="#323232" font-weight="400" align="middle" anchor="middle" family="微软雅黑" size="13px" weight="400" font-style="" opacity="1" y="0.050000000000000044" transform="rotate(0)"><tspan id="SvgjsTspan1506" dy="16" x="35"><tspan id="SvgjsTspan1507" style="text-decoration:;">Queue</tspan></tspan></text></g></g><g id="SvgjsG1508" transform="translate(428,201)"><path id="SvgjsPath1509" d="M 0 0L 135 0L 135 31L 0 31Z" stroke="rgba(50,50,50,1)" stroke-width="2" fill-opacity="1" fill="#ffffff"></path><g id="SvgjsG1510"><text id="SvgjsText1511" font-family="微软雅黑" text-anchor="middle" font-size="13px" width="115px" fill="#323232" font-weight="400" align="middle" anchor="middle" family="微软雅黑" size="13px" weight="400" font-style="" opacity="1" y="5.55" transform="rotate(0)"><tspan id="SvgjsTspan1512" dy="16" x="67.5"><tspan id="SvgjsTspan1513" style="text-decoration:;">ConsumeQueue</tspan></tspan></text></g></g></svg>