<?xml version="1.0" standalone="no"?><!DOCTYPE svg PUBLIC "-//W3C//DTD SVG 1.1//EN" "http://www.w3.org/Graphics/SVG/1.1/DTD/svg11.dtd"><svg class="icon" width="512px" height="512.00px" viewBox="0 0 1024 1024" version="1.1" xmlns="http://www.w3.org/2000/svg"><path d="M609.630574 116.018364c-34.014698 34.014698-33.994232 89.153506 0 123.146714 8.620331 8.620331 18.600637 14.988366 29.247115 19.262716l-49.771567 124.409474-203.982788-58.269101c8.337899-29.416983 1.344624-62.271252-21.787212-85.402066-33.994232-33.994232-89.13304-34.014698-123.146714 0s-33.994232 89.153506 0 123.146715c23.130813 23.130813 55.986105 30.125111 85.403088 21.787212l58.269102 203.982788-124.409475 49.771567c-4.27435-10.647501-10.642384-20.626783-19.262715-29.247115-33.994232-33.994232-89.13304-34.014698-123.146715 0-34.014698 34.014698-33.994232 89.153506 0 123.146715s89.13304 34.014698 123.146715 0c4.771677-4.771677 8.66638-10.031471 12.145621-15.511276l254.673283 159.183466 41.048905 41.048905c22.689768 22.689768 59.428507 22.669302 82.09781 0L917.498384 629.131721c22.669302-22.669302 22.689768-59.408041 0-82.09781l-41.048905-41.048905-159.162999-254.694773c5.490038-3.406586 10.719132-7.352455 15.490809-12.125155 34.014698-34.014698 33.994232-89.153506 0-123.146714s-89.13304-34.014698-123.146715 0zM281.237289 280.213983c11.323906-11.32493 29.745465-11.30344 41.048905 0 11.30344 11.30344 11.323906 29.724998 0 41.048905s-29.745465 11.30344-41.048905 0c-11.30344-11.30344-11.323906-29.723975 0-41.048905zM158.090575 690.705078c-11.30344-11.30344-11.323906-29.724998 0-41.048905 11.323906-11.32493 29.745465-11.30344 41.048904 0 11.30344 11.30344 11.323906 29.724998 0 41.048905-11.323906 11.323906-29.745465 11.30344-41.048904 0z m718.358904-102.622262L589.106122 875.426173l-41.048905-41.048905L835.400574 547.033911l41.048905 41.048905z m-73.718978-90.477664L498.628458 801.707195 306.395272 681.58742l99.015108-39.607067c7.491625-3.006474 14.06432-7.414877 19.47761-12.828166 14.510482-14.510482 20.765953-36.159548 14.772448-57.022715l-53.353138-186.845479 186.845478 53.353139c20.863167 5.993504 42.511209-0.261966 57.022715-14.772448 5.41329-5.41329 9.82067-11.985986 12.828167-19.47761l39.607066-99.015108 120.119775 192.233186zM691.728384 198.116173c-11.32493 11.323906-29.745465 11.30344-41.048905 0-11.30344-11.30344-11.32493-29.724998 0-41.048905 11.323906-11.32493 29.745465-11.30344 41.048905 0s11.323906 29.724998 0 41.048905z" fill="#4285F4" /></svg>